<svg version="1.1" viewBox="0.0 0.0 639.9160104986877 413.9186351706037" fill="none" stroke="none" stroke-linecap="square" stroke-miterlimit="10" xmlns:xlink="http://www.w3.org/1999/xlink" xmlns="http://www.w3.org/2000/svg"><clipPath id="p.0"><path d="m0 0l639.916 0l0 413.91864l-639.916 0l0 -413.91864z" clip-rule="nonzero"/></clipPath><g clip-path="url(#p.0)"><path fill="#000000" fill-opacity="0.0" d="m0 0l639.916 0l0 413.91864l-639.916 0z" fill-rule="evenodd"/><path fill="#cfe2f3" d="m219.7769 120.46063l0 0c0 -12.717773 10.309799 -23.027565 23.027557 -23.027565l359.92914 0c6.1073 0 11.964478 2.426117 16.282959 6.7446213c4.3184814 4.3185043 6.744629 10.175659 6.744629 16.282944l0 254.29132c0 12.717773 -10.309814 23.027588 -23.027588 23.027588l-359.92914 0c-12.717758 0 -23.027557 -10.309814 -23.027557 -23.027588z" fill-rule="evenodd"/><path stroke="#cfe2f3" stroke-width="3.0" stroke-linejoin="round" stroke-linecap="butt" d="m219.7769 120.46063l0 0c0 -12.717773 10.309799 -23.027565 23.027557 -23.027565l359.92914 0c6.1073 0 11.964478 2.426117 16.282959 6.7446213c4.3184814 4.3185043 6.744629 10.175659 6.744629 16.282944l0 254.29132c0 12.717773 -10.309814 23.027588 -23.027588 23.027588l-359.92914 0c-12.717758 0 -23.027557 -10.309814 -23.027557 -23.027588z" fill-rule="evenodd"/><path fill="#38761d" d="m12.453129 22.338797l0 0c0 -5.923046 4.8015785 -10.724624 10.724625 -10.724624l122.14131 0c2.844345 0 5.5721893 1.1299124 7.5834503 3.1411695c2.011261 2.0112572 3.1411743 4.739107 3.1411743 7.583454l0 42.89721c0 5.9230423 -4.80159 10.724625 -10.724625 10.724625l-122.14131 0c-5.923046 0 -10.724625 -4.8015823 -10.724625 -10.724625z" fill-rule="evenodd"/><path stroke="#00ff00" stroke-width="4.0" stroke-linejoin="round" stroke-linecap="butt" d="m12.453129 22.338797l0 0c0 -5.923046 4.8015785 -10.724624 10.724625 -10.724624l122.14131 0c2.844345 0 5.5721893 1.1299124 7.5834503 3.1411695c2.011261 2.0112572 3.1411743 4.739107 3.1411743 7.583454l0 42.89721c0 5.9230423 -4.80159 10.724625 -10.724625 10.724625l-122.14131 0c-5.923046 0 -10.724625 -4.8015823 -10.724625 -10.724625z" fill-rule="evenodd"/><path fill="#ffffff" d="m57.26082 35.945526q0 -1.78125 0.84375 -2.875q0.84375 -1.09375 2.28125 -1.09375q1.28125 0 1.984375 0.875l0.09375 -0.734375l1.875 0l0 7.5q0 1.015625 -0.46875 1.765625q-0.46875 0.75 -1.3125 1.140625q-0.828125 0.390625 -1.953125 0.390625q-0.84375 0 -1.65625 -0.34375q-0.8125 -0.328125 -1.21875 -0.875l0.90625 -1.25q0.78125 0.859375 1.875 0.859375q0.828125 0 1.28125 -0.4375q0.46875 -0.4375 0.46875 -1.25l0 -0.421875q-0.71875 0.8125 -1.890625 0.8125q-1.390625 0 -2.25 -1.09375q-0.859375 -1.09375 -0.859375 -2.890625l0 -0.078125zm2.0625 0.140625q0 1.046875 0.421875 1.65625q0.421875 0.59375 1.15625 0.59375q0.953125 0 1.359375 -0.703125l0 -3.265625q-0.421875 -0.703125 -1.34375 -0.703125q-0.75 0 -1.171875 0.609375q-0.421875 0.609375 -0.421875 1.8125zm11.084549 3.78125q-0.140625 -0.28125 -0.203125 -0.6875q-0.75 0.828125 -1.953125 0.828125q-1.140625 0 -1.890625 -0.65625q-0.75 -0.65625 -0.75 -1.65625q0 -1.234375 0.90625 -1.890625q0.921875 -0.65625 2.640625 -0.671875l0.953125 0l0 -0.4375q0 -0.53125 -0.28125 -0.859375q-0.265625 -0.328125 -0.859375 -0.328125q-0.515625 0 -0.8125 0.25q-0.296875 0.25 -0.296875 0.6875l-2.078125 0q0 -0.671875 0.40625 -1.234375q0.421875 -0.578125 1.171875 -0.90625q0.765625 -0.328125 1.71875 -0.328125q1.421875 0 2.265625 0.71875q0.84375 0.71875 0.84375 2.03125l0 3.34375q0.015625 1.109375 0.3125 1.671875l0 0.125l-2.09375 0zm-1.703125 -1.4375q0.453125 0 0.828125 -0.203125q0.390625 -0.203125 0.578125 -0.546875l0 -1.328125l-0.765625 0q-1.5625 0 -1.65625 1.0625l0 0.125q0 0.390625 0.265625 0.640625q0.265625 0.25 0.75 0.25zm7.5451965 -8.203125l0 1.890625l1.328125 0l0 1.53125l-1.328125 0l0 3.859375q0 0.421875 0.15625 0.609375q0.171875 0.1875 0.640625 0.1875q0.34375 0 0.609375 -0.046875l0 1.5625q-0.609375 0.1875 -1.25 0.1875q-2.171875 0 -2.21875 -2.1875l0 -4.171875l-1.125 0l0 -1.53125l1.125 0l0 -1.890625l2.0625 0zm6.045952 9.78125q-1.703125 0 -2.7812424 -1.046875q-1.0625 -1.046875 -1.0625 -2.78125l0 -0.203125q0 -1.15625 0.453125 -2.078125q0.453125 -0.921875 1.2656174 -1.421875q0.828125 -0.5 1.890625 -0.5q1.59375 0 2.5 1.015625q0.921875 1.0 0.921875 2.828125l0 0.84375l-4.9375 0q0.109375 0.765625 0.609375 1.21875q0.5 0.453125 1.28125 0.453125q1.1875 0 1.859375 -0.859375l1.015625 1.140625q-0.46875 0.65625 -1.265625 1.03125q-0.78125 0.359375 -1.75 0.359375zm-0.234375 -6.359375q-0.625 0 -1.015625 0.421875q-0.375 0.421875 -0.46875 1.1875l2.875 0l0 -0.15625q-0.015625 -0.6875 -0.375 -1.0625q-0.359375 -0.390625 -1.015625 -0.390625zm11.328354 3.40625l1.015625 -4.9375l2.0 0l-1.984375 7.75l-1.734375 0l-1.453125 -4.875l-1.46875 4.875l-1.734375 0l-1.96875 -7.75l2.0 0l1.0 4.9375l1.421875 -4.9375l1.5 0l1.40625 4.9375zm8.52034 2.8125q-0.140625 -0.28125 -0.203125 -0.6875q-0.75 0.828125 -1.953125 0.828125q-1.140625 0 -1.890625 -0.65625q-0.75 -0.65625 -0.75 -1.65625q0 -1.234375 0.90625 -1.890625q0.921875 -0.65625 2.640625 -0.671875l0.953125 0l0 -0.4375q0 -0.53125 -0.28125 -0.859375q-0.265625 -0.328125 -0.859375 -0.328125q-0.515625 0 -0.8125 0.25q-0.296875 0.25 -0.296875 0.6875l-2.078125 0q0 -0.671875 0.40625 -1.234375q0.421875 -0.578125 1.171875 -0.90625q0.765625 -0.328125 1.71875 -0.328125q1.421875 0 2.265625 0.71875q0.84375 0.71875 0.84375 2.03125l0 3.34375q0.015625 1.109375 0.3125 1.671875l0 0.125l-2.09375 0zm-1.703125 -1.4375q0.453125 0 0.828125 -0.203125q0.390625 -0.203125 0.578125 -0.546875l0 -1.328125l-0.765625 0q-1.5625 0 -1.65625 1.0625l0 0.125q0 0.390625 0.265625 0.640625q0.265625 0.25 0.75 0.25zm7.8596497 -1.484375l1.421875 -4.828125l2.21875 0l-3.109375 8.953125l-0.171875 0.40625q-0.6875 1.515625 -2.28125 1.515625q-0.453125 0 -0.921875 -0.140625l0 -1.5625l0.3125 0.015625q0.59375 0 0.875 -0.1875q0.296875 -0.171875 0.453125 -0.59375l0.25 -0.640625l-2.71875 -7.765625l2.234375 0l1.4375 4.828125z" fill-rule="nonzero"/><path fill="#00ff00" d="m48.826202 55.33615l1.4375 -5.21875l2.171875 0l-2.609375 7.75l-1.984375 0l-2.609375 -7.75l2.15625 0l1.4375 5.21875zm6.70372 2.53125l-2.078125 0l0 -7.75l2.078125 0l0 7.75zm-2.203125 -9.75q0 -0.46875 0.3125 -0.765625q0.3125 -0.296875 0.84375 -0.296875q0.53125 0 0.84375 0.296875q0.3125 0.296875 0.3125 0.765625q0 0.46875 -0.3125 0.78125q-0.3125 0.296875 -0.84375 0.296875q-0.515625 0 -0.84375 -0.296875q-0.3125 -0.3125 -0.3125 -0.78125zm8.245285 3.953125q-0.421875 -0.0625 -0.734375 -0.0625q-1.171875 0 -1.546875 0.796875l0 5.0625l-2.0625 0l0 -7.75l1.953125 0l0.0625 0.9375q0.609375 -1.078125 1.71875 -1.078125q0.34375 0 0.640625 0.09375l-0.03125 2.0zm3.828888 -3.84375l0 1.890625l1.328125 0l0 1.53125l-1.328125 0l0 3.859375q0 0.421875 0.15625 0.609375q0.171875 0.1875 0.640625 0.1875q0.34375 0 0.609375 -0.046875l0 1.5625q-0.609375 0.1875 -1.25 0.1875q-2.171875 0 -2.21875 -2.1875l0 -4.171875l-1.125 0l0 -1.53125l1.125 0l0 -1.890625l2.0625 0zm7.1240845 8.859375q-0.765625 0.921875 -2.125 0.921875q-1.25 0 -1.90625 -0.703125q-0.640625 -0.71875 -0.65625 -2.109375l0 -5.078125l2.0625 0l0 5.015625q0 1.203125 1.109375 1.203125q1.046875 0 1.4375 -0.734375l0 -5.484375l2.078125 0l0 7.75l-1.953125 0l-0.046875 -0.78125zm8.044945 0.78125q-0.140625 -0.28125 -0.203125 -0.6875q-0.75 0.828125 -1.9531174 0.828125q-1.140625 0 -1.890625 -0.65625q-0.75 -0.65625 -0.75 -1.65625q0 -1.234375 0.90625 -1.890625q0.921875 -0.65625 2.640625 -0.671875l0.9531174 0l0 -0.4375q0 -0.53125 -0.28125 -0.859375q-0.265625 -0.328125 -0.8593674 -0.328125q-0.515625 0 -0.8125 0.25q-0.296875 0.25 -0.296875 0.6875l-2.078125 0q0 -0.671875 0.40625 -1.234375q0.421875 -0.578125 1.171875 -0.90625q0.765625 -0.328125 1.71875 -0.328125q1.4218674 0 2.2656174 0.71875q0.84375 0.71875 0.84375 2.03125l0 3.34375q0.015625 1.109375 0.3125 1.671875l0 0.125l-2.09375 0zm-1.7031174 -1.4375q0.453125 0 0.8281174 -0.203125q0.390625 -0.203125 0.578125 -0.546875l0 -1.328125l-0.7656174 0q-1.5625 0 -1.65625 1.0625l0 0.125q0 0.390625 0.265625 0.640625q0.265625 0.25 0.75 0.25zm7.263939 1.4375l-2.078125 0l0 -11.0l2.078125 0l0 11.0zm7.25441 -7.75l0.0625 0.90625q0.828125 -1.046875 2.21875 -1.046875q1.234375 0 1.828125 0.734375q0.609375 0.71875 0.625 2.15625l0 5.0l-2.0625 0l0 -4.953125q0 -0.65625 -0.296875 -0.953125q-0.28125 -0.296875 -0.953125 -0.296875q-0.875 0 -1.3125 0.75l0 5.453125l-2.0625 0l0 -7.75l1.953125 0zm5.973984 3.8125q0 -1.15625 0.4375 -2.0625q0.453125 -0.90625 1.28125 -1.390625q0.84375 -0.5 1.9375 -0.5q1.578125 0 2.5625 0.96875q0.984375 0.953125 1.109375 2.59375l0.015625 0.53125q0 1.78125 -1.0 2.859375q-1.0 1.078125 -2.671875 1.078125q-1.671875 0 -2.671875 -1.0625q-1.0 -1.078125 -1.0 -2.921875l0 -0.09375zm2.078125 0.140625q0 1.109375 0.40625 1.6875q0.421875 0.578125 1.1875 0.578125q0.75 0 1.171875 -0.5625q0.421875 -0.578125 0.421875 -1.84375q0 -1.09375 -0.421875 -1.6875q-0.421875 -0.59375 -1.1875 -0.59375q-0.75 0 -1.171875 0.59375q-0.40625 0.59375 -0.40625 1.828125zm6.208954 -0.125q0 -1.8125 0.8125 -2.890625q0.8125 -1.078125 2.21875 -1.078125q1.140625 0 1.875 0.84375l0 -3.953125l2.078125 0l0 11.0l-1.875 0l-0.09375 -0.828125q-0.78125 0.96875 -1.984375 0.96875q-1.375 0 -2.203125 -1.078125q-0.828125 -1.078125 -0.828125 -2.984375zm2.078125 0.140625q0 1.09375 0.375 1.671875q0.375 0.578125 1.09375 0.578125q0.96875 0 1.359375 -0.8125l0 -3.046875q-0.390625 -0.8125 -1.34375 -0.8125q-1.484375 0 -1.484375 2.421875zm10.070953 3.921875q-1.703125 0 -2.78125 -1.046875q-1.0625 -1.046875 -1.0625 -2.78125l0 -0.203125q0 -1.15625 0.453125 -2.078125q0.453125 -0.921875 1.265625 -1.421875q0.828125 -0.5 1.890625 -0.5q1.59375 0 2.5 1.015625q0.921875 1.0 0.921875 2.828125l0 0.84375l-4.9375 0q0.109375 0.765625 0.609375 1.21875q0.5 0.453125 1.28125 0.453125q1.1875 0 1.859375 -0.859375l1.015625 1.140625q-0.46875 0.65625 -1.265625 1.03125q-0.78125 0.359375 -1.75 0.359375zm-0.234375 -6.359375q-0.625 0 -1.015625 0.421875q-0.375 0.421875 -0.46875 1.1875l2.875 0l0 -0.15625q-0.015625 -0.6875 -0.375 -1.0625q-0.359375 -0.390625 -1.015625 -0.390625z" fill-rule="nonzero"/><path fill="#3d85c6" d="m238.76884 22.338797l0 0c0 -5.923046 4.8015747 -10.724624 10.724625 -10.724624l124.5665 0c2.8443298 0 5.5722046 1.1299124 7.5834656 3.1411695c2.0112305 2.0112572 3.1411438 4.739107 3.1411438 7.583454l0 42.89721c0 5.9230423 -4.8015747 10.724625 -10.724609 10.724625l-124.5665 0c-5.92305 0 -10.724625 -4.8015823 -10.724625 -10.724625z" fill-rule="evenodd"/><path stroke="#00ffff" stroke-width="4.0" stroke-linejoin="round" stroke-linecap="butt" d="m238.76884 22.338797l0 0c0 -5.923046 4.8015747 -10.724624 10.724625 -10.724624l124.5665 0c2.8443298 0 5.5722046 1.1299124 7.5834656 3.1411695c2.0112305 2.0112572 3.1411438 4.739107 3.1411438 7.583454l0 42.89721c0 5.9230423 -4.8015747 10.724625 -10.724609 10.724625l-124.5665 0c-5.92305 0 -10.724625 -4.8015823 -10.724625 -10.724625z" fill-rule="evenodd"/><path fill="#ffffff" d="m281.93182 29.336151q0.578125 0 0.921875 -0.3125q0.359375 -0.3125 0.375 -0.828125l1.9375 0q0 0.78125 -0.421875 1.4375q-0.421875 0.65625 -1.15625 1.015625q-0.734375 0.359375 -1.625 0.359375q-1.65625 0 -2.625 -1.046875q-0.953125 -1.0625 -0.953125 -2.921875l0 -0.140625q0 -1.78125 0.953125 -2.84375q0.953125 -1.078125 2.609375 -1.078125q1.453125 0 2.328125 0.828125q0.890625 0.828125 0.890625 2.203125l-1.9375 0q-0.015625 -0.59375 -0.375 -0.96875q-0.34375 -0.390625 -0.9375 -0.390625q-0.71875 0 -1.09375 0.53125q-0.359375 0.53125 -0.359375 1.703125l0 0.21875q0 1.203125 0.359375 1.71875q0.359375 0.515625 1.109375 0.515625zm4.0961304 -2.40625q0 -1.15625 0.4375 -2.0625q0.453125 -0.90625 1.28125 -1.390625q0.84375 -0.5 1.9375 -0.5q1.578125 0 2.5625 0.96875q0.984375 0.953125 1.109375 2.59375l0.015625 0.53125q0 1.78125 -1.0 2.859375q-1.0 1.078125 -2.671875 1.078125q-1.671875 0 -2.671875 -1.0625q-1.0 -1.078125 -1.0 -2.921875l0 -0.09375zm2.078125 0.140625q0 1.109375 0.40625 1.6875q0.421875 0.578125 1.1875 0.578125q0.75 0 1.171875 -0.5625q0.421875 -0.578125 0.421875 -1.84375q0 -1.09375 -0.421875 -1.6875q-0.421875 -0.59375 -1.1875 -0.59375q-0.75 0 -1.171875 0.59375q-0.40625 0.59375 -0.40625 1.828125zm8.724579 3.796875l-2.078125 0l0 -11.0l2.078125 0l0 11.0zm1.3703003 -3.9375q0 -1.15625 0.4375 -2.0625q0.453125 -0.90625 1.28125 -1.390625q0.84375 -0.5 1.9375 -0.5q1.578125 0 2.5625 0.96875q0.984375 0.953125 1.109375 2.59375l0.015625 0.53125q0 1.78125 -1.0 2.859375q-1.0 1.078125 -2.671875 1.078125q-1.671875 0 -2.671875 -1.0625q-1.0 -1.078125 -1.0 -2.921875l0 -0.09375zm2.078125 0.140625q0 1.109375 0.40625 1.6875q0.421875 0.578125 1.1875 0.578125q0.75 0 1.171875 -0.5625q0.421875 -0.578125 0.421875 -1.84375q0 -1.09375 -0.421875 -1.6875q-0.421875 -0.59375 -1.1875 -0.59375q-0.75 0 -1.171875 0.59375q-0.40625 0.59375 -0.40625 1.828125zm10.880829 -2.0q-0.421875 -0.0625 -0.734375 -0.0625q-1.171875 0 -1.546875 0.796875l0 5.0625l-2.0625 0l0 -7.75l1.953125 0l0.0625 0.9375q0.609375 -1.078125 1.71875 -1.078125q0.34375 0 0.640625 0.09375l-0.03125 2.0zm3.828888 -3.84375l0 1.890625l1.328125 0l0 1.53125l-1.328125 0l0 3.859375q0 0.421875 0.15625 0.609375q0.171875 0.1875 0.640625 0.1875q0.34375 0 0.609375 -0.046875l0 1.5625q-0.609375 0.1875 -1.25 0.1875q-2.171875 0 -2.21875 -2.1875l0 -4.171875l-1.125 0l0 -1.53125l1.125 0l0 -1.890625l2.0625 0zm6.0459595 9.78125q-1.703125 0 -2.78125 -1.046875q-1.0625 -1.046875 -1.0625 -2.78125l0 -0.203125q0 -1.15625 0.453125 -2.078125q0.453125 -0.921875 1.265625 -1.421875q0.828125 -0.5 1.890625 -0.5q1.59375 0 2.5 1.015625q0.921875 1.0 0.921875 2.828125l0 0.84375l-4.9375 0q0.109375 0.765625 0.609375 1.21875q0.5 0.453125 1.28125 0.453125q1.1875 0 1.859375 -0.859375l1.015625 1.140625q-0.46875 0.65625 -1.265625 1.03125q-0.78125 0.359375 -1.75 0.359375zm-0.234375 -6.359375q-0.625 0 -1.015625 0.421875q-0.375 0.421875 -0.46875 1.1875l2.875 0l0 -0.15625q-0.015625 -0.6875 -0.375 -1.0625q-0.359375 -0.390625 -1.015625 -0.390625zm6.7814636 6.21875l-2.078125 0l0 -11.0l2.078125 0l0 11.0zm3.8859253 0l-2.078125 0l0 -11.0l2.078125 0l0 11.0zm5.260895 0.140625q-1.703125 0 -2.78125 -1.046875q-1.0625 -1.046875 -1.0625 -2.78125l0 -0.203125q0 -1.15625 0.453125 -2.078125q0.453125 -0.921875 1.265625 -1.421875q0.828125 -0.5 1.890625 -0.5q1.59375 0 2.5 1.015625q0.921875 1.0 0.921875 2.828125l0 0.84375l-4.9375 0q0.109375 0.765625 0.609375 1.21875q0.5 0.453125 1.28125 0.453125q1.1875 0 1.859375 -0.859375l1.015625 1.140625q-0.46875 0.65625 -1.265625 1.03125q-0.78125 0.359375 -1.75 0.359375zm-0.234375 -6.359375q-0.625 0 -1.015625 0.421875q-0.375 0.421875 -0.46875 1.1875l2.875 0l0 -0.15625q-0.015625 -0.6875 -0.375 -1.0625q-0.359375 -0.390625 -1.015625 -0.390625zm8.937744 0.421875q-0.421875 -0.0625 -0.734375 -0.0625q-1.171875 0 -1.546875 0.796875l0 5.0625l-2.0625 0l0 -7.75l1.953125 0l0.0625 0.9375q0.609375 -1.078125 1.71875 -1.078125q0.34375 0 0.640625 0.09375l-0.03125 2.0z" fill-rule="nonzero"/><path fill="#00ffff" d="m268.79733 46.33615l1.4375 -5.21875l2.171875 0l-2.609375 7.75l-1.984375 0l-2.609375 -7.75l2.15625 0l1.4375 5.21875zm6.7037354 2.53125l-2.078125 0l0 -7.75l2.078125 0l0 7.75zm-2.203125 -9.75q0 -0.46875 0.3125 -0.765625q0.3125 -0.296875 0.84375 -0.296875q0.53125 0 0.84375 0.296875q0.3125 0.296875 0.3125 0.765625q0 0.46875 -0.3125 0.78125q-0.3125 0.296875 -0.84375 0.296875q-0.515625 0 -0.84375 -0.296875q-0.3125 -0.3125 -0.3125 -0.78125zm8.24527 3.953125q-0.421875 -0.0625 -0.734375 -0.0625q-1.171875 0 -1.546875 0.796875l0 5.0625l-2.0625 0l0 -7.75l1.953125 0l0.0625 0.9375q0.609375 -1.078125 1.71875 -1.078125q0.34375 0 0.640625 0.09375l-0.03125 2.0zm3.828888 -3.84375l0 1.890625l1.328125 0l0 1.53125l-1.328125 0l0 3.859375q0 0.421875 0.15625 0.609375q0.171875 0.1875 0.640625 0.1875q0.34375 0 0.609375 -0.046875l0 1.5625q-0.609375 0.1875 -1.25 0.1875q-2.171875 0 -2.21875 -2.1875l0 -4.171875l-1.125 0l0 -1.53125l1.125 0l0 -1.890625l2.0625 0zm7.1240845 8.859375q-0.765625 0.921875 -2.125 0.921875q-1.25 0 -1.90625 -0.703125q-0.640625 -0.71875 -0.65625 -2.109375l0 -5.078125l2.0625 0l0 5.015625q0 1.203125 1.109375 1.203125q1.046875 0 1.4375 -0.734375l0 -5.484375l2.078125 0l0 7.75l-1.953125 0l-0.046875 -0.78125zm8.044952 0.78125q-0.140625 -0.28125 -0.203125 -0.6875q-0.75 0.828125 -1.953125 0.828125q-1.140625 0 -1.890625 -0.65625q-0.75 -0.65625 -0.75 -1.65625q0 -1.234375 0.90625 -1.890625q0.921875 -0.65625 2.640625 -0.671875l0.953125 0l0 -0.4375q0 -0.53125 -0.28125 -0.859375q-0.265625 -0.328125 -0.859375 -0.328125q-0.515625 0 -0.8125 0.25q-0.296875 0.25 -0.296875 0.6875l-2.078125 0q0 -0.671875 0.40625 -1.234375q0.421875 -0.578125 1.171875 -0.90625q0.765625 -0.328125 1.71875 -0.328125q1.421875 0 2.265625 0.71875q0.84375 0.71875 0.84375 2.03125l0 3.34375q0.015625 1.109375 0.3125 1.671875l0 0.125l-2.09375 0zm-1.703125 -1.4375q0.453125 0 0.828125 -0.203125q0.390625 -0.203125 0.578125 -0.546875l0 -1.328125l-0.765625 0q-1.5625 0 -1.65625 1.0625l0 0.125q0 0.390625 0.265625 0.640625q0.265625 0.25 0.75 0.25zm7.2639465 1.4375l-2.078125 0l0 -11.0l2.078125 0l0 11.0zm9.535675 -2.140625q0 -0.375 -0.375 -0.59375q-0.375 -0.21875 -1.203125 -0.390625q-2.765625 -0.578125 -2.765625 -2.34375q0 -1.03125 0.859375 -1.71875q0.859375 -0.703125 2.234375 -0.703125q1.46875 0 2.359375 0.703125q0.890625 0.6875 0.890625 1.796875l-2.078125 0q0 -0.4375 -0.28125 -0.71875q-0.28125 -0.296875 -0.890625 -0.296875q-0.53125 0 -0.8125 0.234375q-0.28125 0.234375 -0.28125 0.59375q0 0.34375 0.3125 0.5625q0.328125 0.203125 1.09375 0.359375q0.78125 0.15625 1.3125 0.34375q1.640625 0.609375 1.640625 2.09375q0 1.046875 -0.90625 1.703125q-0.90625 0.65625 -2.34375 0.65625q-0.984375 0 -1.734375 -0.34375q-0.75 -0.34375 -1.1875 -0.953125q-0.421875 -0.609375 -0.421875 -1.3125l1.953125 0q0.03125 0.5625 0.40625 0.859375q0.390625 0.28125 1.015625 0.28125q0.59375 0 0.890625 -0.21875q0.3125 -0.234375 0.3125 -0.59375zm6.9106445 2.28125q-1.703125 0 -2.78125 -1.046875q-1.0625 -1.046875 -1.0625 -2.78125l0 -0.203125q0 -1.15625 0.453125 -2.078125q0.453125 -0.921875 1.265625 -1.421875q0.828125 -0.5 1.890625 -0.5q1.59375 0 2.5 1.015625q0.921875 1.0 0.921875 2.828125l0 0.84375l-4.9375 0q0.109375 0.765625 0.609375 1.21875q0.5 0.453125 1.28125 0.453125q1.1875 0 1.859375 -0.859375l1.015625 1.140625q-0.46875 0.65625 -1.265625 1.03125q-0.78125 0.359375 -1.75 0.359375zm-0.234375 -6.359375q-0.625 0 -1.015625 0.421875q-0.375 0.421875 -0.46875 1.1875l2.875 0l0 -0.15625q-0.015625 -0.6875 -0.375 -1.0625q-0.359375 -0.390625 -1.015625 -0.390625zm8.937744 0.421875q-0.421875 -0.0625 -0.734375 -0.0625q-1.171875 0 -1.546875 0.796875l0 5.0625l-2.0625 0l0 -7.75l1.953125 0l0.0625 0.9375q0.609375 -1.078125 1.71875 -1.078125q0.34375 0 0.640625 0.09375l-0.03125 2.0zm4.021576 3.265625l1.4375 -5.21875l2.171875 0l-2.609375 7.75l-1.984375 0l-2.609375 -7.75l2.15625 0l1.4375 5.21875zm6.7037354 2.53125l-2.078125 0l0 -7.75l2.078125 0l0 7.75zm-2.203125 -9.75q0 -0.46875 0.3125 -0.765625q0.3125 -0.296875 0.84375 -0.296875q0.53125 0 0.84375 0.296875q0.3125 0.296875 0.3125 0.765625q0 0.46875 -0.3125 0.78125q-0.3125 0.296875 -0.84375 0.296875q-0.515625 0 -0.84375 -0.296875q-0.3125 -0.3125 -0.3125 -0.78125zm7.12027 8.21875q0.578125 0 0.921875 -0.3125q0.359375 -0.3125 0.375 -0.828125l1.9375 0q0 0.78125 -0.421875 1.4375q-0.421875 0.65625 -1.15625 1.015625q-0.734375 0.359375 -1.625 0.359375q-1.65625 0 -2.625 -1.046875q-0.953125 -1.0625 -0.953125 -2.921875l0 -0.140625q0 -1.78125 0.953125 -2.84375q0.953125 -1.078125 2.609375 -1.078125q1.453125 0 2.328125 0.828125q0.890625 0.828125 0.890625 2.203125l-1.9375 0q-0.015625 -0.59375 -0.375 -0.96875q-0.34375 -0.390625 -0.9375 -0.390625q-0.71875 0 -1.09375 0.53125q-0.359375 0.53125 -0.359375 1.703125l0 0.21875q0 1.203125 0.359375 1.71875q0.359375 0.515625 1.109375 0.515625zm7.9867554 1.671875q-1.703125 0 -2.78125 -1.046875q-1.0625 -1.046875 -1.0625 -2.78125l0 -0.203125q0 -1.15625 0.453125 -2.078125q0.453125 -0.921875 1.265625 -1.421875q0.828125 -0.5 1.890625 -0.5q1.59375 0 2.5 1.015625q0.921875 1.0 0.921875 2.828125l0 0.84375l-4.9375 0q0.109375 0.765625 0.609375 1.21875q0.5 0.453125 1.28125 0.453125q1.1875 0 1.859375 -0.859375l1.015625 1.140625q-0.46875 0.65625 -1.265625 1.03125q-0.78125 0.359375 -1.75 0.359375zm-0.234375 -6.359375q-0.625 0 -1.015625 0.421875q-0.375 0.421875 -0.46875 1.1875l2.875 0l0 -0.15625q-0.015625 -0.6875 -0.375 -1.0625q-0.359375 -0.390625 -1.015625 -0.390625z" fill-rule="nonzero"/><path fill="#00ffff" d="m280.1882 62.633026q0 -1.640625 0.4375 -3.125q0.4375 -1.484375 1.28125 -2.625q0.859375 -1.140625 1.84375 -1.578125l0.40625 1.109375q-1.046875 0.78125 -1.640625 2.40625q-0.578125 1.609375 -0.578125 3.765625l0 0.21875q0 2.171875 0.578125 3.796875q0.578125 1.625 1.640625 2.421875l-0.40625 1.09375q-0.96875 -0.4375 -1.8125 -1.546875q-0.84375 -1.09375 -1.28125 -2.53125q-0.4375 -1.453125 -0.46875 -3.03125l0 -0.375z" fill-rule="nonzero"/><path fill="#00ffff" d="m291.91174 63.02365q-0.21875 1.828125 -1.125 2.9375q-0.890625 1.09375 -2.328125 1.0625q-1.21875 -0.03125 -1.859375 -1.0l-0.296875 0.84375l-1.84375 0l1.90625 -11.0l2.03125 0l-0.78125 3.96875q0.8125 -0.890625 1.890625 -0.859375q1.125 0.015625 1.765625 0.8125q0.640625 0.78125 0.671875 2.1875q0.015625 0.4375 -0.03125 1.046875zm-2.015625 -0.15625q0.078125 -0.609375 0.046875 -0.9375q-0.078125 -1.25 -1.03125 -1.28125q-0.890625 -0.015625 -1.484375 0.8125l-0.546875 3.078125q0.265625 0.78125 1.15625 0.796875q1.484375 0.046875 1.828125 -2.15625l0.03125 -0.3125zm7.1192627 4.0q-0.09375 -0.296875 -0.078125 -0.703125q-0.875 0.875 -1.96875 0.84375q-1.015625 -0.015625 -1.6875 -0.65625q-0.671875 -0.65625 -0.625 -1.609375q0.046875 -1.265625 1.0625 -1.9375q1.015625 -0.671875 2.71875 -0.671875l0.9375 0.015625l0.09375 -0.46875q0.046875 -0.234375 0.03125 -0.453125q-0.046875 -0.328125 -0.265625 -0.515625q-0.203125 -0.203125 -0.5625 -0.203125q-0.484375 -0.015625 -0.8125 0.234375q-0.328125 0.25 -0.421875 0.703125l-2.015625 0.015625q0.046875 -1.109375 1.015625 -1.796875q0.96875 -0.703125 2.390625 -0.6875q1.3125 0.03125 2.0625 0.796875q0.75 0.75 0.625 1.9375l-0.59375 3.703125l-0.03125 0.453125q-0.015625 0.515625 0.109375 0.859375l0 0.140625l-1.984375 0zm-1.546875 -1.421875q0.875 0.03125 1.515625 -0.765625l0.25 -1.328125l-0.703125 -0.015625q-1.109375 0.03125 -1.609375 0.6875q-0.171875 0.234375 -0.21875 0.578125q-0.0625 0.390625 0.15625 0.609375q0.21875 0.21875 0.609375 0.234375zm8.14624 -0.09375q0.5625 0.015625 0.9375 -0.296875q0.375 -0.328125 0.484375 -0.859375l1.90625 0q-0.0625 0.8125 -0.53125 1.46875q-0.453125 0.640625 -1.21875 1.015625q-0.765625 0.359375 -1.625 0.34375q-1.40625 -0.03125 -2.234375 -0.984375q-0.8125 -0.953125 -0.78125 -2.53125l0.015625 -0.390625l0 -0.078125q0.203125 -1.890625 1.28125 -2.984375q1.078125 -1.109375 2.671875 -1.078125q1.3125 0.03125 2.078125 0.859375q0.765625 0.828125 0.75 2.171875l-1.875 0q0 -0.609375 -0.28125 -0.96875q-0.265625 -0.359375 -0.8125 -0.390625q-1.4375 -0.046875 -1.75 2.109375q-0.109375 0.78125 -0.078125 1.3125q0.0625 1.265625 1.0625 1.28125zm7.454315 -1.5625l-0.9375 0.8125l-0.390625 2.265625l-2.03125 0l1.90625 -11.0l2.03125 0l-1.046875 5.96875l0.390625 -0.421875l2.296875 -2.296875l2.59375 0l-3.390625 3.328125l2.15625 4.421875l-2.203125 0l-1.375 -3.078125zm7.849365 3.21875q-1.015625 0 -1.8125 -0.484375q-0.78125 -0.5 -1.171875 -1.359375q-0.375 -0.859375 -0.296875 -1.875l0.03125 -0.296875q0.109375 -1.125 0.65625 -2.0625q0.546875 -0.953125 1.40625 -1.46875q0.875 -0.515625 1.921875 -0.484375q1.5 0.03125 2.265625 1.109375q0.78125 1.0625 0.59375 2.703125l-0.125 0.875l-4.734375 0q-0.03125 0.75 0.359375 1.203125q0.390625 0.453125 1.078125 0.46875q1.09375 0.03125 1.921875 -0.859375l0.9375 1.15625q-0.4375 0.65625 -1.265625 1.03125q-0.828125 0.359375 -1.765625 0.34375zm0.640625 -6.359375q-0.5625 -0.015625 -1.0 0.359375q-0.421875 0.359375 -0.765625 1.265625l2.78125 0l0.03125 -0.1875q0.046875 -0.296875 0.015625 -0.546875q-0.078125 -0.421875 -0.359375 -0.65625q-0.28125 -0.234375 -0.703125 -0.234375zm6.6325073 -1.53125l-0.171875 0.921875q0.921875 -1.09375 2.25 -1.0625q1.09375 0.03125 1.609375 0.8125q0.53125 0.765625 0.390625 2.15625l-0.828125 4.921875l-2.015625 0l0.828125 -4.9375q0.046875 -0.28125 0.015625 -0.515625q-0.09375 -0.734375 -0.90625 -0.75q-0.796875 -0.03125 -1.421875 0.734375l-0.96875 5.46875l-2.015625 0l1.34375 -7.75l1.890625 0zm8.677216 -0.140625q1.078125 0.03125 1.75 0.859375l0.765625 -3.96875l2.015625 0l-1.90625 11.0l-1.796875 0l0.109375 -0.828125q-0.859375 1.0 -2.015625 0.984375q-0.71875 -0.015625 -1.265625 -0.375q-0.546875 -0.375 -0.84375 -1.078125q-0.296875 -0.703125 -0.328125 -1.5625q-0.015625 -0.453125 0.03125 -0.875l0.046875 -0.3125q0.171875 -1.1875 0.65625 -2.09375q0.484375 -0.90625 1.1875 -1.34375q0.71875 -0.4375 1.59375 -0.40625zm-1.46875 4.15625q-0.046875 0.546875 -0.03125 0.921875q0.078125 1.265625 1.015625 1.28125q0.859375 0.03125 1.484375 -0.796875l0.546875 -3.078125q-0.28125 -0.765625 -1.109375 -0.8125q-0.734375 -0.015625 -1.234375 0.578125q-0.484375 0.59375 -0.671875 1.90625z" fill-rule="nonzero"/><path fill="#00ffff" d="m343.44833 62.789276q0 1.625 -0.46875 3.125q-0.46875 1.484375 -1.34375 2.625q-0.859375 1.15625 -1.859375 1.578125l-0.40625 -1.09375q1.015625 -0.765625 1.59375 -2.359375q0.59375 -1.59375 0.625 -3.671875l0 -0.375q0 -2.140625 -0.59375 -3.765625q-0.578125 -1.640625 -1.625 -2.453125l0.40625 -1.09375q0.96875 0.421875 1.828125 1.53125q0.875 1.109375 1.34375 2.59375q0.484375 1.46875 0.5 3.046875l0 0.3125z" fill-rule="nonzero"/><path fill="#000000" fill-opacity="0.0" d="m156.04369 43.787403c20.681305 0 31.020111 0.01574707 41.362625 0.03149414c10.342514 0.01574707 20.688766 0.031497955 41.377533 0.031497955" fill-rule="evenodd"/><path stroke="#6fa8dc" stroke-width="3.0" stroke-linejoin="round" stroke-linecap="butt" d="m156.04367 43.787403c20.681335 0 31.020126 0.01574707 41.36264 0.03149414c5.1712646 0.007873535 10.343445 0.01574707 16.80893 0.021652222l6.5685883 0.0043296814" fill-rule="evenodd"/><path fill="#6fa8dc" stroke="#6fa8dc" stroke-width="3.0" stroke-linecap="butt" d="m220.78232 48.800076l13.615814 -4.951027l-13.612778 -4.959366z" fill-rule="evenodd"/><path fill="#b45f06" d="m238.76884 215.31517l0 0c0 -5.9230347 4.8015747 -10.724625 10.724625 -10.724625l124.5665 0c2.8443298 0 5.5722046 1.1299133 7.5834656 3.1411743c2.0112305 2.011261 3.1411438 4.739105 3.1411438 7.5834503l0 42.8972c0 5.923065 -4.8015747 10.72464 -10.724609 10.72464l-124.5665 0c-5.92305 0 -10.724625 -4.8015747 -10.724625 -10.72464z" fill-rule="evenodd"/><path stroke="#f6b26b" stroke-width="4.0" stroke-linejoin="round" stroke-linecap="butt" d="m238.76884 215.31517l0 0c0 -5.9230347 4.8015747 -10.724625 10.724625 -10.724625l124.5665 0c2.8443298 0 5.5722046 1.1299133 7.5834656 3.1411743c2.0112305 2.011261 3.1411438 4.739105 3.1411438 7.5834503l0 42.8972c0 5.923065 -4.8015747 10.72464 -10.724609 10.72464l-124.5665 0c-5.92305 0 -10.724625 -4.8015747 -10.724625 -10.72464z" fill-rule="evenodd"/><path fill="#ffffff" d="m281.93182 231.31253q0.578125 0 0.921875 -0.3125q0.359375 -0.3125 0.375 -0.828125l1.9375 0q0 0.78125 -0.421875 1.4375q-0.421875 0.65625 -1.15625 1.015625q-0.734375 0.359375 -1.625 0.359375q-1.65625 0 -2.625 -1.046875q-0.953125 -1.0625 -0.953125 -2.921875l0 -0.140625q0 -1.78125 0.953125 -2.84375q0.953125 -1.078125 2.609375 -1.078125q1.453125 0 2.328125 0.828125q0.890625 0.828125 0.890625 2.203125l-1.9375 0q-0.015625 -0.59375 -0.375 -0.96875q-0.34375 -0.390625 -0.9375 -0.390625q-0.71875 0 -1.09375 0.53125q-0.359375 0.53125 -0.359375 1.703125l0 0.21875q0 1.203125 0.359375 1.71875q0.359375 0.515625 1.109375 0.515625zm4.0961304 -2.40625q0 -1.15625 0.4375 -2.0625q0.453125 -0.90625 1.28125 -1.390625q0.84375 -0.5 1.9375 -0.5q1.578125 0 2.5625 0.96875q0.984375 0.953125 1.109375 2.59375l0.015625 0.53125q0 1.78125 -1.0 2.859375q-1.0 1.078125 -2.671875 1.078125q-1.671875 0 -2.671875 -1.0625q-1.0 -1.078125 -1.0 -2.921875l0 -0.09375zm2.078125 0.140625q0 1.109375 0.40625 1.6875q0.421875 0.578125 1.1875 0.578125q0.75 0 1.171875 -0.5625q0.421875 -0.578125 0.421875 -1.84375q0 -1.09375 -0.421875 -1.6875q-0.421875 -0.59375 -1.1875 -0.59375q-0.75 0 -1.171875 0.59375q-0.40625 0.59375 -0.40625 1.828125zm8.724579 3.796875l-2.078125 0l0 -11.0l2.078125 0l0 11.0zm1.3703003 -3.9375q0 -1.15625 0.4375 -2.0625q0.453125 -0.90625 1.28125 -1.390625q0.84375 -0.5 1.9375 -0.5q1.578125 0 2.5625 0.96875q0.984375 0.953125 1.109375 2.59375l0.015625 0.53125q0 1.78125 -1.0 2.859375q-1.0 1.078125 -2.671875 1.078125q-1.671875 0 -2.671875 -1.0625q-1.0 -1.078125 -1.0 -2.921875l0 -0.09375zm2.078125 0.140625q0 1.109375 0.40625 1.6875q0.421875 0.578125 1.1875 0.578125q0.75 0 1.171875 -0.5625q0.421875 -0.578125 0.421875 -1.84375q0 -1.09375 -0.421875 -1.6875q-0.421875 -0.59375 -1.1875 -0.59375q-0.75 0 -1.171875 0.59375q-0.40625 0.59375 -0.40625 1.828125zm10.880829 -2.0q-0.421875 -0.0625 -0.734375 -0.0625q-1.171875 0 -1.546875 0.796875l0 5.0625l-2.0625 0l0 -7.75l1.953125 0l0.0625 0.9375q0.609375 -1.078125 1.71875 -1.078125q0.34375 0 0.640625 0.09375l-0.03125 2.0zm3.828888 -3.84375l0 1.890625l1.328125 0l0 1.53125l-1.328125 0l0 3.859375q0 0.421875 0.15625 0.609375q0.171875 0.1875 0.640625 0.1875q0.34375 0 0.609375 -0.046875l0 1.5625q-0.609375 0.1875 -1.25 0.1875q-2.171875 0 -2.21875 -2.1875l0 -4.171875l-1.125 0l0 -1.53125l1.125 0l0 -1.890625l2.0625 0zm6.0459595 9.78125q-1.703125 0 -2.78125 -1.046875q-1.0625 -1.046875 -1.0625 -2.78125l0 -0.203125q0 -1.15625 0.453125 -2.078125q0.453125 -0.921875 1.265625 -1.421875q0.828125 -0.5 1.890625 -0.5q1.59375 0 2.5 1.015625q0.921875 1.0 0.921875 2.828125l0 0.84375l-4.9375 0q0.109375 0.765625 0.609375 1.21875q0.5 0.453125 1.28125 0.453125q1.1875 0 1.859375 -0.859375l1.015625 1.140625q-0.46875 0.65625 -1.265625 1.03125q-0.78125 0.359375 -1.75 0.359375zm-0.234375 -6.359375q-0.625 0 -1.015625 0.421875q-0.375 0.421875 -0.46875 1.1875l2.875 0l0 -0.15625q-0.015625 -0.6875 -0.375 -1.0625q-0.359375 -0.390625 -1.015625 -0.390625zm6.7814636 6.21875l-2.078125 0l0 -11.0l2.078125 0l0 11.0zm3.8859253 0l-2.078125 0l0 -11.0l2.078125 0l0 11.0zm5.260895 0.140625q-1.703125 0 -2.78125 -1.046875q-1.0625 -1.046875 -1.0625 -2.78125l0 -0.203125q0 -1.15625 0.453125 -2.078125q0.453125 -0.921875 1.265625 -1.421875q0.828125 -0.5 1.890625 -0.5q1.59375 0 2.5 1.015625q0.921875 1.0 0.921875 2.828125l0 0.84375l-4.9375 0q0.109375 0.765625 0.609375 1.21875q0.5 0.453125 1.28125 0.453125q1.1875 0 1.859375 -0.859375l1.015625 1.140625q-0.46875 0.65625 -1.265625 1.03125q-0.78125 0.359375 -1.75 0.359375zm-0.234375 -6.359375q-0.625 0 -1.015625 0.421875q-0.375 0.421875 -0.46875 1.1875l2.875 0l0 -0.15625q-0.015625 -0.6875 -0.375 -1.0625q-0.359375 -0.390625 -1.015625 -0.390625zm8.937744 0.421875q-0.421875 -0.0625 -0.734375 -0.0625q-1.171875 0 -1.546875 0.796875l0 5.0625l-2.0625 0l0 -7.75l1.953125 0l0.0625 0.9375q0.609375 -1.078125 1.71875 -1.078125q0.34375 0 0.640625 0.09375l-0.03125 2.0z" fill-rule="nonzero"/><path fill="#f6b26b" d="m272.7943 248.31253l1.4375 -5.21875l2.171875 0l-2.609375 7.75l-1.984375 0l-2.609375 -7.75l2.15625 0l1.4375 5.21875zm6.703705 2.53125l-2.078125 0l0 -7.75l2.078125 0l0 7.75zm-2.203125 -9.75q0 -0.46875 0.3125 -0.765625q0.3125 -0.296875 0.84375 -0.296875q0.53125 0 0.84375 0.296875q0.3125 0.296875 0.3125 0.765625q0 0.46875 -0.3125 0.78125q-0.3125 0.296875 -0.84375 0.296875q-0.515625 0 -0.84375 -0.296875q-0.3125 -0.3125 -0.3125 -0.78125zm8.2453 3.953125q-0.421875 -0.0625 -0.734375 -0.0625q-1.171875 0 -1.546875 0.796875l0 5.0625l-2.0625 0l0 -7.75l1.953125 0l0.0625 0.9375q0.609375 -1.078125 1.71875 -1.078125q0.34375 0 0.640625 0.09375l-0.03125 2.0zm3.828888 -3.84375l0 1.890625l1.328125 0l0 1.53125l-1.328125 0l0 3.859375q0 0.421875 0.15625 0.609375q0.171875 0.1875 0.640625 0.1875q0.34375 0 0.609375 -0.046875l0 1.5625q-0.609375 0.1875 -1.25 0.1875q-2.171875 0 -2.21875 -2.1875l0 -4.171875l-1.125 0l0 -1.53125l1.125 0l0 -1.890625l2.0625 0zm7.1240845 8.859375q-0.765625 0.921875 -2.125 0.921875q-1.25 0 -1.90625 -0.703125q-0.640625 -0.71875 -0.65625 -2.109375l0 -5.078125l2.0625 0l0 5.015625q0 1.203125 1.109375 1.203125q1.046875 0 1.4375 -0.734375l0 -5.484375l2.078125 0l0 7.75l-1.953125 0l-0.046875 -0.78125zm8.044952 0.78125q-0.140625 -0.28125 -0.203125 -0.6875q-0.75 0.828125 -1.953125 0.828125q-1.140625 0 -1.890625 -0.65625q-0.75 -0.65625 -0.75 -1.65625q0 -1.234375 0.90625 -1.890625q0.921875 -0.65625 2.640625 -0.671875l0.953125 0l0 -0.4375q0 -0.53125 -0.28125 -0.859375q-0.265625 -0.328125 -0.859375 -0.328125q-0.515625 0 -0.8125 0.25q-0.296875 0.25 -0.296875 0.6875l-2.078125 0q0 -0.671875 0.40625 -1.234375q0.421875 -0.578125 1.171875 -0.90625q0.765625 -0.328125 1.71875 -0.328125q1.421875 0 2.265625 0.71875q0.84375 0.71875 0.84375 2.03125l0 3.34375q0.015625 1.109375 0.3125 1.671875l0 0.125l-2.09375 0zm-1.703125 -1.4375q0.453125 0 0.828125 -0.203125q0.390625 -0.203125 0.578125 -0.546875l0 -1.328125l-0.765625 0q-1.5625 0 -1.65625 1.0625l0 0.125q0 0.390625 0.265625 0.640625q0.265625 0.25 0.75 0.25zm7.2639465 1.4375l-2.078125 0l0 -11.0l2.078125 0l0 11.0zm9.691895 -5.796875q-0.421875 -0.0625 -0.734375 -0.0625q-1.171875 0 -1.546875 0.796875l0 5.0625l-2.0625 0l0 -7.75l1.953125 0l0.0625 0.9375q0.609375 -1.078125 1.71875 -1.078125q0.34375 0 0.640625 0.09375l-0.03125 2.0zm0.4161377 1.859375q0 -1.15625 0.4375 -2.0625q0.453125 -0.90625 1.28125 -1.390625q0.84375 -0.5 1.9375 -0.5q1.578125 0 2.5625 0.96875q0.984375 0.953125 1.109375 2.59375l0.015625 0.53125q0 1.78125 -1.0 2.859375q-1.0 1.078125 -2.671875 1.078125q-1.671875 0 -2.671875 -1.0625q-1.0 -1.078125 -1.0 -2.921875l0 -0.09375zm2.078125 0.140625q0 1.109375 0.40625 1.6875q0.421875 0.578125 1.1875 0.578125q0.75 0 1.171875 -0.5625q0.421875 -0.578125 0.421875 -1.84375q0 -1.09375 -0.421875 -1.6875q-0.421875 -0.59375 -1.1875 -0.59375q-0.75 0 -1.171875 0.59375q-0.40625 0.59375 -0.40625 1.828125zm11.177704 3.015625q-0.765625 0.921875 -2.125 0.921875q-1.25 0 -1.90625 -0.703125q-0.640625 -0.71875 -0.65625 -2.109375l0 -5.078125l2.0625 0l0 5.015625q0 1.203125 1.109375 1.203125q1.046875 0 1.4375 -0.734375l0 -5.484375l2.078125 0l0 7.75l-1.953125 0l-0.046875 -0.78125zm6.0293274 -8.859375l0 1.890625l1.328125 0l0 1.53125l-1.328125 0l0 3.859375q0 0.421875 0.15625 0.609375q0.171875 0.1875 0.640625 0.1875q0.34375 0 0.609375 -0.046875l0 1.5625q-0.609375 0.1875 -1.25 0.1875q-2.171875 0 -2.21875 -2.1875l0 -4.171875l-1.125 0l0 -1.53125l1.125 0l0 -1.890625l2.0625 0zm6.0459595 9.78125q-1.703125 0 -2.78125 -1.046875q-1.0625 -1.046875 -1.0625 -2.78125l0 -0.203125q0 -1.15625 0.453125 -2.078125q0.453125 -0.921875 1.265625 -1.421875q0.828125 -0.5 1.890625 -0.5q1.59375 0 2.5 1.015625q0.921875 1.0 0.921875 2.828125l0 0.84375l-4.9375 0q0.109375 0.765625 0.609375 1.21875q0.5 0.453125 1.28125 0.453125q1.1875 0 1.859375 -0.859375l1.015625 1.140625q-0.46875 0.65625 -1.265625 1.03125q-0.78125 0.359375 -1.75 0.359375zm-0.234375 -6.359375q-0.625 0 -1.015625 0.421875q-0.375 0.421875 -0.46875 1.1875l2.875 0l0 -0.15625q-0.015625 -0.6875 -0.375 -1.0625q-0.359375 -0.390625 -1.015625 -0.390625zm8.937714 0.421875q-0.421875 -0.0625 -0.734375 -0.0625q-1.171875 0 -1.546875 0.796875l0 5.0625l-2.0625 0l0 -7.75l1.953125 0l0.0625 0.9375q0.609375 -1.078125 1.71875 -1.078125q0.34375 0 0.640625 0.09375l-0.03125 2.0z" fill-rule="nonzero"/><path fill="#000000" fill-opacity="0.0" d="m311.7767 75.96063c0 32.15748 0.01574707 48.23622 0.03149414 64.31496c0.01574707 16.078735 0.03149414 32.157486 0.03149414 64.31496" fill-rule="evenodd"/><path stroke="#6fa8dc" stroke-width="3.0" stroke-linejoin="round" stroke-linecap="butt" d="m311.77673 75.96063c0 32.15748 0.01574707 48.23622 0.03149414 64.31496c0.007873535 8.039368 0.01574707 16.078735 0.021636963 26.12796c0.002960205 5.024597 0.0054016113 10.551666 0.0071411133 16.832428l4.272461E-4 3.3545685" fill-rule="evenodd"/><path fill="#6fa8dc" stroke="#6fa8dc" stroke-width="3.0" stroke-linecap="butt" d="m306.88223 186.59119l4.956909 13.613663l4.953491 -13.614929z" fill-rule="evenodd"/><path fill="#38761d" d="m464.3219 263.3152l0 0c0 -5.923065 4.8015747 -10.72464 10.724609 -10.72464l122.1413 0c2.8443604 0 5.5722046 1.1299133 7.583496 3.1411743c2.0112305 2.011261 3.1411743 4.739105 3.1411743 7.5834656l0 42.897186c0 5.923065 -4.8016357 10.72464 -10.72467 10.72464l-122.1413 0c-5.9230347 0 -10.724609 -4.8015747 -10.724609 -10.72464z" fill-rule="evenodd"/><path stroke="#00ff00" stroke-width="4.0" stroke-linejoin="round" stroke-linecap="butt" d="m464.3219 263.3152l0 0c0 -5.923065 4.8015747 -10.72464 10.724609 -10.72464l122.1413 0c2.8443604 0 5.5722046 1.1299133 7.583496 3.1411743c2.0112305 2.011261 3.1411743 4.739105 3.1411743 7.5834656l0 42.897186c0 5.923065 -4.8016357 10.72464 -10.72467 10.72464l-122.1413 0c-5.9230347 0 -10.724609 -4.8015747 -10.724609 -10.72464z" fill-rule="evenodd"/><path fill="#ffffff" d="m484.61716 279.31253q0.578125 0 0.921875 -0.3125q0.359375 -0.3125 0.375 -0.828125l1.9375 0q0 0.78125 -0.421875 1.4375q-0.421875 0.65625 -1.15625 1.015625q-0.734375 0.359375 -1.625 0.359375q-1.65625 0 -2.625 -1.046875q-0.953125 -1.0625 -0.953125 -2.921875l0 -0.140625q0 -1.78125 0.953125 -2.84375q0.953125 -1.078125 2.609375 -1.078125q1.453125 0 2.328125 0.828125q0.890625 0.828125 0.890625 2.203125l-1.9375 0q-0.015625 -0.59375 -0.375 -0.96875q-0.34375 -0.390625 -0.9375 -0.390625q-0.71875 0 -1.09375 0.53125q-0.359375 0.53125 -0.359375 1.703125l0 0.21875q0 1.203125 0.359375 1.71875q0.359375 0.515625 1.109375 0.515625zm4.0961304 -2.40625q0 -1.15625 0.4375 -2.0625q0.453125 -0.90625 1.28125 -1.390625q0.84375 -0.5 1.9375 -0.5q1.578125 0 2.5625 0.96875q0.984375 0.953125 1.109375 2.59375l0.015625 0.53125q0 1.78125 -1.0 2.859375q-1.0 1.078125 -2.671875 1.078125q-1.671875 0 -2.671875 -1.0625q-1.0 -1.078125 -1.0 -2.921875l0 -0.09375zm2.078125 0.140625q0 1.109375 0.40625 1.6875q0.421875 0.578125 1.1875 0.578125q0.75 0 1.171875 -0.5625q0.421875 -0.578125 0.421875 -1.84375q0 -1.09375 -0.421875 -1.6875q-0.421875 -0.59375 -1.1875 -0.59375q-0.75 0 -1.171875 0.59375q-0.40625 0.59375 -0.40625 1.828125zm8.724579 3.796875l-2.078125 0l0 -11.0l2.078125 0l0 11.0zm1.3702698 -3.9375q0 -1.15625 0.4375 -2.0625q0.453125 -0.90625 1.28125 -1.390625q0.84375 -0.5 1.9375 -0.5q1.578125 0 2.5625 0.96875q0.984375 0.953125 1.109375 2.59375l0.015625 0.53125q0 1.78125 -1.0 2.859375q-1.0 1.078125 -2.671875 1.078125q-1.671875 0 -2.671875 -1.0625q-1.0 -1.078125 -1.0 -2.921875l0 -0.09375zm2.078125 0.140625q0 1.109375 0.40625 1.6875q0.421875 0.578125 1.1875 0.578125q0.75 0 1.171875 -0.5625q0.421875 -0.578125 0.421875 -1.84375q0 -1.09375 -0.421875 -1.6875q-0.421875 -0.59375 -1.1875 -0.59375q-0.75 0 -1.171875 0.59375q-0.40625 0.59375 -0.40625 1.828125zm10.880829 -2.0q-0.421875 -0.0625 -0.734375 -0.0625q-1.171875 0 -1.546875 0.796875l0 5.0625l-2.0625 0l0 -7.75l1.953125 0l0.0625 0.9375q0.609375 -1.078125 1.71875 -1.078125q0.34375 0 0.640625 0.09375l-0.03125 2.0zm3.8289185 -3.84375l0 1.890625l1.328125 0l0 1.53125l-1.328125 0l0 3.859375q0 0.421875 0.15625 0.609375q0.171875 0.1875 0.640625 0.1875q0.34375 0 0.609375 -0.046875l0 1.5625q-0.609375 0.1875 -1.25 0.1875q-2.171875 0 -2.21875 -2.1875l0 -4.171875l-1.125 0l0 -1.53125l1.125 0l0 -1.890625l2.0625 0zm6.0459595 9.78125q-1.703125 0 -2.78125 -1.046875q-1.0625 -1.046875 -1.0625 -2.78125l0 -0.203125q0 -1.15625 0.453125 -2.078125q0.453125 -0.921875 1.265625 -1.421875q0.828125 -0.5 1.890625 -0.5q1.59375 0 2.5 1.015625q0.921875 1.0 0.921875 2.828125l0 0.84375l-4.9375 0q0.109375 0.765625 0.609375 1.21875q0.5 0.453125 1.28125 0.453125q1.1875 0 1.859375 -0.859375l1.015625 1.140625q-0.46875 0.65625 -1.265625 1.03125q-0.78125 0.359375 -1.75 0.359375zm-0.234375 -6.359375q-0.625 0 -1.015625 0.421875q-0.375 0.421875 -0.46875 1.1875l2.875 0l0 -0.15625q-0.015625 -0.6875 -0.375 -1.0625q-0.359375 -0.390625 -1.015625 -0.390625zm6.781433 6.21875l-2.078125 0l0 -11.0l2.078125 0l0 11.0zm3.8859253 0l-2.078125 0l0 -11.0l2.078125 0l0 11.0zm5.2609253 0.140625q-1.703125 0 -2.78125 -1.046875q-1.0625 -1.046875 -1.0625 -2.78125l0 -0.203125q0 -1.15625 0.453125 -2.078125q0.453125 -0.921875 1.265625 -1.421875q0.828125 -0.5 1.890625 -0.5q1.59375 0 2.5 1.015625q0.921875 1.0 0.921875 2.828125l0 0.84375l-4.9375 0q0.109375 0.765625 0.609375 1.21875q0.5 0.453125 1.28125 0.453125q1.1875 0 1.859375 -0.859375l1.015625 1.140625q-0.46875 0.65625 -1.265625 1.03125q-0.78125 0.359375 -1.75 0.359375zm-0.234375 -6.359375q-0.625 0 -1.015625 0.421875q-0.375 0.421875 -0.46875 1.1875l2.875 0l0 -0.15625q-0.015625 -0.6875 -0.375 -1.0625q-0.359375 -0.390625 -1.015625 -0.390625zm8.937744 0.421875q-0.421875 -0.0625 -0.734375 -0.0625q-1.171875 0 -1.546875 0.796875l0 5.0625l-2.0625 0l0 -7.75l1.953125 0l0.0625 0.9375q0.609375 -1.078125 1.71875 -1.078125q0.34375 0 0.640625 0.09375l-0.03125 2.0zm5.0177 2.171875l-4.03125 0l0 -1.671875l4.03125 0l0 1.671875zm1.3696289 -0.296875q0 -1.78125 0.84375 -2.875q0.84375 -1.09375 2.28125 -1.09375q1.28125 0 1.984375 0.875l0.09375 -0.734375l1.875 0l0 7.5q0 1.015625 -0.46875 1.765625q-0.46875 0.75 -1.3125 1.140625q-0.828125 0.390625 -1.953125 0.390625q-0.84375 0 -1.65625 -0.34375q-0.8125 -0.328125 -1.21875 -0.875l0.90625 -1.25q0.78125 0.859375 1.875 0.859375q0.828125 0 1.28125 -0.4375q0.46875 -0.4375 0.46875 -1.25l0 -0.421875q-0.71875 0.8125 -1.890625 0.8125q-1.390625 0 -2.25 -1.09375q-0.859375 -1.09375 -0.859375 -2.890625l0 -0.078125zm2.0625 0.140625q0 1.046875 0.421875 1.65625q0.421875 0.59375 1.15625 0.59375q0.953125 0 1.359375 -0.703125l0 -3.265625q-0.421875 -0.703125 -1.34375 -0.703125q-0.75 0 -1.171875 0.609375q-0.421875 0.609375 -0.421875 1.8125zm10.943909 -2.015625q-0.421875 -0.0625 -0.734375 -0.0625q-1.171875 0 -1.546875 0.796875l0 5.0625l-2.0625 0l0 -7.75l1.953125 0l0.0625 0.9375q0.609375 -1.078125 1.71875 -1.078125q0.34375 0 0.640625 0.09375l-0.03125 2.0zm4.428528 5.9375q-1.703125 0 -2.78125 -1.046875q-1.0625 -1.046875 -1.0625 -2.78125l0 -0.203125q0 -1.15625 0.453125 -2.078125q0.453125 -0.921875 1.265625 -1.421875q0.828125 -0.5 1.890625 -0.5q1.59375 0 2.5 1.015625q0.921875 1.0 0.921875 2.828125l0 0.84375l-4.9375 0q0.109375 0.765625 0.609375 1.21875q0.5 0.453125 1.28125 0.453125q1.1875 0 1.859375 -0.859375l1.015625 1.140625q-0.46875 0.65625 -1.265625 1.03125q-0.78125 0.359375 -1.75 0.359375zm-0.234375 -6.359375q-0.625 0 -1.015625 0.421875q-0.375 0.421875 -0.46875 1.1875l2.875 0l0 -0.15625q-0.015625 -0.6875 -0.375 -1.0625q-0.359375 -0.390625 -1.015625 -0.390625zm8.156494 6.359375q-1.703125 0 -2.78125 -1.046875q-1.0625 -1.046875 -1.0625 -2.78125l0 -0.203125q0 -1.15625 0.453125 -2.078125q0.453125 -0.921875 1.265625 -1.421875q0.828125 -0.5 1.890625 -0.5q1.59375 0 2.5 1.015625q0.921875 1.0 0.921875 2.828125l0 0.84375l-4.9375 0q0.109375 0.765625 0.609375 1.21875q0.5 0.453125 1.28125 0.453125q1.1875 0 1.859375 -0.859375l1.015625 1.140625q-0.46875 0.65625 -1.265625 1.03125q-0.78125 0.359375 -1.75 0.359375zm-0.234375 -6.359375q-0.625 0 -1.015625 0.421875q-0.375 0.421875 -0.46875 1.1875l2.875 0l0 -0.15625q-0.015625 -0.6875 -0.375 -1.0625q-0.359375 -0.390625 -1.015625 -0.390625zm6.500183 -1.53125l0.0625 0.90625q0.828125 -1.046875 2.21875 -1.046875q1.234375 0 1.828125 0.734375q0.609375 0.71875 0.625 2.15625l0 5.0l-2.0625 0l0 -4.953125q0 -0.65625 -0.296875 -0.953125q-0.28125 -0.296875 -0.953125 -0.296875q-0.875 0 -1.3125 0.75l0 5.453125l-2.0625 0l0 -7.75l1.953125 0z" fill-rule="nonzero"/><path fill="#00ff00" d="m500.69498 296.31253l1.4375 -5.21875l2.171875 0l-2.609375 7.75l-1.984375 0l-2.609375 -7.75l2.15625 0l1.4375 5.21875zm6.703705 2.53125l-2.078125 0l0 -7.75l2.078125 0l0 7.75zm-2.203125 -9.75q0 -0.46875 0.3125 -0.765625q0.3125 -0.296875 0.84375 -0.296875q0.53125 0 0.84375 0.296875q0.3125 0.296875 0.3125 0.765625q0 0.46875 -0.3125 0.78125q-0.3125 0.296875 -0.84375 0.296875q-0.515625 0 -0.84375 -0.296875q-0.3125 -0.3125 -0.3125 -0.78125zm8.2453 3.953125q-0.421875 -0.0625 -0.734375 -0.0625q-1.171875 0 -1.546875 0.796875l0 5.0625l-2.0625 0l0 -7.75l1.953125 0l0.0625 0.9375q0.609375 -1.078125 1.71875 -1.078125q0.34375 0 0.640625 0.09375l-0.03125 2.0zm3.8288574 -3.84375l0 1.890625l1.328125 0l0 1.53125l-1.328125 0l0 3.859375q0 0.421875 0.15625 0.609375q0.171875 0.1875 0.640625 0.1875q0.34375 0 0.609375 -0.046875l0 1.5625q-0.609375 0.1875 -1.25 0.1875q-2.171875 0 -2.21875 -2.1875l0 -4.171875l-1.125 0l0 -1.53125l1.125 0l0 -1.890625l2.0625 0zm7.1240845 8.859375q-0.765625 0.921875 -2.125 0.921875q-1.25 0 -1.90625 -0.703125q-0.640625 -0.71875 -0.65625 -2.109375l0 -5.078125l2.0625 0l0 5.015625q0 1.203125 1.109375 1.203125q1.046875 0 1.4375 -0.734375l0 -5.484375l2.078125 0l0 7.75l-1.953125 0l-0.046875 -0.78125zm8.044983 0.78125q-0.140625 -0.28125 -0.203125 -0.6875q-0.75 0.828125 -1.953125 0.828125q-1.140625 0 -1.890625 -0.65625q-0.75 -0.65625 -0.75 -1.65625q0 -1.234375 0.90625 -1.890625q0.921875 -0.65625 2.640625 -0.671875l0.953125 0l0 -0.4375q0 -0.53125 -0.28125 -0.859375q-0.265625 -0.328125 -0.859375 -0.328125q-0.515625 0 -0.8125 0.25q-0.296875 0.25 -0.296875 0.6875l-2.078125 0q0 -0.671875 0.40625 -1.234375q0.421875 -0.578125 1.171875 -0.90625q0.765625 -0.328125 1.71875 -0.328125q1.421875 0 2.265625 0.71875q0.84375 0.71875 0.84375 2.03125l0 3.34375q0.015625 1.109375 0.3125 1.671875l0 0.125l-2.09375 0zm-1.703125 -1.4375q0.453125 0 0.828125 -0.203125q0.390625 -0.203125 0.578125 -0.546875l0 -1.328125l-0.765625 0q-1.5625 0 -1.65625 1.0625l0 0.125q0 0.390625 0.265625 0.640625q0.265625 0.25 0.75 0.25zm7.263916 1.4375l-2.078125 0l0 -11.0l2.078125 0l0 11.0zm7.2544556 -7.75l0.0625 0.90625q0.828125 -1.046875 2.21875 -1.046875q1.234375 0 1.828125 0.734375q0.609375 0.71875 0.625 2.15625l0 5.0l-2.0625 0l0 -4.953125q0 -0.65625 -0.296875 -0.953125q-0.28125 -0.296875 -0.953125 -0.296875q-0.875 0 -1.3125 0.75l0 5.453125l-2.0625 0l0 -7.75l1.953125 0zm5.973938 3.8125q0 -1.15625 0.4375 -2.0625q0.453125 -0.90625 1.28125 -1.390625q0.84375 -0.5 1.9375 -0.5q1.578125 0 2.5625 0.96875q0.984375 0.953125 1.109375 2.59375l0.015625 0.53125q0 1.78125 -1.0 2.859375q-1.0 1.078125 -2.671875 1.078125q-1.671875 0 -2.671875 -1.0625q-1.0 -1.078125 -1.0 -2.921875l0 -0.09375zm2.078125 0.140625q0 1.109375 0.40625 1.6875q0.421875 0.578125 1.1875 0.578125q0.75 0 1.171875 -0.5625q0.421875 -0.578125 0.421875 -1.84375q0 -1.09375 -0.421875 -1.6875q-0.421875 -0.59375 -1.1875 -0.59375q-0.75 0 -1.171875 0.59375q-0.40625 0.59375 -0.40625 1.828125zm6.2089844 -0.125q0 -1.8125 0.8125 -2.890625q0.8125 -1.078125 2.21875 -1.078125q1.140625 0 1.875 0.84375l0 -3.953125l2.078125 0l0 11.0l-1.875 0l-0.09375 -0.828125q-0.78125 0.96875 -1.984375 0.96875q-1.375 0 -2.203125 -1.078125q-0.828125 -1.078125 -0.828125 -2.984375zm2.078125 0.140625q0 1.09375 0.375 1.671875q0.375 0.578125 1.09375 0.578125q0.96875 0 1.359375 -0.8125l0 -3.046875q-0.390625 -0.8125 -1.34375 -0.8125q-1.484375 0 -1.484375 2.421875zm10.070923 3.921875q-1.703125 0 -2.78125 -1.046875q-1.0625 -1.046875 -1.0625 -2.78125l0 -0.203125q0 -1.15625 0.453125 -2.078125q0.453125 -0.921875 1.265625 -1.421875q0.828125 -0.5 1.890625 -0.5q1.59375 0 2.5 1.015625q0.921875 1.0 0.921875 2.828125l0 0.84375l-4.9375 0q0.109375 0.765625 0.609375 1.21875q0.5 0.453125 1.28125 0.453125q1.1875 0 1.859375 -0.859375l1.015625 1.140625q-0.46875 0.65625 -1.265625 1.03125q-0.78125 0.359375 -1.75 0.359375zm-0.234375 -6.359375q-0.625 0 -1.015625 0.421875q-0.375 0.421875 -0.46875 1.1875l2.875 0l0 -0.15625q-0.015625 -0.6875 -0.375 -1.0625q-0.359375 -0.390625 -1.015625 -0.390625z" fill-rule="nonzero"/><path fill="#38761d" d="m464.3219 175.37817l0 0c0 -5.92305 4.8015747 -10.724625 10.724609 -10.724625l122.1413 0c2.8443604 0 5.5722046 1.1299133 7.583496 3.141159c2.0112305 2.011261 3.1411743 4.739105 3.1411743 7.5834656l0 42.8972c0 5.92305 -4.8016357 10.724625 -10.72467 10.724625l-122.1413 0c-5.9230347 0 -10.724609 -4.8015747 -10.724609 -10.724625z" fill-rule="evenodd"/><path stroke="#00ff00" stroke-width="4.0" stroke-linejoin="round" stroke-linecap="butt" d="m464.3219 175.37817l0 0c0 -5.92305 4.8015747 -10.724625 10.724609 -10.724625l122.1413 0c2.8443604 0 5.5722046 1.1299133 7.583496 3.141159c2.0112305 2.011261 3.1411743 4.739105 3.1411743 7.5834656l0 42.8972c0 5.92305 -4.8016357 10.724625 -10.72467 10.724625l-122.1413 0c-5.9230347 0 -10.724609 -4.8015747 -10.724609 -10.724625z" fill-rule="evenodd"/><path fill="#ffffff" d="m489.30096 191.37552q0.578125 0 0.921875 -0.3125q0.359375 -0.3125 0.375 -0.828125l1.9375 0q0 0.78125 -0.421875 1.4375q-0.421875 0.65625 -1.15625 1.015625q-0.734375 0.359375 -1.625 0.359375q-1.65625 0 -2.625 -1.046875q-0.953125 -1.0625 -0.953125 -2.921875l0 -0.140625q0 -1.78125 0.953125 -2.84375q0.953125 -1.078125 2.609375 -1.078125q1.453125 0 2.328125 0.828125q0.890625 0.828125 0.890625 2.203125l-1.9375 0q-0.015625 -0.59375 -0.375 -0.96875q-0.34375 -0.390625 -0.9375 -0.390625q-0.71875 0 -1.09375 0.53125q-0.359375 0.53125 -0.359375 1.703125l0 0.21875q0 1.203125 0.359375 1.71875q0.359375 0.515625 1.109375 0.515625zm4.0961304 -2.40625q0 -1.15625 0.4375 -2.0625q0.453125 -0.90625 1.28125 -1.390625q0.84375 -0.5 1.9375 -0.5q1.578125 0 2.5625 0.96875q0.984375 0.953125 1.109375 2.59375l0.015625 0.53125q0 1.78125 -1.0 2.859375q-1.0 1.078125 -2.671875 1.078125q-1.671875 0 -2.671875 -1.0625q-1.0 -1.078125 -1.0 -2.921875l0 -0.09375zm2.078125 0.140625q0 1.109375 0.40625 1.6875q0.421875 0.578125 1.1875 0.578125q0.75 0 1.171875 -0.5625q0.421875 -0.578125 0.421875 -1.84375q0 -1.09375 -0.421875 -1.6875q-0.421875 -0.59375 -1.1875 -0.59375q-0.75 0 -1.171875 0.59375q-0.40625 0.59375 -0.40625 1.828125zm8.724579 3.796875l-2.078125 0l0 -11.0l2.078125 0l0 11.0zm1.3702698 -3.9375q0 -1.15625 0.4375 -2.0625q0.453125 -0.90625 1.28125 -1.390625q0.84375 -0.5 1.9375 -0.5q1.578125 0 2.5625 0.96875q0.984375 0.953125 1.109375 2.59375l0.015625 0.53125q0 1.78125 -1.0 2.859375q-1.0 1.078125 -2.671875 1.078125q-1.671875 0 -2.671875 -1.0625q-1.0 -1.078125 -1.0 -2.921875l0 -0.09375zm2.078125 0.140625q0 1.109375 0.40625 1.6875q0.421875 0.578125 1.1875 0.578125q0.75 0 1.171875 -0.5625q0.421875 -0.578125 0.421875 -1.84375q0 -1.09375 -0.421875 -1.6875q-0.421875 -0.59375 -1.1875 -0.59375q-0.75 0 -1.171875 0.59375q-0.40625 0.59375 -0.40625 1.828125zm10.880859 -2.0q-0.421875 -0.0625 -0.734375 -0.0625q-1.171875 0 -1.546875 0.796875l0 5.0625l-2.0625 0l0 -7.75l1.953125 0l0.0625 0.9375q0.609375 -1.078125 1.71875 -1.078125q0.34375 0 0.640625 0.09375l-0.03125 2.0zm3.8288574 -3.84375l0 1.890625l1.328125 0l0 1.53125l-1.328125 0l0 3.859375q0 0.421875 0.15625 0.609375q0.171875 0.1875 0.640625 0.1875q0.34375 0 0.609375 -0.046875l0 1.5625q-0.609375 0.1875 -1.25 0.1875q-2.171875 0 -2.21875 -2.1875l0 -4.171875l-1.125 0l0 -1.53125l1.125 0l0 -1.890625l2.0625 0zm6.0459595 9.78125q-1.703125 0 -2.78125 -1.046875q-1.0625 -1.046875 -1.0625 -2.78125l0 -0.203125q0 -1.15625 0.453125 -2.078125q0.453125 -0.921875 1.265625 -1.421875q0.828125 -0.5 1.890625 -0.5q1.59375 0 2.5 1.015625q0.921875 1.0 0.921875 2.828125l0 0.84375l-4.9375 0q0.109375 0.765625 0.609375 1.21875q0.5 0.453125 1.28125 0.453125q1.1875 0 1.859375 -0.859375l1.015625 1.140625q-0.46875 0.65625 -1.265625 1.03125q-0.78125 0.359375 -1.75 0.359375zm-0.234375 -6.359375q-0.625 0 -1.015625 0.421875q-0.375 0.421875 -0.46875 1.1875l2.875 0l0 -0.15625q-0.015625 -0.6875 -0.375 -1.0625q-0.359375 -0.390625 -1.015625 -0.390625zm6.781494 6.21875l-2.078125 0l0 -11.0l2.078125 0l0 11.0zm3.8859253 0l-2.078125 0l0 -11.0l2.078125 0l0 11.0zm5.2608643 0.140625q-1.703125 0 -2.78125 -1.046875q-1.0625 -1.046875 -1.0625 -2.78125l0 -0.203125q0 -1.15625 0.453125 -2.078125q0.453125 -0.921875 1.265625 -1.421875q0.828125 -0.5 1.890625 -0.5q1.59375 0 2.5 1.015625q0.921875 1.0 0.921875 2.828125l0 0.84375l-4.9375 0q0.109375 0.765625 0.609375 1.21875q0.5 0.453125 1.28125 0.453125q1.1875 0 1.859375 -0.859375l1.015625 1.140625q-0.46875 0.65625 -1.265625 1.03125q-0.78125 0.359375 -1.75 0.359375zm-0.234375 -6.359375q-0.625 0 -1.015625 0.421875q-0.375 0.421875 -0.46875 1.1875l2.875 0l0 -0.15625q-0.015625 -0.6875 -0.375 -1.0625q-0.359375 -0.390625 -1.015625 -0.390625zm8.937744 0.421875q-0.421875 -0.0625 -0.734375 -0.0625q-1.171875 0 -1.546875 0.796875l0 5.0625l-2.0625 0l0 -7.75l1.953125 0l0.0625 0.9375q0.609375 -1.078125 1.71875 -1.078125q0.34375 0 0.640625 0.09375l-0.03125 2.0zm5.0177 2.171875l-4.03125 0l0 -1.671875l4.03125 0l0 1.671875zm8.635254 -0.171875q0 1.859375 -0.796875 2.90625q-0.78125 1.03125 -2.203125 1.03125q-1.265625 0 -2.015625 -0.96875l-0.09375 0.828125l-1.859375 0l0 -11.0l2.0625 0l0 3.953125q0.71875 -0.84375 1.890625 -0.84375q1.40625 0 2.203125 1.046875q0.8125 1.046875 0.8125 2.921875l0 0.125zm-2.0625 -0.15625q0 -1.171875 -0.375 -1.703125q-0.375 -0.546875 -1.109375 -0.546875q-0.984375 0 -1.359375 0.8125l0 3.046875q0.375 0.8125 1.375 0.8125q1.0 0 1.3125 -0.984375q0.15625 -0.46875 0.15625 -1.4375zm5.532593 3.953125l-2.078125 0l0 -11.0l2.078125 0l0 11.0zm6.3389893 -0.78125q-0.765625 0.921875 -2.125 0.921875q-1.25 0 -1.90625 -0.703125q-0.640625 -0.71875 -0.65625 -2.109375l0 -5.078125l2.0625 0l0 5.015625q0 1.203125 1.109375 1.203125q1.046875 0 1.4375 -0.734375l0 -5.484375l2.078125 0l0 7.75l-1.953125 0l-0.046875 -0.78125zm7.123108 0.921875q-1.703125 0 -2.78125 -1.046875q-1.0625 -1.046875 -1.0625 -2.78125l0 -0.203125q0 -1.15625 0.453125 -2.078125q0.453125 -0.921875 1.265625 -1.421875q0.828125 -0.5 1.890625 -0.5q1.59375 0 2.5 1.015625q0.921875 1.0 0.921875 2.828125l0 0.84375l-4.9375 0q0.109375 0.765625 0.609375 1.21875q0.5 0.453125 1.28125 0.453125q1.1875 0 1.859375 -0.859375l1.015625 1.140625q-0.46875 0.65625 -1.265625 1.03125q-0.78125 0.359375 -1.75 0.359375zm-0.234375 -6.359375q-0.625 0 -1.015625 0.421875q-0.375 0.421875 -0.46875 1.1875l2.875 0l0 -0.15625q-0.015625 -0.6875 -0.375 -1.0625q-0.359375 -0.390625 -1.015625 -0.390625z" fill-rule="nonzero"/><path fill="#00ff00" d="m500.69498 208.37552l1.4375 -5.21875l2.171875 0l-2.609375 7.75l-1.984375 0l-2.609375 -7.75l2.15625 0l1.4375 5.21875zm6.703705 2.53125l-2.078125 0l0 -7.75l2.078125 0l0 7.75zm-2.203125 -9.75q0 -0.46875 0.3125 -0.765625q0.3125 -0.296875 0.84375 -0.296875q0.53125 0 0.84375 0.296875q0.3125 0.296875 0.3125 0.765625q0 0.46875 -0.3125 0.78125q-0.3125 0.296875 -0.84375 0.296875q-0.515625 0 -0.84375 -0.296875q-0.3125 -0.3125 -0.3125 -0.78125zm8.2453 3.953125q-0.421875 -0.0625 -0.734375 -0.0625q-1.171875 0 -1.546875 0.796875l0 5.0625l-2.0625 0l0 -7.75l1.953125 0l0.0625 0.9375q0.609375 -1.078125 1.71875 -1.078125q0.34375 0 0.640625 0.09375l-0.03125 2.0zm3.8288574 -3.84375l0 1.890625l1.328125 0l0 1.53125l-1.328125 0l0 3.859375q0 0.421875 0.15625 0.609375q0.171875 0.1875 0.640625 0.1875q0.34375 0 0.609375 -0.046875l0 1.5625q-0.609375 0.1875 -1.25 0.1875q-2.171875 0 -2.21875 -2.1875l0 -4.171875l-1.125 0l0 -1.53125l1.125 0l0 -1.890625l2.0625 0zm7.1240845 8.859375q-0.765625 0.921875 -2.125 0.921875q-1.25 0 -1.90625 -0.703125q-0.640625 -0.71875 -0.65625 -2.109375l0 -5.078125l2.0625 0l0 5.015625q0 1.203125 1.109375 1.203125q1.046875 0 1.4375 -0.734375l0 -5.484375l2.078125 0l0 7.75l-1.953125 0l-0.046875 -0.78125zm8.044983 0.78125q-0.140625 -0.28125 -0.203125 -0.6875q-0.75 0.828125 -1.953125 0.828125q-1.140625 0 -1.890625 -0.65625q-0.75 -0.65625 -0.75 -1.65625q0 -1.234375 0.90625 -1.890625q0.921875 -0.65625 2.640625 -0.671875l0.953125 0l0 -0.4375q0 -0.53125 -0.28125 -0.859375q-0.265625 -0.328125 -0.859375 -0.328125q-0.515625 0 -0.8125 0.25q-0.296875 0.25 -0.296875 0.6875l-2.078125 0q0 -0.671875 0.40625 -1.234375q0.421875 -0.578125 1.171875 -0.90625q0.765625 -0.328125 1.71875 -0.328125q1.421875 0 2.265625 0.71875q0.84375 0.71875 0.84375 2.03125l0 3.34375q0.015625 1.109375 0.3125 1.671875l0 0.125l-2.09375 0zm-1.703125 -1.4375q0.453125 0 0.828125 -0.203125q0.390625 -0.203125 0.578125 -0.546875l0 -1.328125l-0.765625 0q-1.5625 0 -1.65625 1.0625l0 0.125q0 0.390625 0.265625 0.640625q0.265625 0.25 0.75 0.25zm7.263916 1.4375l-2.078125 0l0 -11.0l2.078125 0l0 11.0zm7.2544556 -7.75l0.0625 0.90625q0.828125 -1.046875 2.21875 -1.046875q1.234375 0 1.828125 0.734375q0.609375 0.71875 0.625 2.15625l0 5.0l-2.0625 0l0 -4.953125q0 -0.65625 -0.296875 -0.953125q-0.28125 -0.296875 -0.953125 -0.296875q-0.875 0 -1.3125 0.75l0 5.453125l-2.0625 0l0 -7.75l1.953125 0zm5.973938 3.8125q0 -1.15625 0.4375 -2.0625q0.453125 -0.90625 1.28125 -1.390625q0.84375 -0.5 1.9375 -0.5q1.578125 0 2.5625 0.96875q0.984375 0.953125 1.109375 2.59375l0.015625 0.53125q0 1.78125 -1.0 2.859375q-1.0 1.078125 -2.671875 1.078125q-1.671875 0 -2.671875 -1.0625q-1.0 -1.078125 -1.0 -2.921875l0 -0.09375zm2.078125 0.140625q0 1.109375 0.40625 1.6875q0.421875 0.578125 1.1875 0.578125q0.75 0 1.171875 -0.5625q0.421875 -0.578125 0.421875 -1.84375q0 -1.09375 -0.421875 -1.6875q-0.421875 -0.59375 -1.1875 -0.59375q-0.75 0 -1.171875 0.59375q-0.40625 0.59375 -0.40625 1.828125zm6.2089844 -0.125q0 -1.8125 0.8125 -2.890625q0.8125 -1.078125 2.21875 -1.078125q1.140625 0 1.875 0.84375l0 -3.953125l2.078125 0l0 11.0l-1.875 0l-0.09375 -0.828125q-0.78125 0.96875 -1.984375 0.96875q-1.375 0 -2.203125 -1.078125q-0.828125 -1.078125 -0.828125 -2.984375zm2.078125 0.140625q0 1.09375 0.375 1.671875q0.375 0.578125 1.09375 0.578125q0.96875 0 1.359375 -0.8125l0 -3.046875q-0.390625 -0.8125 -1.34375 -0.8125q-1.484375 0 -1.484375 2.421875zm10.070923 3.921875q-1.703125 0 -2.78125 -1.046875q-1.0625 -1.046875 -1.0625 -2.78125l0 -0.203125q0 -1.15625 0.453125 -2.078125q0.453125 -0.921875 1.265625 -1.421875q0.828125 -0.5 1.890625 -0.5q1.59375 0 2.5 1.015625q0.921875 1.0 0.921875 2.828125l0 0.84375l-4.9375 0q0.109375 0.765625 0.609375 1.21875q0.5 0.453125 1.28125 0.453125q1.1875 0 1.859375 -0.859375l1.015625 1.140625q-0.46875 0.65625 -1.265625 1.03125q-0.78125 0.359375 -1.75 0.359375zm-0.234375 -6.359375q-0.625 0 -1.015625 0.421875q-0.375 0.421875 -0.46875 1.1875l2.875 0l0 -0.15625q-0.015625 -0.6875 -0.375 -1.0625q-0.359375 -0.390625 -1.015625 -0.390625z" fill-rule="nonzero"/><path fill="#b45f06" d="m270.40683 291.5748l82.74014 0l0 67.138855l-13.42807 13.42807l-69.31207 0z" fill-rule="evenodd"/><path fill="#8f4b04" d="m339.7189 372.14172l2.685608 -10.742462l10.742462 -2.685608z" fill-rule="evenodd"/><path fill="#000000" fill-opacity="0.0" d="m339.7189 372.14172l2.685608 -10.742462l10.742462 -2.685608l-13.42807 13.42807l-69.31207 0l0 -80.566925l82.74014 0l0 67.138855" fill-rule="evenodd"/><path stroke="#f6b26b" stroke-width="4.0" stroke-linejoin="round" stroke-linecap="butt" d="m339.7189 372.14172l2.685608 -10.742462l10.742462 -2.685608l-13.42807 13.42807l-69.31207 0l0 -80.566925l82.74014 0l0 67.138855" fill-rule="evenodd"/><path fill="#f6b26b" d="m295.9244 324.42734q-0.421875 -0.0625 -0.734375 -0.0625q-1.171875 0 -1.546875 0.796875l0 5.0625l-2.0625 0l0 -7.75l1.953125 0l0.0625 0.9375q0.609375 -1.078125 1.71875 -1.078125q0.34375 0 0.640625 0.09375l-0.03125 2.0zm0.41610718 1.859375q0 -1.15625 0.4375 -2.0625q0.453125 -0.90625 1.28125 -1.390625q0.84375 -0.5 1.9375 -0.5q1.578125 0 2.5625 0.96875q0.984375 0.953125 1.109375 2.59375l0.015625 0.53125q0 1.78125 -1.0 2.859375q-1.0 1.078125 -2.671875 1.078125q-1.671875 0 -2.671875 -1.0625q-1.0 -1.078125 -1.0 -2.921875l0 -0.09375zm2.078125 0.140625q0 1.109375 0.40625 1.6875q0.421875 0.578125 1.1875 0.578125q0.75 0 1.171875 -0.5625q0.421875 -0.578125 0.421875 -1.84375q0 -1.09375 -0.421875 -1.6875q-0.421875 -0.59375 -1.1875 -0.59375q-0.75 0 -1.171875 0.59375q-0.40625 0.59375 -0.40625 1.828125zm11.177704 3.015625q-0.765625 0.921875 -2.125 0.921875q-1.25 0 -1.90625 -0.703125q-0.640625 -0.71875 -0.65625 -2.109375l0 -5.078125l2.0625 0l0 5.015625q0 1.203125 1.109375 1.203125q1.046875 0 1.4375 -0.734375l0 -5.484375l2.078125 0l0 7.75l-1.953125 0l-0.046875 -0.78125zm6.0293274 -8.859375l0 1.890625l1.328125 0l0 1.53125l-1.328125 0l0 3.859375q0 0.421875 0.15625 0.609375q0.171875 0.1875 0.640625 0.1875q0.34375 0 0.609375 -0.046875l0 1.5625q-0.609375 0.1875 -1.25 0.1875q-2.171875 0 -2.21875 -2.1875l0 -4.171875l-1.125 0l0 -1.53125l1.125 0l0 -1.890625l2.0625 0zm6.0459595 9.78125q-1.703125 0 -2.78125 -1.046875q-1.0625 -1.046875 -1.0625 -2.78125l0 -0.203125q0 -1.15625 0.453125 -2.078125q0.453125 -0.921875 1.265625 -1.421875q0.828125 -0.5 1.890625 -0.5q1.59375 0 2.5 1.015625q0.921875 1.0 0.921875 2.828125l0 0.84375l-4.9375 0q0.109375 0.765625 0.609375 1.21875q0.5 0.453125 1.28125 0.453125q1.1875 0 1.859375 -0.859375l1.015625 1.140625q-0.46875 0.65625 -1.265625 1.03125q-0.78125 0.359375 -1.75 0.359375zm-0.234375 -6.359375q-0.625 0 -1.015625 0.421875q-0.375 0.421875 -0.46875 1.1875l2.875 0l0 -0.15625q-0.015625 -0.6875 -0.375 -1.0625q-0.359375 -0.390625 -1.015625 -0.390625zm8.781494 4.078125q0 -0.375 -0.375 -0.59375q-0.375 -0.21875 -1.203125 -0.390625q-2.765625 -0.578125 -2.765625 -2.34375q0 -1.03125 0.859375 -1.71875q0.859375 -0.703125 2.234375 -0.703125q1.46875 0 2.359375 0.703125q0.890625 0.6875 0.890625 1.796875l-2.078125 0q0 -0.4375 -0.28125 -0.71875q-0.28125 -0.296875 -0.890625 -0.296875q-0.53125 0 -0.8125 0.234375q-0.28125 0.234375 -0.28125 0.59375q0 0.34375 0.3125 0.5625q0.328125 0.203125 1.09375 0.359375q0.78125 0.15625 1.3125 0.34375q1.640625 0.609375 1.640625 2.09375q0 1.046875 -0.90625 1.703125q-0.90625 0.65625 -2.34375 0.65625q-0.984375 0 -1.734375 -0.34375q-0.75 -0.34375 -1.1875 -0.953125q-0.421875 -0.609375 -0.421875 -1.3125l1.953125 0q0.03125 0.5625 0.40625 0.859375q0.390625 0.28125 1.015625 0.28125q0.59375 0 0.890625 -0.21875q0.3125 -0.234375 0.3125 -0.59375z" fill-rule="nonzero"/><path fill="#000000" fill-opacity="0.0" d="m311.7767 268.937l0 22.64566" fill-rule="evenodd"/><path stroke="#f6b26b" stroke-width="3.0" stroke-linejoin="round" stroke-linecap="butt" d="m311.7767 268.937l0 22.64566" fill-rule="evenodd"/><path fill="#000000" fill-opacity="0.0" d="m384.78458 236.76378c19.884277 0 29.827606 -9.984253 39.768555 -19.968506c9.9409485 -9.984253 19.879517 -19.968506 39.759003 -19.968506" fill-rule="evenodd"/><path stroke="#6fa8dc" stroke-width="3.0" stroke-linejoin="round" stroke-linecap="butt" d="m384.78458 236.76378c19.884308 0 29.827637 -9.984253 39.768585 -19.968506c4.970459 -4.9921265 9.940369 -9.984253 16.152557 -13.728348c1.553009 -0.9360199 3.1837158 -1.7940369 4.911499 -2.5545654c0.21594238 -0.095062256 0.43344116 -0.18859863 0.6524658 -0.28059387l0.34109497 -0.13975525" fill-rule="evenodd"/><path fill="#6fa8dc" stroke="#6fa8dc" stroke-width="3.0" stroke-linecap="butt" d="m447.50964 204.965l12.489532 -7.3426514l-14.2872925 -2.4033203z" fill-rule="evenodd"/><path fill="#000000" fill-opacity="0.0" d="m384.78458 236.76378c19.884277 0 29.827606 12.0 39.768555 24.000015c9.9409485 12.0 19.879517 24.0 39.759003 24.0" fill-rule="evenodd"/><path stroke="#6fa8dc" stroke-width="3.0" stroke-linejoin="round" stroke-linecap="butt" d="m384.78458 236.76378c19.884308 0 29.827637 12.0 39.768585 24.000015c4.970459 6.0 9.940369 12.0 16.152557 16.5c1.553009 1.125 3.1837158 2.15625 4.911499 3.0703125c0.21594238 0.114227295 0.43344116 0.22668457 0.6524658 0.33721924l0.46221924 0.22766113" fill-rule="evenodd"/><path fill="#6fa8dc" stroke="#6fa8dc" stroke-width="3.0" stroke-linecap="butt" d="m445.668 285.73862l14.360718 -1.9165039l-12.232849 -7.7627563z" fill-rule="evenodd"/><path fill="#000000" fill-opacity="0.0" d="m207.13124 113.48819l99.18111 0l0 21.574799l-99.18111 0z" fill-rule="evenodd"/><path fill="#6fa8dc" d="m250.73988 125.558716q0 1.78125 -0.8125 2.859375q-0.8125 1.078125 -2.1875 1.078125q-1.1875 0 -1.90625 -0.8125l0 3.65625l-2.0625 0l0 -10.734375l1.921875 0l0.0625 0.765625q0.75 -0.90625 1.96875 -0.90625q1.421875 0 2.21875 1.0625q0.796875 1.0625 0.796875 2.921875l0 0.109375zm-2.0625 -0.15625q0 -1.078125 -0.390625 -1.65625q-0.375 -0.59375 -1.109375 -0.59375q-0.96875 0 -1.34375 0.75l0 3.15625q0.375 0.765625 1.359375 0.765625q1.484375 0 1.484375 -2.421875zm7.688797 -1.84375q-0.421875 -0.0625 -0.734375 -0.0625q-1.171875 0 -1.546875 0.796875l0 5.0625l-2.0625 0l0 -7.75l1.953125 0l0.0625 0.9375q0.609375 -1.078125 1.71875 -1.078125q0.34375 0 0.640625 0.09375l-0.03125 2.0zm0.4161377 1.859375q0 -1.15625 0.4375 -2.0625q0.453125 -0.90625 1.28125 -1.390625q0.84375 -0.5 1.9375 -0.5q1.578125 0 2.5625 0.96875q0.984375 0.953125 1.109375 2.59375l0.015625 0.53125q0 1.78125 -1.0 2.859375q-1.0 1.078125 -2.671875 1.078125q-1.671875 0 -2.671875 -1.0625q-1.0 -1.078125 -1.0 -2.921875l0 -0.09375zm2.078125 0.140625q0 1.109375 0.40625 1.6875q0.421875 0.578125 1.1875 0.578125q0.75 0 1.171875 -0.5625q0.421875 -0.578125 0.421875 -1.84375q0 -1.09375 -0.421875 -1.6875q-0.421875 -0.59375 -1.1875 -0.59375q-0.75 0 -1.171875 0.59375q-0.40625 0.59375 -0.40625 1.828125zm9.320282 1.265625l1.4375 -5.21875l2.171875 0l-2.609375 7.75l-1.984375 0l-2.609375 -7.75l2.15625 0l1.4375 5.21875zm6.703705 2.53125l-2.078125 0l0 -7.75l2.078125 0l0 7.75zm-2.203125 -9.75q0 -0.46875 0.3125 -0.765625q0.3125 -0.296875 0.84375 -0.296875q0.53125 0 0.84375 0.296875q0.3125 0.296875 0.3125 0.765625q0 0.46875 -0.3125 0.78125q-0.3125 0.296875 -0.84375 0.296875q-0.515625 0 -0.84375 -0.296875q-0.3125 -0.3125 -0.3125 -0.78125zm3.5734253 5.828125q0 -1.8125 0.8125 -2.890625q0.8125 -1.078125 2.21875 -1.078125q1.140625 0 1.875 0.84375l0 -3.953125l2.078125 0l0 11.0l-1.875 0l-0.09375 -0.828125q-0.78125 0.96875 -1.984375 0.96875q-1.375 0 -2.203125 -1.078125q-0.828125 -1.078125 -0.828125 -2.984375zm2.078125 0.140625q0 1.09375 0.375 1.671875q0.375 0.578125 1.09375 0.578125q0.96875 0 1.359375 -0.8125l0 -3.046875q-0.390625 -0.8125 -1.34375 -0.8125q-1.484375 0 -1.484375 2.421875zm10.070953 3.921875q-1.703125 0 -2.78125 -1.046875q-1.0625 -1.046875 -1.0625 -2.78125l0 -0.203125q0 -1.15625 0.453125 -2.078125q0.453125 -0.921875 1.265625 -1.421875q0.828125 -0.5 1.890625 -0.5q1.59375 0 2.5 1.015625q0.921875 1.0 0.921875 2.828125l0 0.84375l-4.9375 0q0.109375 0.765625 0.609375 1.21875q0.5 0.453125 1.28125 0.453125q1.1875 0 1.859375 -0.859375l1.015625 1.140625q-0.46875 0.65625 -1.265625 1.03125q-0.78125 0.359375 -1.75 0.359375zm-0.234375 -6.359375q-0.625 0 -1.015625 0.421875q-0.375 0.421875 -0.46875 1.1875l2.875 0l0 -0.15625q-0.015625 -0.6875 -0.375 -1.0625q-0.359375 -0.390625 -1.015625 -0.390625zm8.937714 0.421875q-0.421875 -0.0625 -0.734375 -0.0625q-1.171875 0 -1.546875 0.796875l0 5.0625l-2.0625 0l0 -7.75l1.953125 0l0.0625 0.9375q0.609375 -1.078125 1.71875 -1.078125q0.34375 0 0.640625 0.09375l-0.03125 2.0z" fill-rule="nonzero"/></g></svg>