<svg version="1.1" viewBox="0.0 0.0 639.9160104986877 413.9186351706037" fill="none" stroke="none" stroke-linecap="square" stroke-miterlimit="10" xmlns:xlink="http://www.w3.org/1999/xlink" xmlns="http://www.w3.org/2000/svg"><clipPath id="p.0"><path d="m0 0l639.916 0l0 413.91864l-639.916 0l0 -413.91864z" clip-rule="nonzero"/></clipPath><g clip-path="url(#p.0)"><path fill="#000000" fill-opacity="0.0" d="m0 0l639.916 0l0 413.91864l-639.916 0z" fill-rule="evenodd"/><path fill="#f5f8fb" d="m82.30446 17.768078l0 0c0 -6.107976 4.9514923 -11.059467 11.059471 -11.059467l453.18814 0c2.9331665 0 5.746216 1.1651902 7.8202515 3.2392426c2.0740356 2.0740528 3.2392578 4.8870707 3.2392578 7.820225l0 362.82596c0 6.107971 -4.951538 11.059479 -11.059509 11.059479l-453.18814 0c-6.107979 0 -11.059471 -4.9515076 -11.059471 -11.059479z" fill-rule="evenodd"/><path stroke="#cfe2f3" stroke-width="3.0" stroke-linejoin="round" stroke-linecap="butt" d="m82.30446 17.768078l0 0c0 -6.107976 4.9514923 -11.059467 11.059471 -11.059467l453.18814 0c2.9331665 0 5.746216 1.1651902 7.8202515 3.2392426c2.0740356 2.0740528 3.2392578 4.8870707 3.2392578 7.820225l0 362.82596c0 6.107971 -4.951538 11.059479 -11.059509 11.059479l-453.18814 0c-6.107979 0 -11.059471 -4.9515076 -11.059471 -11.059479z" fill-rule="evenodd"/><path fill="#6fa8dc" d="m95.01242 26.605942l4.078125 1.4375l0 2.0l-6.15625 -2.609375l0 -1.6875l6.15625 -2.609375l0 2.0l-4.078125 1.46875zm7.7225647 -3.328125l0.0625 0.875q0.828125 -1.015625 2.234375 -1.015625q1.484375 0 2.046875 1.1875q0.8125 -1.1875 2.328125 -1.1875q1.25 0 1.859375 0.734375q0.625 0.734375 0.625 2.21875l0 4.9375l-2.078125 0l0 -4.9375q0 -0.65625 -0.265625 -0.953125q-0.25 -0.3125 -0.890625 -0.3125q-0.9375 0 -1.296875 0.890625l0.015625 5.3125l-2.078125 0l0 -4.9375q0 -0.671875 -0.265625 -0.96875q-0.265625 -0.296875 -0.890625 -0.296875q-0.890625 0 -1.28125 0.734375l0 5.46875l-2.0625 0l0 -7.75l1.9375 0zm14.313248 7.890625q-1.703125 0 -2.78125 -1.046875q-1.0625 -1.046875 -1.0625 -2.78125l0 -0.203125q0 -1.15625 0.453125 -2.078125q0.453125 -0.921875 1.265625 -1.421875q0.828125 -0.5 1.890625 -0.5q1.59375 0 2.5 1.015625q0.921875 1.0 0.921875 2.828125l0 0.84375l-4.9375 0q0.109375 0.765625 0.609375 1.21875q0.5 0.453125 1.28125 0.453125q1.1875 0 1.859375 -0.859375l1.015625 1.140625q-0.46875 0.65625 -1.265625 1.03125q-0.78125 0.359375 -1.75 0.359375zm-0.234375 -6.359375q-0.625 0 -1.015625 0.421875q-0.375 0.421875 -0.46875 1.1875l2.875 0l0 -0.15625q-0.015625 -0.6875 -0.375 -1.0625q-0.359375 -0.390625 -1.015625 -0.390625zm8.781479 4.078125q0 -0.375 -0.375 -0.59375q-0.375 -0.21875 -1.203125 -0.390625q-2.765625 -0.578125 -2.765625 -2.34375q0 -1.03125 0.859375 -1.71875q0.859375 -0.703125 2.234375 -0.703125q1.46875 0 2.359375 0.703125q0.890625 0.6875 0.890625 1.796875l-2.078125 0q0 -0.4375 -0.28125 -0.71875q-0.28125 -0.296875 -0.890625 -0.296875q-0.53125 0 -0.8125 0.234375q-0.28125 0.234375 -0.28125 0.59375q0 0.34375 0.3125 0.5625q0.328125 0.203125 1.09375 0.359375q0.78125 0.15625 1.3125 0.34375q1.640625 0.609375 1.640625 2.09375q0 1.046875 -0.90625 1.703125q-0.90625 0.65625 -2.34375 0.65625q-0.984375 0 -1.734375 -0.34375q-0.75 -0.34375 -1.1875 -0.953125q-0.421875 -0.609375 -0.421875 -1.3125l1.953125 0q0.03125 0.5625 0.40625 0.859375q0.390625 0.28125 1.015625 0.28125q0.59375 0 0.890625 -0.21875q0.3125 -0.234375 0.3125 -0.59375zm5.363785 -4.765625q0.828125 -0.984375 2.0625 -0.984375q2.53125 0 2.5625 2.9375l0 4.953125l-2.0625 0l0 -4.90625q0 -0.65625 -0.296875 -0.96875q-0.28125 -0.328125 -0.953125 -0.328125q-0.90625 0 -1.3125 0.703125l0 5.5l-2.0625 0l0 -11.0l2.0625 0l0 4.09375zm10.404327 2.46875l-4.15625 -1.453125l0 -2.0l6.234375 2.609375l0 1.6875l-6.234375 2.625l0 -2.0l4.15625 -1.46875z" fill-rule="nonzero"/><path fill="#cfe2f3" d="m144.60892 152.23225l0 0c0 -10.174484 8.248062 -18.422546 18.422546 -18.422546l355.91086 0c4.8859253 0 9.571777 1.9409485 13.026672 5.3958435c3.454895 3.454895 5.395813 8.140732 5.395813 13.026703l0 203.4384c0 10.174469 -8.248047 18.422516 -18.422485 18.422516l-355.91086 0c-10.174484 0 -18.422546 -8.248047 -18.422546 -18.422516z" fill-rule="evenodd"/><path stroke="#cfe2f3" stroke-width="3.0" stroke-linejoin="round" stroke-linecap="butt" d="m144.60892 152.23225l0 0c0 -10.174484 8.248062 -18.422546 18.422546 -18.422546l355.91086 0c4.8859253 0 9.571777 1.9409485 13.026672 5.3958435c3.454895 3.454895 5.395813 8.140732 5.395813 13.026703l0 203.4384c0 10.174469 -8.248047 18.422516 -18.422485 18.422516l-355.91086 0c-10.174484 0 -18.422546 -8.248047 -18.422546 -18.422516z" fill-rule="evenodd"/><path fill="#38761d" d="m381.1823 37.70231l0 0c0 -5.7288017 4.6441345 -10.372911 10.372925 -10.372911l118.151825 0c2.751068 0 5.389435 1.0928555 7.3347473 3.0381546c1.9453125 1.9452991 3.038147 4.5836887 3.038147 7.334757l0 41.490395c0 5.7288055 -4.644104 10.372917 -10.372894 10.372917l-118.151825 0c-5.7287903 0 -10.372925 -4.6441116 -10.372925 -10.372917z" fill-rule="evenodd"/><path stroke="#00ff00" stroke-width="4.0" stroke-linejoin="round" stroke-linecap="butt" d="m381.1823 37.70231l0 0c0 -5.7288017 4.6441345 -10.372911 10.372925 -10.372911l118.151825 0c2.751068 0 5.389435 1.0928555 7.3347473 3.0381546c1.9453125 1.9452991 3.038147 4.5836887 3.038147 7.334757l0 41.490395c0 5.7288055 -4.644104 10.372917 -10.372894 10.372917l-118.151825 0c-5.7287903 0 -10.372925 -4.6441116 -10.372925 -10.372917z" fill-rule="evenodd"/><path fill="#ffffff" d="m423.64355 50.605633q0 -1.78125 0.84375 -2.875q0.84375 -1.09375 2.28125 -1.09375q1.28125 0 1.984375 0.875l0.09375 -0.734375l1.875 0l0 7.5q0 1.015625 -0.46875 1.765625q-0.46875 0.75 -1.3125 1.140625q-0.828125 0.390625 -1.953125 0.390625q-0.84375 0 -1.65625 -0.34375q-0.8125 -0.328125 -1.21875 -0.875l0.90625 -1.25q0.78125 0.859375 1.875 0.859375q0.828125 0 1.28125 -0.4375q0.46875 -0.4375 0.46875 -1.25l0 -0.421875q-0.71875 0.8125 -1.890625 0.8125q-1.390625 0 -2.25 -1.09375q-0.859375 -1.09375 -0.859375 -2.890625l0 -0.078125zm2.0625 0.140625q0 1.046875 0.421875 1.65625q0.421875 0.59375 1.15625 0.59375q0.953125 0 1.359375 -0.703125l0 -3.265625q-0.421875 -0.703125 -1.34375 -0.703125q-0.75 0 -1.171875 0.609375q-0.421875 0.609375 -0.421875 1.8125zm11.084534 3.78125q-0.140625 -0.28125 -0.203125 -0.6875q-0.75 0.828125 -1.953125 0.828125q-1.140625 0 -1.890625 -0.65625q-0.75 -0.65625 -0.75 -1.65625q0 -1.234375 0.90625 -1.890625q0.921875 -0.65625 2.640625 -0.671875l0.953125 0l0 -0.4375q0 -0.53125 -0.28125 -0.859375q-0.265625 -0.328125 -0.859375 -0.328125q-0.515625 0 -0.8125 0.25q-0.296875 0.25 -0.296875 0.6875l-2.078125 0q0 -0.671875 0.40625 -1.234375q0.421875 -0.578125 1.171875 -0.90625q0.765625 -0.328125 1.71875 -0.328125q1.421875 0 2.265625 0.71875q0.84375 0.71875 0.84375 2.03125l0 3.34375q0.015625 1.109375 0.3125 1.671875l0 0.125l-2.09375 0zm-1.703125 -1.4375q0.453125 0 0.828125 -0.203125q0.390625 -0.203125 0.578125 -0.546875l0 -1.328125l-0.765625 0q-1.5625 0 -1.65625 1.0625l0 0.125q0 0.390625 0.265625 0.640625q0.265625 0.25 0.75 0.25zm7.5451965 -8.203125l0 1.890625l1.328125 0l0 1.53125l-1.328125 0l0 3.859375q0 0.421875 0.15625 0.609375q0.171875 0.1875 0.640625 0.1875q0.34375 0 0.609375 -0.046875l0 1.5625q-0.609375 0.1875 -1.25 0.1875q-2.171875 0 -2.21875 -2.1875l0 -4.171875l-1.125 0l0 -1.53125l1.125 0l0 -1.890625l2.0625 0zm6.0459595 9.78125q-1.703125 0 -2.78125 -1.046875q-1.0625 -1.046875 -1.0625 -2.78125l0 -0.203125q0 -1.15625 0.453125 -2.078125q0.453125 -0.921875 1.265625 -1.421875q0.828125 -0.5 1.890625 -0.5q1.59375 0 2.5 1.015625q0.921875 1.0 0.921875 2.828125l0 0.84375l-4.9375 0q0.109375 0.765625 0.609375 1.21875q0.5 0.453125 1.28125 0.453125q1.1875 0 1.859375 -0.859375l1.015625 1.140625q-0.46875 0.65625 -1.265625 1.03125q-0.78125 0.359375 -1.75 0.359375zm-0.234375 -6.359375q-0.625 0 -1.015625 0.421875q-0.375 0.421875 -0.46875 1.1875l2.875 0l0 -0.15625q-0.015625 -0.6875 -0.375 -1.0625q-0.359375 -0.390625 -1.015625 -0.390625zm11.328369 3.40625l1.015625 -4.9375l2.0 0l-1.984375 7.75l-1.734375 0l-1.453125 -4.875l-1.46875 4.875l-1.734375 0l-1.96875 -7.75l2.0 0l1.0 4.9375l1.421875 -4.9375l1.5 0l1.40625 4.9375zm8.520325 2.8125q-0.140625 -0.28125 -0.203125 -0.6875q-0.75 0.828125 -1.953125 0.828125q-1.140625 0 -1.890625 -0.65625q-0.75 -0.65625 -0.75 -1.65625q0 -1.234375 0.90625 -1.890625q0.921875 -0.65625 2.640625 -0.671875l0.953125 0l0 -0.4375q0 -0.53125 -0.28125 -0.859375q-0.265625 -0.328125 -0.859375 -0.328125q-0.515625 0 -0.8125 0.25q-0.296875 0.25 -0.296875 0.6875l-2.078125 0q0 -0.671875 0.40625 -1.234375q0.421875 -0.578125 1.171875 -0.90625q0.765625 -0.328125 1.71875 -0.328125q1.421875 0 2.265625 0.71875q0.84375 0.71875 0.84375 2.03125l0 3.34375q0.015625 1.109375 0.3125 1.671875l0 0.125l-2.09375 0zm-1.703125 -1.4375q0.453125 0 0.828125 -0.203125q0.390625 -0.203125 0.578125 -0.546875l0 -1.328125l-0.765625 0q-1.5625 0 -1.65625 1.0625l0 0.125q0 0.390625 0.265625 0.640625q0.265625 0.25 0.75 0.25zm7.8596497 -1.484375l1.421875 -4.828125l2.21875 0l-3.109375 8.953125l-0.171875 0.40625q-0.6875 1.515625 -2.28125 1.515625q-0.453125 0 -0.921875 -0.140625l0 -1.5625l0.3125 0.015625q0.59375 0 0.875 -0.1875q0.296875 -0.171875 0.453125 -0.59375l0.25 -0.640625l-2.71875 -7.765625l2.234375 0l1.4375 4.828125z" fill-rule="nonzero"/><path fill="#00ff00" d="m406.47598 68.10563l4.078125 1.4375l0 2.0l-6.15625 -2.609375l0 -1.6875l6.15625 -2.609375l0 2.0l-4.078125 1.46875zm8.67569 1.890625l1.4375 -5.21875l2.171875 0l-2.609375 7.75l-1.984375 0l-2.609375 -7.75l2.15625 0l1.4375 5.21875zm6.7037354 2.53125l-2.078125 0l0 -7.75l2.078125 0l0 7.75zm-2.203125 -9.749996q0 -0.46875 0.3125 -0.765625q0.3125 -0.296875 0.84375 -0.296875q0.53125 0 0.84375 0.296875q0.3125 0.296875 0.3125 0.765625q0 0.46875 -0.3125 0.78125q-0.3125 0.296875 -0.84375 0.296875q-0.515625 0 -0.84375 -0.296875q-0.3125 -0.3125 -0.3125 -0.78125zm8.24527 3.9531212q-0.421875 -0.0625 -0.734375 -0.0625q-1.171875 0 -1.546875 0.796875l0 5.0625l-2.0625 0l0 -7.75l1.953125 0l0.0625 0.9375q0.609375 -1.078125 1.71875 -1.078125q0.34375 0 0.640625 0.09375l-0.03125 2.0zm3.828888 -3.8437462l0 1.8906212l1.328125 0l0 1.53125l-1.328125 0l0 3.859375q0 0.421875 0.15625 0.609375q0.171875 0.1875 0.640625 0.1875q0.34375 0 0.609375 -0.046875l0 1.5625q-0.609375 0.1875 -1.25 0.1875q-2.171875 0 -2.21875 -2.1875l0 -4.171875l-1.125 0l0 -1.53125l1.125 0l0 -1.8906212l2.0625 0zm7.1240845 8.859371q-0.765625 0.921875 -2.125 0.921875q-1.25 0 -1.90625 -0.703125q-0.640625 -0.71875 -0.65625 -2.109375l0 -5.078125l2.0625 0l0 5.015625q0 1.203125 1.109375 1.203125q1.046875 0 1.4375 -0.734375l0 -5.484375l2.078125 0l0 7.75l-1.953125 0l-0.046875 -0.78125zm8.044952 0.78125q-0.140625 -0.28125 -0.203125 -0.6875q-0.75 0.828125 -1.953125 0.828125q-1.140625 0 -1.890625 -0.65625q-0.75 -0.65625 -0.75 -1.65625q0 -1.234375 0.90625 -1.890625q0.921875 -0.65625 2.640625 -0.671875l0.953125 0l0 -0.4375q0 -0.53125 -0.28125 -0.859375q-0.265625 -0.328125 -0.859375 -0.328125q-0.515625 0 -0.8125 0.25q-0.296875 0.25 -0.296875 0.6875l-2.078125 0q0 -0.671875 0.40625 -1.234375q0.421875 -0.578125 1.171875 -0.90625q0.765625 -0.328125 1.71875 -0.328125q1.421875 0 2.265625 0.71875q0.84375 0.71875 0.84375 2.03125l0 3.34375q0.015625 1.109375 0.3125 1.671875l0 0.125l-2.09375 0zm-1.703125 -1.4375q0.453125 0 0.828125 -0.203125q0.390625 -0.203125 0.578125 -0.546875l0 -1.328125l-0.765625 0q-1.5625 0 -1.65625 1.0625l0 0.125q0 0.390625 0.265625 0.640625q0.265625 0.25 0.75 0.25zm7.2639465 1.4375l-2.078125 0l0 -10.999996l2.078125 0l0 10.999996zm7.254425 -7.75l0.0625 0.90625q0.828125 -1.046875 2.21875 -1.046875q1.234375 0 1.828125 0.734375q0.609375 0.71875 0.625 2.15625l0 5.0l-2.0625 0l0 -4.953125q0 -0.65625 -0.296875 -0.953125q-0.28125 -0.296875 -0.953125 -0.296875q-0.875 0 -1.3125 0.75l0 5.453125l-2.0625 0l0 -7.75l1.953125 0zm5.9739685 3.8125q0 -1.15625 0.4375 -2.0625q0.453125 -0.90625 1.28125 -1.390625q0.84375 -0.5 1.9375 -0.5q1.578125 0 2.5625 0.96875q0.984375 0.953125 1.109375 2.59375l0.015625 0.53125q0 1.78125 -1.0 2.859375q-1.0 1.078125 -2.671875 1.078125q-1.671875 0 -2.671875 -1.0625q-1.0 -1.078125 -1.0 -2.921875l0 -0.09375zm2.078125 0.140625q0 1.109375 0.40625 1.6875q0.421875 0.578125 1.1875 0.578125q0.75 0 1.171875 -0.5625q0.421875 -0.578125 0.421875 -1.84375q0 -1.09375 -0.421875 -1.6875q-0.421875 -0.59375 -1.1875 -0.59375q-0.75 0 -1.171875 0.59375q-0.40625 0.59375 -0.40625 1.828125zm6.208954 -0.125q0 -1.8125 0.8125 -2.890625q0.8125 -1.078125 2.21875 -1.078125q1.140625 0 1.875 0.84375l0 -3.9531212l2.078125 0l0 10.999996l-1.875 0l-0.09375 -0.828125q-0.78125 0.96875 -1.984375 0.96875q-1.375 0 -2.203125 -1.078125q-0.828125 -1.078125 -0.828125 -2.984375zm2.078125 0.140625q0 1.09375 0.375 1.671875q0.375 0.578125 1.09375 0.578125q0.96875 0 1.359375 -0.8125l0 -3.046875q-0.390625 -0.8125 -1.34375 -0.8125q-1.484375 0 -1.484375 2.421875zm10.070953 3.921875q-1.703125 0 -2.78125 -1.046875q-1.0625 -1.046875 -1.0625 -2.78125l0 -0.203125q0 -1.15625 0.453125 -2.078125q0.453125 -0.921875 1.265625 -1.421875q0.828125 -0.5 1.890625 -0.5q1.59375 0 2.5 1.015625q0.921875 1.0 0.921875 2.828125l0 0.84375l-4.9375 0q0.109375 0.765625 0.609375 1.21875q0.5 0.453125 1.28125 0.453125q1.1875 0 1.859375 -0.859375l1.015625 1.140625q-0.46875 0.65625 -1.265625 1.03125q-0.78125 0.359375 -1.75 0.359375zm-0.234375 -6.359375q-0.625 0 -1.015625 0.421875q-0.375 0.421875 -0.46875 1.1875l2.875 0l0 -0.15625q-0.015625 -0.6875 -0.375 -1.0625q-0.359375 -0.390625 -1.015625 -0.390625zm8.812744 1.78125l-4.15625 -1.453125l0 -2.0l6.234375 2.609375l0 1.6875l-6.234375 2.625l0 -2.0l4.15625 -1.46875z" fill-rule="nonzero"/><path fill="#3d85c6" d="m162.98132 37.70231l0 0c0 -5.7288017 4.644104 -10.372911 10.37291 -10.372911l120.51402 0c2.751068 0 5.3894653 1.0928555 7.3347473 3.0381546c1.9453125 1.9452991 3.038147 4.5836887 3.038147 7.334757l0 41.490395c0 5.7288055 -4.644104 10.372917 -10.372894 10.372917l-120.51402 0c-5.7288055 0 -10.37291 -4.6441116 -10.37291 -10.372917z" fill-rule="evenodd"/><path stroke="#00ffff" stroke-width="4.0" stroke-linejoin="round" stroke-linecap="butt" d="m162.98132 37.70231l0 0c0 -5.7288017 4.644104 -10.372911 10.37291 -10.372911l120.51402 0c2.751068 0 5.3894653 1.0928555 7.3347473 3.0381546c1.9453125 1.9452991 3.038147 4.5836887 3.038147 7.334757l0 41.490395c0 5.7288055 -4.644104 10.372917 -10.372894 10.372917l-120.51402 0c-5.7288055 0 -10.37291 -4.6441116 -10.37291 -10.372917z" fill-rule="evenodd"/><path fill="#ffffff" d="m203.76636 43.996258q0.578125 0 0.921875 -0.3125q0.359375 -0.3125 0.375 -0.828125l1.9375 0q0 0.78125 -0.421875 1.4375q-0.421875 0.65625 -1.15625 1.015625q-0.734375 0.359375 -1.625 0.359375q-1.65625 0 -2.625 -1.046875q-0.953125 -1.0625 -0.953125 -2.921875l0 -0.140625q0 -1.78125 0.953125 -2.84375q0.953125 -1.078125 2.609375 -1.078125q1.453125 0 2.328125 0.828125q0.890625 0.828125 0.890625 2.203125l-1.9375 0q-0.015625 -0.59375 -0.375 -0.96875q-0.34375 -0.390625 -0.9375 -0.390625q-0.71875 0 -1.09375 0.53125q-0.359375 0.53125 -0.359375 1.703125l0 0.21875q0 1.203125 0.359375 1.71875q0.359375 0.515625 1.109375 0.515625zm4.0961304 -2.40625q0 -1.15625 0.4375 -2.0625q0.453125 -0.90625 1.28125 -1.390625q0.84375 -0.5 1.9375 -0.5q1.578125 0 2.5625 0.96875q0.984375 0.953125 1.109375 2.59375l0.015625 0.53125q0 1.78125 -1.0 2.859375q-1.0 1.078125 -2.671875 1.078125q-1.671875 0 -2.671875 -1.0625q-1.0 -1.078125 -1.0 -2.921875l0 -0.09375zm2.078125 0.140625q0 1.109375 0.40625 1.6875q0.421875 0.578125 1.1875 0.578125q0.75 0 1.171875 -0.5625q0.421875 -0.578125 0.421875 -1.84375q0 -1.09375 -0.421875 -1.6875q-0.421875 -0.59375 -1.1875 -0.59375q-0.75 0 -1.171875 0.59375q-0.40625 0.59375 -0.40625 1.828125zm8.724579 3.796875l-2.078125 0l0 -11.0l2.078125 0l0 11.0zm1.370285 -3.9375q0 -1.15625 0.4375 -2.0625q0.453125 -0.90625 1.28125 -1.390625q0.84375 -0.5 1.9375 -0.5q1.578125 0 2.5625 0.96875q0.984375 0.953125 1.109375 2.59375l0.015625 0.53125q0 1.78125 -1.0 2.859375q-1.0 1.078125 -2.671875 1.078125q-1.671875 0 -2.671875 -1.0625q-1.0 -1.078125 -1.0 -2.921875l0 -0.09375zm2.078125 0.140625q0 1.109375 0.40625 1.6875q0.421875 0.578125 1.1875 0.578125q0.75 0 1.171875 -0.5625q0.421875 -0.578125 0.421875 -1.84375q0 -1.09375 -0.421875 -1.6875q-0.421875 -0.59375 -1.1875 -0.59375q-0.75 0 -1.171875 0.59375q-0.40625 0.59375 -0.40625 1.828125zm10.880829 -2.0q-0.421875 -0.0625 -0.734375 -0.0625q-1.171875 0 -1.546875 0.796875l0 5.0625l-2.0625 0l0 -7.75l1.953125 0l0.0625 0.9375q0.609375 -1.078125 1.71875 -1.078125q0.34375 0 0.640625 0.09375l-0.03125 2.0zm3.828888 -3.84375l0 1.890625l1.328125 0l0 1.53125l-1.328125 0l0 3.859375q0 0.421875 0.15625 0.609375q0.171875 0.1875 0.640625 0.1875q0.34375 0 0.609375 -0.046875l0 1.5625q-0.609375 0.1875 -1.25 0.1875q-2.171875 0 -2.21875 -2.1875l0 -4.171875l-1.125 0l0 -1.53125l1.125 0l0 -1.890625l2.0625 0zm6.0459595 9.78125q-1.703125 0 -2.78125 -1.046875q-1.0625 -1.046875 -1.0625 -2.78125l0 -0.203125q0 -1.15625 0.453125 -2.078125q0.453125 -0.921875 1.265625 -1.421875q0.828125 -0.5 1.890625 -0.5q1.59375 0 2.5 1.015625q0.921875 1.0 0.921875 2.828125l0 0.84375l-4.9375 0q0.109375 0.765625 0.609375 1.21875q0.5 0.453125 1.28125 0.453125q1.1875 0 1.859375 -0.859375l1.015625 1.140625q-0.46875 0.65625 -1.265625 1.03125q-0.78125 0.359375 -1.75 0.359375zm-0.234375 -6.359375q-0.625 0 -1.015625 0.421875q-0.375 0.421875 -0.46875 1.1875l2.875 0l0 -0.15625q-0.015625 -0.6875 -0.375 -1.0625q-0.359375 -0.390625 -1.015625 -0.390625zm6.781479 6.21875l-2.078125 0l0 -11.0l2.078125 0l0 11.0zm3.88591 0l-2.078125 0l0 -11.0l2.078125 0l0 11.0zm5.26091 0.140625q-1.703125 0 -2.78125 -1.046875q-1.0625 -1.046875 -1.0625 -2.78125l0 -0.203125q0 -1.15625 0.453125 -2.078125q0.453125 -0.921875 1.265625 -1.421875q0.828125 -0.5 1.890625 -0.5q1.59375 0 2.5 1.015625q0.921875 1.0 0.921875 2.828125l0 0.84375l-4.9375 0q0.109375 0.765625 0.609375 1.21875q0.5 0.453125 1.28125 0.453125q1.1875 0 1.859375 -0.859375l1.015625 1.140625q-0.46875 0.65625 -1.265625 1.03125q-0.78125 0.359375 -1.75 0.359375zm-0.234375 -6.359375q-0.625 0 -1.015625 0.421875q-0.375 0.421875 -0.46875 1.1875l2.875 0l0 -0.15625q-0.015625 -0.6875 -0.375 -1.0625q-0.359375 -0.390625 -1.015625 -0.390625zm8.937744 0.421875q-0.421875 -0.0625 -0.734375 -0.0625q-1.171875 0 -1.546875 0.796875l0 5.0625l-2.0625 0l0 -7.75l1.953125 0l0.0625 0.9375q0.609375 -1.078125 1.71875 -1.078125q0.34375 0 0.640625 0.09375l-0.03125 2.0z" fill-rule="nonzero"/><path fill="#00ffff" d="m181.89893 59.105633l4.078125 1.4375l0 2.0l-6.15625 -2.609375l0 -1.6875l6.15625 -2.609375l0 2.0l-4.078125 1.46875zm8.67569 1.890625l1.4375 -5.21875l2.171875 0l-2.609375 7.75l-1.984375 0l-2.609375 -7.75l2.15625 0l1.4375 5.21875zm6.70372 2.53125l-2.078125 0l0 -7.75l2.078125 0l0 7.75zm-2.203125 -9.75q0 -0.46875 0.3125 -0.765625q0.3125 -0.296875 0.84375 -0.296875q0.53125 0 0.84375 0.296875q0.3125 0.296875 0.3125 0.765625q0 0.46875 -0.3125 0.78125q-0.3125 0.296875 -0.84375 0.296875q-0.515625 0 -0.84375 -0.296875q-0.3125 -0.3125 -0.3125 -0.78125zm8.245285 3.953125q-0.421875 -0.0625 -0.734375 -0.0625q-1.171875 0 -1.546875 0.796875l0 5.0625l-2.0625 0l0 -7.75l1.953125 0l0.0625 0.9375q0.609375 -1.078125 1.71875 -1.078125q0.34375 0 0.640625 0.09375l-0.03125 2.0zm3.828888 -3.84375l0 1.890625l1.328125 0l0 1.53125l-1.328125 0l0 3.859375q0 0.421875 0.15625 0.609375q0.171875 0.1875 0.640625 0.1875q0.34375 0 0.609375 -0.046875l0 1.5625q-0.609375 0.1875 -1.25 0.1875q-2.171875 0 -2.21875 -2.1875l0 -4.171875l-1.125 0l0 -1.53125l1.125 0l0 -1.890625l2.0625 0zm7.1240845 8.859375q-0.765625 0.921875 -2.125 0.921875q-1.25 0 -1.90625 -0.703125q-0.640625 -0.71875 -0.65625 -2.109375l0 -5.078125l2.0625 0l0 5.015625q0 1.203125 1.109375 1.203125q1.046875 0 1.4375 -0.734375l0 -5.484375l2.078125 0l0 7.75l-1.953125 0l-0.046875 -0.78125zm8.044952 0.78125q-0.140625 -0.28125 -0.203125 -0.6875q-0.75 0.828125 -1.953125 0.828125q-1.140625 0 -1.890625 -0.65625q-0.75 -0.65625 -0.75 -1.65625q0 -1.234375 0.90625 -1.890625q0.921875 -0.65625 2.640625 -0.671875l0.953125 0l0 -0.4375q0 -0.53125 -0.28125 -0.859375q-0.265625 -0.328125 -0.859375 -0.328125q-0.515625 0 -0.8125 0.25q-0.296875 0.25 -0.296875 0.6875l-2.078125 0q0 -0.671875 0.40625 -1.234375q0.421875 -0.578125 1.171875 -0.90625q0.765625 -0.328125 1.71875 -0.328125q1.421875 0 2.265625 0.71875q0.84375 0.71875 0.84375 2.03125l0 3.34375q0.015625 1.109375 0.3125 1.671875l0 0.125l-2.09375 0zm-1.703125 -1.4375q0.453125 0 0.828125 -0.203125q0.390625 -0.203125 0.578125 -0.546875l0 -1.328125l-0.765625 0q-1.5625 0 -1.65625 1.0625l0 0.125q0 0.390625 0.265625 0.640625q0.265625 0.25 0.75 0.25zm7.2639465 1.4375l-2.078125 0l0 -11.0l2.078125 0l0 11.0zm9.53566 -2.140625q0 -0.375 -0.375 -0.59375q-0.375 -0.21875 -1.203125 -0.390625q-2.765625 -0.578125 -2.765625 -2.34375q0 -1.03125 0.859375 -1.71875q0.859375 -0.703125 2.234375 -0.703125q1.46875 0 2.359375 0.703125q0.890625 0.6875 0.890625 1.796875l-2.078125 0q0 -0.4375 -0.28125 -0.71875q-0.28125 -0.296875 -0.890625 -0.296875q-0.53125 0 -0.8125 0.234375q-0.28125 0.234375 -0.28125 0.59375q0 0.34375 0.3125 0.5625q0.328125 0.203125 1.09375 0.359375q0.78125 0.15625 1.3125 0.34375q1.640625 0.609375 1.640625 2.09375q0 1.046875 -0.90625 1.703125q-0.90625 0.65625 -2.34375 0.65625q-0.984375 0 -1.734375 -0.34375q-0.75 -0.34375 -1.1875 -0.953125q-0.421875 -0.609375 -0.421875 -1.3125l1.953125 0q0.03125 0.5625 0.40625 0.859375q0.390625 0.28125 1.015625 0.28125q0.59375 0 0.890625 -0.21875q0.3125 -0.234375 0.3125 -0.59375zm6.91066 2.28125q-1.703125 0 -2.78125 -1.046875q-1.0625 -1.046875 -1.0625 -2.78125l0 -0.203125q0 -1.15625 0.453125 -2.078125q0.453125 -0.921875 1.265625 -1.421875q0.828125 -0.5 1.890625 -0.5q1.59375 0 2.5 1.015625q0.921875 1.0 0.921875 2.828125l0 0.84375l-4.9375 0q0.109375 0.765625 0.609375 1.21875q0.5 0.453125 1.28125 0.453125q1.1875 0 1.859375 -0.859375l1.015625 1.140625q-0.46875 0.65625 -1.265625 1.03125q-0.78125 0.359375 -1.75 0.359375zm-0.234375 -6.359375q-0.625 0 -1.015625 0.421875q-0.375 0.421875 -0.46875 1.1875l2.875 0l0 -0.15625q-0.015625 -0.6875 -0.375 -1.0625q-0.359375 -0.390625 -1.015625 -0.390625zm8.937729 0.421875q-0.421875 -0.0625 -0.734375 -0.0625q-1.171875 0 -1.546875 0.796875l0 5.0625l-2.0625 0l0 -7.75l1.953125 0l0.0625 0.9375q0.609375 -1.078125 1.71875 -1.078125q0.34375 0 0.640625 0.09375l-0.03125 2.0zm4.021591 3.265625l1.4375 -5.21875l2.171875 0l-2.609375 7.75l-1.984375 0l-2.609375 -7.75l2.15625 0l1.4375 5.21875zm6.7037354 2.53125l-2.078125 0l0 -7.75l2.078125 0l0 7.75zm-2.203125 -9.75q0 -0.46875 0.3125 -0.765625q0.3125 -0.296875 0.84375 -0.296875q0.53125 0 0.84375 0.296875q0.3125 0.296875 0.3125 0.765625q0 0.46875 -0.3125 0.78125q-0.3125 0.296875 -0.84375 0.296875q-0.515625 0 -0.84375 -0.296875q-0.3125 -0.3125 -0.3125 -0.78125zm7.12027 8.21875q0.578125 0 0.921875 -0.3125q0.359375 -0.3125 0.375 -0.828125l1.9375 0q0 0.78125 -0.421875 1.4375q-0.421875 0.65625 -1.15625 1.015625q-0.734375 0.359375 -1.625 0.359375q-1.65625 0 -2.625 -1.046875q-0.953125 -1.0625 -0.953125 -2.921875l0 -0.140625q0 -1.78125 0.953125 -2.84375q0.953125 -1.078125 2.609375 -1.078125q1.453125 0 2.328125 0.828125q0.890625 0.828125 0.890625 2.203125l-1.9375 0q-0.015625 -0.59375 -0.375 -0.96875q-0.34375 -0.390625 -0.9375 -0.390625q-0.71875 0 -1.09375 0.53125q-0.359375 0.53125 -0.359375 1.703125l0 0.21875q0 1.203125 0.359375 1.71875q0.359375 0.515625 1.109375 0.515625zm7.9867554 1.671875q-1.703125 0 -2.78125 -1.046875q-1.0625 -1.046875 -1.0625 -2.78125l0 -0.203125q0 -1.15625 0.453125 -2.078125q0.453125 -0.921875 1.265625 -1.421875q0.828125 -0.5 1.890625 -0.5q1.59375 0 2.5 1.015625q0.921875 1.0 0.921875 2.828125l0 0.84375l-4.9375 0q0.109375 0.765625 0.609375 1.21875q0.5 0.453125 1.28125 0.453125q1.1875 0 1.859375 -0.859375l1.015625 1.140625q-0.46875 0.65625 -1.265625 1.03125q-0.78125 0.359375 -1.75 0.359375zm-0.234375 -6.359375q-0.625 0 -1.015625 0.421875q-0.375 0.421875 -0.46875 1.1875l2.875 0l0 -0.15625q-0.015625 -0.6875 -0.375 -1.0625q-0.359375 -0.390625 -1.015625 -0.390625zm8.812744 1.78125l-4.15625 -1.453125l0 -2.0l6.234375 2.609375l0 1.6875l-6.234375 2.625l0 -2.0l4.15625 -1.46875z" fill-rule="nonzero"/><path fill="#00ffff" d="m202.02272 77.29313q0 -1.640625 0.4375 -3.125q0.4375 -1.484375 1.28125 -2.625q0.859375 -1.140625 1.84375 -1.578125l0.40625 1.109375q-1.046875 0.78125 -1.640625 2.40625q-0.578125 1.609375 -0.578125 3.765625l0 0.21875q0 2.171875 0.578125 3.796875q0.578125 1.625 1.640625 2.421875l-0.40625 1.09375q-0.96875 -0.4375 -1.8125 -1.546875q-0.84375 -1.09375 -1.28125 -2.53125q-0.4375 -1.453125 -0.46875 -3.03125l0 -0.375z" fill-rule="nonzero"/><path fill="#00ffff" d="m213.74628 77.683754q-0.21875 1.828125 -1.125 2.9375q-0.890625 1.09375 -2.328125 1.0625q-1.21875 -0.03125 -1.859375 -1.0l-0.296875 0.84375l-1.84375 0l1.90625 -11.0l2.03125 0l-0.78125 3.96875q0.8125 -0.890625 1.890625 -0.859375q1.125 0.015625 1.765625 0.8125q0.640625 0.78125 0.671875 2.1875q0.015625 0.4375 -0.03125 1.046875zm-2.015625 -0.15625q0.078125 -0.609375 0.046875 -0.9375q-0.078125 -1.25 -1.03125 -1.28125q-0.890625 -0.015625 -1.484375 0.8125l-0.546875 3.078125q0.265625 0.78125 1.15625 0.796875q1.484375 0.046875 1.828125 -2.15625l0.03125 -0.3125zm7.1192627 4.0q-0.09375 -0.296875 -0.078125 -0.703125q-0.875 0.875 -1.96875 0.84375q-1.015625 -0.015625 -1.6875 -0.65625q-0.671875 -0.65625 -0.625 -1.609375q0.046875 -1.265625 1.0625 -1.9375q1.015625 -0.671875 2.71875 -0.671875l0.9375 0.015625l0.09375 -0.46875q0.046875 -0.234375 0.03125 -0.453125q-0.046875 -0.328125 -0.265625 -0.515625q-0.203125 -0.203125 -0.5625 -0.203125q-0.484375 -0.015625 -0.8125 0.234375q-0.328125 0.25 -0.421875 0.703125l-2.015625 0.015625q0.046875 -1.109375 1.015625 -1.796875q0.96875 -0.703125 2.390625 -0.6875q1.3125 0.03125 2.0625 0.796875q0.75 0.75 0.625 1.9375l-0.59375 3.703125l-0.03125 0.453125q-0.015625 0.515625 0.109375 0.859375l0 0.140625l-1.984375 0zm-1.546875 -1.421875q0.875 0.03125 1.515625 -0.765625l0.25 -1.328125l-0.703125 -0.015625q-1.109375 0.03125 -1.609375 0.6875q-0.171875 0.234375 -0.21875 0.578125q-0.0625 0.390625 0.15625 0.609375q0.21875 0.21875 0.609375 0.234375zm8.146225 -0.09375q0.5625 0.015625 0.9375 -0.296875q0.375 -0.328125 0.484375 -0.859375l1.90625 0q-0.0625 0.8125 -0.53125 1.46875q-0.453125 0.640625 -1.21875 1.015625q-0.765625 0.359375 -1.625 0.34375q-1.40625 -0.03125 -2.234375 -0.984375q-0.8125 -0.953125 -0.78125 -2.53125l0.015625 -0.390625l0 -0.078125q0.203125 -1.890625 1.28125 -2.984375q1.078125 -1.109375 2.671875 -1.078125q1.3125 0.03125 2.078125 0.859375q0.765625 0.828125 0.75 2.171875l-1.875 0q0 -0.609375 -0.28125 -0.96875q-0.265625 -0.359375 -0.8125 -0.390625q-1.4375 -0.046875 -1.75 2.109375q-0.109375 0.78125 -0.078125 1.3125q0.0625 1.265625 1.0625 1.28125zm7.454315 -1.5625l-0.9375 0.8125l-0.390625 2.265625l-2.03125 0l1.90625 -11.0l2.03125 0l-1.046875 5.96875l0.390625 -0.421875l2.296875 -2.296875l2.59375 0l-3.390625 3.328125l2.15625 4.421875l-2.203125 0l-1.375 -3.078125zm7.849365 3.21875q-1.015625 0 -1.8125 -0.484375q-0.78125 -0.5 -1.171875 -1.359375q-0.375 -0.859375 -0.296875 -1.875l0.03125 -0.296875q0.109375 -1.125 0.65625 -2.0625q0.546875 -0.953125 1.40625 -1.46875q0.875 -0.515625 1.921875 -0.484375q1.5 0.03125 2.265625 1.109375q0.78125 1.0625 0.59375 2.703125l-0.125 0.875l-4.734375 0q-0.03125 0.75 0.359375 1.203125q0.390625 0.453125 1.078125 0.46875q1.09375 0.03125 1.921875 -0.859375l0.9375 1.15625q-0.4375 0.65625 -1.265625 1.03125q-0.828125 0.359375 -1.765625 0.34375zm0.640625 -6.359375q-0.5625 -0.015625 -1.0 0.359375q-0.421875 0.359375 -0.765625 1.265625l2.78125 0l0.03125 -0.1875q0.046875 -0.296875 0.015625 -0.546875q-0.078125 -0.421875 -0.359375 -0.65625q-0.28125 -0.234375 -0.703125 -0.234375zm6.6325073 -1.53125l-0.171875 0.921875q0.921875 -1.09375 2.25 -1.0625q1.09375 0.03125 1.609375 0.8125q0.53125 0.765625 0.390625 2.15625l-0.828125 4.921875l-2.015625 0l0.828125 -4.9375q0.046875 -0.28125 0.015625 -0.515625q-0.09375 -0.734375 -0.90625 -0.75q-0.796875 -0.03125 -1.421875 0.734375l-0.96875 5.46875l-2.015625 0l1.34375 -7.75l1.890625 0zm8.677231 -0.140625q1.078125 0.03125 1.75 0.859375l0.765625 -3.96875l2.015625 0l-1.90625 11.0l-1.796875 0l0.109375 -0.828125q-0.859375 1.0 -2.015625 0.984375q-0.71875 -0.015625 -1.265625 -0.375q-0.546875 -0.375 -0.84375 -1.078125q-0.296875 -0.703125 -0.328125 -1.5625q-0.015625 -0.453125 0.03125 -0.875l0.046875 -0.3125q0.171875 -1.1875 0.65625 -2.09375q0.484375 -0.90625 1.1875 -1.34375q0.71875 -0.4375 1.59375 -0.40625zm-1.46875 4.15625q-0.046875 0.546875 -0.03125 0.921875q0.078125 1.265625 1.015625 1.28125q0.859375 0.03125 1.484375 -0.796875l0.546875 -3.078125q-0.28125 -0.765625 -1.109375 -0.8125q-0.734375 -0.015625 -1.234375 0.578125q-0.484375 0.59375 -0.671875 1.90625z" fill-rule="nonzero"/><path fill="#00ffff" d="m265.28287 77.44938q0 1.625 -0.46875 3.125q-0.46875 1.484375 -1.34375 2.625q-0.859375 1.15625 -1.859375 1.578125l-0.40625 -1.09375q1.015625 -0.765625 1.59375 -2.359375q0.59375 -1.59375 0.625 -3.671875l0 -0.375q0 -2.140625 -0.59375 -3.765625q-0.578125 -1.640625 -1.625 -2.453125l0.40625 -1.09375q0.96875 0.421875 1.828125 1.53125q0.875 1.109375 1.34375 2.59375q0.484375 1.46875 0.5 3.046875l0 0.3125z" fill-rule="nonzero"/><path fill="#000000" fill-opacity="0.0" d="m381.1823 58.447506c-19.235443 0 -28.852783 0.01574707 -38.470886 0.031497955c-9.618103 0.01574707 -19.237 0.03149414 -38.474 0.03149414" fill-rule="evenodd"/><path stroke="#6fa8dc" stroke-width="3.0" stroke-linejoin="round" stroke-linecap="butt" d="m381.18234 58.447506c-19.235504 0 -28.852814 0.01574707 -38.470917 0.031497955c-4.8090515 0.007873535 -9.618286 0.01574707 -15.629913 0.021652222l-4.8440857 0.0034332275" fill-rule="evenodd"/><path fill="#6fa8dc" stroke="#6fa8dc" stroke-width="3.0" stroke-linecap="butt" d="m322.23566 53.548893l-13.612518 4.960045l13.616058 4.950348z" fill-rule="evenodd"/><path fill="#b45f06" d="m162.98132 200.38818l0 0c0 -5.7287903 4.644104 -10.37291 10.37291 -10.37291l120.51402 0c2.751068 0 5.3894653 1.092865 7.3347473 3.0381622c1.9453125 1.9452972 3.038147 4.583679 3.038147 7.3347473l0 41.490402c0 5.7288055 -4.644104 10.37291 -10.372894 10.37291l-120.51402 0c-5.7288055 0 -10.37291 -4.644104 -10.37291 -10.37291z" fill-rule="evenodd"/><path stroke="#f6b26b" stroke-width="4.0" stroke-linejoin="round" stroke-linecap="butt" d="m162.98132 200.38818l0 0c0 -5.7287903 4.644104 -10.37291 10.37291 -10.37291l120.51402 0c2.751068 0 5.3894653 1.092865 7.3347473 3.0381622c1.9453125 1.9452972 3.038147 4.583679 3.038147 7.3347473l0 41.490402c0 5.7288055 -4.644104 10.37291 -10.372894 10.37291l-120.51402 0c-5.7288055 0 -10.37291 -4.644104 -10.37291 -10.37291z" fill-rule="evenodd"/><path fill="#ffffff" d="m203.76636 215.68213q0.578125 0 0.921875 -0.3125q0.359375 -0.3125 0.375 -0.828125l1.9375 0q0 0.78125 -0.421875 1.4375q-0.421875 0.65625 -1.15625 1.015625q-0.734375 0.359375 -1.625 0.359375q-1.65625 0 -2.625 -1.046875q-0.953125 -1.0625 -0.953125 -2.921875l0 -0.140625q0 -1.78125 0.953125 -2.84375q0.953125 -1.078125 2.609375 -1.078125q1.453125 0 2.328125 0.828125q0.890625 0.828125 0.890625 2.203125l-1.9375 0q-0.015625 -0.59375 -0.375 -0.96875q-0.34375 -0.390625 -0.9375 -0.390625q-0.71875 0 -1.09375 0.53125q-0.359375 0.53125 -0.359375 1.703125l0 0.21875q0 1.203125 0.359375 1.71875q0.359375 0.515625 1.109375 0.515625zm4.0961304 -2.40625q0 -1.15625 0.4375 -2.0625q0.453125 -0.90625 1.28125 -1.390625q0.84375 -0.5 1.9375 -0.5q1.578125 0 2.5625 0.96875q0.984375 0.953125 1.109375 2.59375l0.015625 0.53125q0 1.78125 -1.0 2.859375q-1.0 1.078125 -2.671875 1.078125q-1.671875 0 -2.671875 -1.0625q-1.0 -1.078125 -1.0 -2.921875l0 -0.09375zm2.078125 0.140625q0 1.109375 0.40625 1.6875q0.421875 0.578125 1.1875 0.578125q0.75 0 1.171875 -0.5625q0.421875 -0.578125 0.421875 -1.84375q0 -1.09375 -0.421875 -1.6875q-0.421875 -0.59375 -1.1875 -0.59375q-0.75 0 -1.171875 0.59375q-0.40625 0.59375 -0.40625 1.828125zm8.724579 3.796875l-2.078125 0l0 -11.0l2.078125 0l0 11.0zm1.370285 -3.9375q0 -1.15625 0.4375 -2.0625q0.453125 -0.90625 1.28125 -1.390625q0.84375 -0.5 1.9375 -0.5q1.578125 0 2.5625 0.96875q0.984375 0.953125 1.109375 2.59375l0.015625 0.53125q0 1.78125 -1.0 2.859375q-1.0 1.078125 -2.671875 1.078125q-1.671875 0 -2.671875 -1.0625q-1.0 -1.078125 -1.0 -2.921875l0 -0.09375zm2.078125 0.140625q0 1.109375 0.40625 1.6875q0.421875 0.578125 1.1875 0.578125q0.75 0 1.171875 -0.5625q0.421875 -0.578125 0.421875 -1.84375q0 -1.09375 -0.421875 -1.6875q-0.421875 -0.59375 -1.1875 -0.59375q-0.75 0 -1.171875 0.59375q-0.40625 0.59375 -0.40625 1.828125zm10.880829 -2.0q-0.421875 -0.0625 -0.734375 -0.0625q-1.171875 0 -1.546875 0.796875l0 5.0625l-2.0625 0l0 -7.75l1.953125 0l0.0625 0.9375q0.609375 -1.078125 1.71875 -1.078125q0.34375 0 0.640625 0.09375l-0.03125 2.0zm3.828888 -3.84375l0 1.890625l1.328125 0l0 1.53125l-1.328125 0l0 3.859375q0 0.421875 0.15625 0.609375q0.171875 0.1875 0.640625 0.1875q0.34375 0 0.609375 -0.046875l0 1.5625q-0.609375 0.1875 -1.25 0.1875q-2.171875 0 -2.21875 -2.1875l0 -4.171875l-1.125 0l0 -1.53125l1.125 0l0 -1.890625l2.0625 0zm6.0459595 9.78125q-1.703125 0 -2.78125 -1.046875q-1.0625 -1.046875 -1.0625 -2.78125l0 -0.203125q0 -1.15625 0.453125 -2.078125q0.453125 -0.921875 1.265625 -1.421875q0.828125 -0.5 1.890625 -0.5q1.59375 0 2.5 1.015625q0.921875 1.0 0.921875 2.828125l0 0.84375l-4.9375 0q0.109375 0.765625 0.609375 1.21875q0.5 0.453125 1.28125 0.453125q1.1875 0 1.859375 -0.859375l1.015625 1.140625q-0.46875 0.65625 -1.265625 1.03125q-0.78125 0.359375 -1.75 0.359375zm-0.234375 -6.359375q-0.625 0 -1.015625 0.421875q-0.375 0.421875 -0.46875 1.1875l2.875 0l0 -0.15625q-0.015625 -0.6875 -0.375 -1.0625q-0.359375 -0.390625 -1.015625 -0.390625zm6.781479 6.21875l-2.078125 0l0 -11.0l2.078125 0l0 11.0zm3.88591 0l-2.078125 0l0 -11.0l2.078125 0l0 11.0zm5.26091 0.140625q-1.703125 0 -2.78125 -1.046875q-1.0625 -1.046875 -1.0625 -2.78125l0 -0.203125q0 -1.15625 0.453125 -2.078125q0.453125 -0.921875 1.265625 -1.421875q0.828125 -0.5 1.890625 -0.5q1.59375 0 2.5 1.015625q0.921875 1.0 0.921875 2.828125l0 0.84375l-4.9375 0q0.109375 0.765625 0.609375 1.21875q0.5 0.453125 1.28125 0.453125q1.1875 0 1.859375 -0.859375l1.015625 1.140625q-0.46875 0.65625 -1.265625 1.03125q-0.78125 0.359375 -1.75 0.359375zm-0.234375 -6.359375q-0.625 0 -1.015625 0.421875q-0.375 0.421875 -0.46875 1.1875l2.875 0l0 -0.15625q-0.015625 -0.6875 -0.375 -1.0625q-0.359375 -0.390625 -1.015625 -0.390625zm8.937744 0.421875q-0.421875 -0.0625 -0.734375 -0.0625q-1.171875 0 -1.546875 0.796875l0 5.0625l-2.0625 0l0 -7.75l1.953125 0l0.0625 0.9375q0.609375 -1.078125 1.71875 -1.078125q0.34375 0 0.640625 0.09375l-0.03125 2.0z" fill-rule="nonzero"/><path fill="#f6b26b" d="m185.89589 230.7915l4.078125 1.4375l0 2.0l-6.15625 -2.609375l0 -1.6875l6.15625 -2.609375l0 2.0l-4.078125 1.46875zm8.67569 1.890625l1.4375 -5.21875l2.171875 0l-2.609375 7.75l-1.984375 0l-2.609375 -7.75l2.15625 0l1.4375 5.21875zm6.70372 2.53125l-2.078125 0l0 -7.75l2.078125 0l0 7.75zm-2.203125 -9.75q0 -0.46875 0.3125 -0.765625q0.3125 -0.296875 0.84375 -0.296875q0.53125 0 0.84375 0.296875q0.3125 0.296875 0.3125 0.765625q0 0.46875 -0.3125 0.78125q-0.3125 0.296875 -0.84375 0.296875q-0.515625 0 -0.84375 -0.296875q-0.3125 -0.3125 -0.3125 -0.78125zm8.245285 3.953125q-0.421875 -0.0625 -0.734375 -0.0625q-1.171875 0 -1.546875 0.796875l0 5.0625l-2.0625 0l0 -7.75l1.953125 0l0.0625 0.9375q0.609375 -1.078125 1.71875 -1.078125q0.34375 0 0.640625 0.09375l-0.03125 2.0zm3.828888 -3.84375l0 1.890625l1.328125 0l0 1.53125l-1.328125 0l0 3.859375q0 0.421875 0.15625 0.609375q0.171875 0.1875 0.640625 0.1875q0.34375 0 0.609375 -0.046875l0 1.5625q-0.609375 0.1875 -1.25 0.1875q-2.171875 0 -2.21875 -2.1875l0 -4.171875l-1.125 0l0 -1.53125l1.125 0l0 -1.890625l2.0625 0zm7.1240845 8.859375q-0.765625 0.921875 -2.125 0.921875q-1.25 0 -1.90625 -0.703125q-0.640625 -0.71875 -0.65625 -2.109375l0 -5.078125l2.0625 0l0 5.015625q0 1.203125 1.109375 1.203125q1.046875 0 1.4375 -0.734375l0 -5.484375l2.078125 0l0 7.75l-1.953125 0l-0.046875 -0.78125zm8.044952 0.78125q-0.140625 -0.28125 -0.203125 -0.6875q-0.75 0.828125 -1.953125 0.828125q-1.140625 0 -1.890625 -0.65625q-0.75 -0.65625 -0.75 -1.65625q0 -1.234375 0.90625 -1.890625q0.921875 -0.65625 2.640625 -0.671875l0.953125 0l0 -0.4375q0 -0.53125 -0.28125 -0.859375q-0.265625 -0.328125 -0.859375 -0.328125q-0.515625 0 -0.8125 0.25q-0.296875 0.25 -0.296875 0.6875l-2.078125 0q0 -0.671875 0.40625 -1.234375q0.421875 -0.578125 1.171875 -0.90625q0.765625 -0.328125 1.71875 -0.328125q1.421875 0 2.265625 0.71875q0.84375 0.71875 0.84375 2.03125l0 3.34375q0.015625 1.109375 0.3125 1.671875l0 0.125l-2.09375 0zm-1.703125 -1.4375q0.453125 0 0.828125 -0.203125q0.390625 -0.203125 0.578125 -0.546875l0 -1.328125l-0.765625 0q-1.5625 0 -1.65625 1.0625l0 0.125q0 0.390625 0.265625 0.640625q0.265625 0.25 0.75 0.25zm7.2639465 1.4375l-2.078125 0l0 -11.0l2.078125 0l0 11.0zm9.69191 -5.796875q-0.421875 -0.0625 -0.734375 -0.0625q-1.171875 0 -1.546875 0.796875l0 5.0625l-2.0625 0l0 -7.75l1.953125 0l0.0625 0.9375q0.609375 -1.078125 1.71875 -1.078125q0.34375 0 0.640625 0.09375l-0.03125 2.0zm0.41612244 1.859375q0 -1.15625 0.4375 -2.0625q0.453125 -0.90625 1.28125 -1.390625q0.84375 -0.5 1.9375 -0.5q1.578125 0 2.5625 0.96875q0.984375 0.953125 1.109375 2.59375l0.015625 0.53125q0 1.78125 -1.0 2.859375q-1.0 1.078125 -2.671875 1.078125q-1.671875 0 -2.671875 -1.0625q-1.0 -1.078125 -1.0 -2.921875l0 -0.09375zm2.078125 0.140625q0 1.109375 0.40625 1.6875q0.421875 0.578125 1.1875 0.578125q0.75 0 1.171875 -0.5625q0.421875 -0.578125 0.421875 -1.84375q0 -1.09375 -0.421875 -1.6875q-0.421875 -0.59375 -1.1875 -0.59375q-0.75 0 -1.171875 0.59375q-0.40625 0.59375 -0.40625 1.828125zm11.177704 3.015625q-0.765625 0.921875 -2.125 0.921875q-1.25 0 -1.90625 -0.703125q-0.640625 -0.71875 -0.65625 -2.109375l0 -5.078125l2.0625 0l0 5.015625q0 1.203125 1.109375 1.203125q1.046875 0 1.4375 -0.734375l0 -5.484375l2.0781403 0l0 7.75l-1.9531403 0l-0.046875 -0.78125zm6.0293427 -8.859375l0 1.890625l1.328125 0l0 1.53125l-1.328125 0l0 3.859375q0 0.421875 0.15625 0.609375q0.171875 0.1875 0.640625 0.1875q0.34375 0 0.609375 -0.046875l0 1.5625q-0.609375 0.1875 -1.25 0.1875q-2.171875 0 -2.21875 -2.1875l0 -4.171875l-1.125 0l0 -1.53125l1.125 0l0 -1.890625l2.0625 0zm6.0459595 9.78125q-1.703125 0 -2.78125 -1.046875q-1.0625 -1.046875 -1.0625 -2.78125l0 -0.203125q0 -1.15625 0.453125 -2.078125q0.453125 -0.921875 1.265625 -1.421875q0.828125 -0.5 1.890625 -0.5q1.59375 0 2.5 1.015625q0.921875 1.0 0.921875 2.828125l0 0.84375l-4.9375 0q0.109375 0.765625 0.609375 1.21875q0.5 0.453125 1.28125 0.453125q1.1875 0 1.859375 -0.859375l1.015625 1.140625q-0.46875 0.65625 -1.265625 1.03125q-0.78125 0.359375 -1.75 0.359375zm-0.234375 -6.359375q-0.625 0 -1.015625 0.421875q-0.375 0.421875 -0.46875 1.1875l2.875 0l0 -0.15625q-0.015625 -0.6875 -0.375 -1.0625q-0.359375 -0.390625 -1.015625 -0.390625zm8.937714 0.421875q-0.421875 -0.0625 -0.734375 -0.0625q-1.171875 0 -1.546875 0.796875l0 5.0625l-2.0625 0l0 -7.75l1.953125 0l0.0625 0.9375q0.609375 -1.078125 1.71875 -1.078125q0.34375 0 0.640625 0.09375l-0.03125 2.0zm5.220825 1.359375l-4.15625 -1.453125l0 -2.0l6.234375 2.609375l0 1.6875l-6.234375 2.625l0 -2.0l4.15625 -1.46875z" fill-rule="nonzero"/><path fill="#000000" fill-opacity="0.0" d="m233.61124 89.56562c0 25.112244 0.01574707 37.669365 0.03149414 50.22448c0.01574707 12.55513 0.03149414 25.10823 0.03149414 50.21646" fill-rule="evenodd"/><path stroke="#6fa8dc" stroke-width="3.0" stroke-linejoin="round" stroke-linecap="butt" d="m233.61124 89.56562c0 25.112244 0.01574707 37.669373 0.03149414 50.224495c0.007873535 6.2775574 0.01574707 12.554611 0.02166748 20.400803l0.0064086914 11.815643" fill-rule="evenodd"/><path fill="#6fa8dc" stroke="#6fa8dc" stroke-width="3.0" stroke-linecap="butt" d="m228.7156 172.0075l4.957794 13.613342l4.952606 -13.615234z" fill-rule="evenodd"/><path fill="#38761d" d="m381.18164 246.82352l0 0c0 -5.7288055 4.644104 -10.37291 10.372894 -10.37291l118.151825 0c2.7510376 0 5.3894653 1.092865 7.334778 3.0381622c1.9452515 1.9452972 3.038147 4.583679 3.038147 7.3347473l0 41.490387c0 5.728821 -4.644104 10.372925 -10.372925 10.372925l-118.151825 0c-5.7287903 0 -10.372894 -4.644104 -10.372894 -10.372925z" fill-rule="evenodd"/><path stroke="#00ff00" stroke-width="4.0" stroke-linejoin="round" stroke-linecap="butt" d="m381.18164 246.82352l0 0c0 -5.7288055 4.644104 -10.37291 10.372894 -10.37291l118.151825 0c2.7510376 0 5.3894653 1.092865 7.334778 3.0381622c1.9452515 1.9452972 3.038147 4.583679 3.038147 7.3347473l0 41.490387c0 5.728821 -4.644104 10.372925 -10.372925 10.372925l-118.151825 0c-5.7287903 0 -10.372894 -4.644104 -10.372894 -10.372925z" fill-rule="evenodd"/><path fill="#ffffff" d="m399.13043 262.11746q0.578125 0 0.921875 -0.3125q0.359375 -0.3125 0.375 -0.828125l1.9375 0q0 0.78125 -0.421875 1.4375q-0.421875 0.65625 -1.15625 1.015625q-0.734375 0.359375 -1.625 0.359375q-1.65625 0 -2.625 -1.046875q-0.953125 -1.0625 -0.953125 -2.921875l0 -0.140625q0 -1.78125 0.953125 -2.84375q0.953125 -1.078125 2.609375 -1.078125q1.453125 0 2.328125 0.828125q0.890625 0.828125 0.890625 2.203125l-1.9375 0q-0.015625 -0.59375 -0.375 -0.96875q-0.34375 -0.390625 -0.9375 -0.390625q-0.71875 0 -1.09375 0.53125q-0.359375 0.53125 -0.359375 1.703125l0 0.21875q0 1.203125 0.359375 1.71875q0.359375 0.515625 1.109375 0.515625zm4.0961304 -2.40625q0 -1.15625 0.4375 -2.0625q0.453125 -0.90625 1.28125 -1.390625q0.84375 -0.5 1.9375 -0.5q1.578125 0 2.5625 0.96875q0.984375 0.953125 1.109375 2.59375l0.015625 0.53125q0 1.78125 -1.0 2.859375q-1.0 1.078125 -2.671875 1.078125q-1.671875 0 -2.671875 -1.0625q-1.0 -1.078125 -1.0 -2.921875l0 -0.09375zm2.078125 0.140625q0 1.109375 0.40625 1.6875q0.421875 0.578125 1.1875 0.578125q0.75 0 1.171875 -0.5625q0.421875 -0.578125 0.421875 -1.84375q0 -1.09375 -0.421875 -1.6875q-0.421875 -0.59375 -1.1875 -0.59375q-0.75 0 -1.171875 0.59375q-0.40625 0.59375 -0.40625 1.828125zm8.724579 3.796875l-2.078125 0l0 -11.0l2.078125 0l0 11.0zm1.3703003 -3.9375q0 -1.15625 0.4375 -2.0625q0.453125 -0.90625 1.28125 -1.390625q0.84375 -0.5 1.9375 -0.5q1.578125 0 2.5625 0.96875q0.984375 0.953125 1.109375 2.59375l0.015625 0.53125q0 1.78125 -1.0 2.859375q-1.0 1.078125 -2.671875 1.078125q-1.671875 0 -2.671875 -1.0625q-1.0 -1.078125 -1.0 -2.921875l0 -0.09375zm2.078125 0.140625q0 1.109375 0.40625 1.6875q0.421875 0.578125 1.1875 0.578125q0.75 0 1.171875 -0.5625q0.421875 -0.578125 0.421875 -1.84375q0 -1.09375 -0.421875 -1.6875q-0.421875 -0.59375 -1.1875 -0.59375q-0.75 0 -1.171875 0.59375q-0.40625 0.59375 -0.40625 1.828125zm10.880829 -2.0q-0.421875 -0.0625 -0.734375 -0.0625q-1.171875 0 -1.546875 0.796875l0 5.0625l-2.0625 0l0 -7.75l1.953125 0l0.0625 0.9375q0.609375 -1.078125 1.71875 -1.078125q0.34375 0 0.640625 0.09375l-0.03125 2.0zm3.828888 -3.84375l0 1.890625l1.328125 0l0 1.53125l-1.328125 0l0 3.859375q0 0.421875 0.15625 0.609375q0.171875 0.1875 0.640625 0.1875q0.34375 0 0.609375 -0.046875l0 1.5625q-0.609375 0.1875 -1.25 0.1875q-2.171875 0 -2.21875 -2.1875l0 -4.171875l-1.125 0l0 -1.53125l1.125 0l0 -1.890625l2.0625 0zm6.0459595 9.78125q-1.703125 0 -2.78125 -1.046875q-1.0625 -1.046875 -1.0625 -2.78125l0 -0.203125q0 -1.15625 0.453125 -2.078125q0.453125 -0.921875 1.265625 -1.421875q0.828125 -0.5 1.890625 -0.5q1.59375 0 2.5 1.015625q0.921875 1.0 0.921875 2.828125l0 0.84375l-4.9375 0q0.109375 0.765625 0.609375 1.21875q0.5 0.453125 1.28125 0.453125q1.1875 0 1.859375 -0.859375l1.015625 1.140625q-0.46875 0.65625 -1.265625 1.03125q-0.78125 0.359375 -1.75 0.359375zm-0.234375 -6.359375q-0.625 0 -1.015625 0.421875q-0.375 0.421875 -0.46875 1.1875l2.875 0l0 -0.15625q-0.015625 -0.6875 -0.375 -1.0625q-0.359375 -0.390625 -1.015625 -0.390625zm6.7814636 6.21875l-2.078125 0l0 -11.0l2.078125 0l0 11.0zm3.8859253 0l-2.078125 0l0 -11.0l2.078125 0l0 11.0zm5.260895 0.140625q-1.703125 0 -2.78125 -1.046875q-1.0625 -1.046875 -1.0625 -2.78125l0 -0.203125q0 -1.15625 0.453125 -2.078125q0.453125 -0.921875 1.265625 -1.421875q0.828125 -0.5 1.890625 -0.5q1.59375 0 2.5 1.015625q0.921875 1.0 0.921875 2.828125l0 0.84375l-4.9375 0q0.109375 0.765625 0.609375 1.21875q0.5 0.453125 1.28125 0.453125q1.1875 0 1.859375 -0.859375l1.015625 1.140625q-0.46875 0.65625 -1.265625 1.03125q-0.78125 0.359375 -1.75 0.359375zm-0.234375 -6.359375q-0.625 0 -1.015625 0.421875q-0.375 0.421875 -0.46875 1.1875l2.875 0l0 -0.15625q-0.015625 -0.6875 -0.375 -1.0625q-0.359375 -0.390625 -1.015625 -0.390625zm8.937744 0.421875q-0.421875 -0.0625 -0.734375 -0.0625q-1.171875 0 -1.546875 0.796875l0 5.0625l-2.0625 0l0 -7.75l1.953125 0l0.0625 0.9375q0.609375 -1.078125 1.71875 -1.078125q0.34375 0 0.640625 0.09375l-0.03125 2.0zm5.0176697 2.171875l-4.03125 0l0 -1.671875l4.03125 0l0 1.671875zm1.3696594 -0.296875q0 -1.78125 0.84375 -2.875q0.84375 -1.09375 2.28125 -1.09375q1.28125 0 1.984375 0.875l0.09375 -0.734375l1.875 0l0 7.5q0 1.015625 -0.46875 1.765625q-0.46875 0.75 -1.3125 1.140625q-0.828125 0.390625 -1.953125 0.390625q-0.84375 0 -1.65625 -0.34375q-0.8125 -0.328125 -1.21875 -0.875l0.90625 -1.25q0.78125 0.859375 1.875 0.859375q0.828125 0 1.28125 -0.4375q0.46875 -0.4375 0.46875 -1.25l0 -0.421875q-0.71875 0.8125 -1.890625 0.8125q-1.390625 0 -2.25 -1.09375q-0.859375 -1.09375 -0.859375 -2.890625l0 -0.078125zm2.0625 0.140625q0 1.046875 0.421875 1.65625q0.421875 0.59375 1.15625 0.59375q0.953125 0 1.359375 -0.703125l0 -3.265625q-0.421875 -0.703125 -1.34375 -0.703125q-0.75 0 -1.171875 0.609375q-0.421875 0.609375 -0.421875 1.8125zm10.943939 -2.015625q-0.421875 -0.0625 -0.734375 -0.0625q-1.171875 0 -1.546875 0.796875l0 5.0625l-2.0625 0l0 -7.75l1.953125 0l0.0625 0.9375q0.609375 -1.078125 1.71875 -1.078125q0.34375 0 0.640625 0.09375l-0.03125 2.0zm4.4284973 5.9375q-1.703125 0 -2.78125 -1.046875q-1.0625 -1.046875 -1.0625 -2.78125l0 -0.203125q0 -1.15625 0.453125 -2.078125q0.453125 -0.921875 1.265625 -1.421875q0.828125 -0.5 1.890625 -0.5q1.59375 0 2.5 1.015625q0.921875 1.0 0.921875 2.828125l0 0.84375l-4.9375 0q0.109375 0.765625 0.609375 1.21875q0.5 0.453125 1.28125 0.453125q1.1875 0 1.859375 -0.859375l1.015625 1.140625q-0.46875 0.65625 -1.265625 1.03125q-0.78125 0.359375 -1.75 0.359375zm-0.234375 -6.359375q-0.625 0 -1.015625 0.421875q-0.375 0.421875 -0.46875 1.1875l2.875 0l0 -0.15625q-0.015625 -0.6875 -0.375 -1.0625q-0.359375 -0.390625 -1.015625 -0.390625zm8.156464 6.359375q-1.703125 0 -2.78125 -1.046875q-1.0625 -1.046875 -1.0625 -2.78125l0 -0.203125q0 -1.15625 0.453125 -2.078125q0.453125 -0.921875 1.265625 -1.421875q0.828125 -0.5 1.890625 -0.5q1.59375 0 2.5 1.015625q0.921875 1.0 0.921875 2.828125l0 0.84375l-4.9375 0q0.109375 0.765625 0.609375 1.21875q0.5 0.453125 1.28125 0.453125q1.1875 0 1.859375 -0.859375l1.015625 1.140625q-0.46875 0.65625 -1.265625 1.03125q-0.78125 0.359375 -1.75 0.359375zm-0.234375 -6.359375q-0.625 0 -1.015625 0.421875q-0.375 0.421875 -0.46875 1.1875l2.875 0l0 -0.15625q-0.015625 -0.6875 -0.375 -1.0625q-0.359375 -0.390625 -1.015625 -0.390625zm6.500244 -1.53125l0.0625 0.90625q0.828125 -1.046875 2.21875 -1.046875q1.234375 0 1.828125 0.734375q0.609375 0.71875 0.625 2.15625l0 5.0l-2.0625 0l0 -4.953125q0 -0.65625 -0.296875 -0.953125q-0.28125 -0.296875 -0.953125 -0.296875q-0.875 0 -1.3125 0.75l0 5.453125l-2.0625 0l0 -7.75l1.953125 0z" fill-rule="nonzero"/><path fill="#00ff00" d="m406.4753 277.22684l4.078125 1.4375l0 2.0l-6.15625 -2.609375l0 -1.6875l6.15625 -2.609375l0 2.0l-4.078125 1.46875zm8.67569 1.890625l1.4375 -5.21875l2.171875 0l-2.609375 7.75l-1.984375 0l-2.609375 -7.75l2.15625 0l1.4375 5.21875zm6.703705 2.53125l-2.078125 0l0 -7.75l2.078125 0l0 7.75zm-2.203125 -9.75q0 -0.46875 0.3125 -0.765625q0.3125 -0.296875 0.84375 -0.296875q0.53125 0 0.84375 0.296875q0.3125 0.296875 0.3125 0.765625q0 0.46875 -0.3125 0.78125q-0.3125 0.296875 -0.84375 0.296875q-0.515625 0 -0.84375 -0.296875q-0.3125 -0.3125 -0.3125 -0.78125zm8.2453 3.953125q-0.421875 -0.0625 -0.734375 -0.0625q-1.171875 0 -1.546875 0.796875l0 5.0625l-2.0625 0l0 -7.75l1.953125 0l0.0625 0.9375q0.609375 -1.078125 1.71875 -1.078125q0.34375 0 0.640625 0.09375l-0.03125 2.0zm3.828888 -3.84375l0 1.890625l1.328125 0l0 1.53125l-1.328125 0l0 3.859375q0 0.421875 0.15625 0.609375q0.171875 0.1875 0.640625 0.1875q0.34375 0 0.609375 -0.046875l0 1.5625q-0.609375 0.1875 -1.25 0.1875q-2.171875 0 -2.21875 -2.1875l0 -4.171875l-1.125 0l0 -1.53125l1.125 0l0 -1.890625l2.0625 0zm7.1240845 8.859375q-0.765625 0.921875 -2.125 0.921875q-1.25 0 -1.90625 -0.703125q-0.640625 -0.71875 -0.65625 -2.109375l0 -5.078125l2.0625 0l0 5.015625q0 1.203125 1.109375 1.203125q1.046875 0 1.4375 -0.734375l0 -5.484375l2.078125 0l0 7.75l-1.953125 0l-0.046875 -0.78125zm8.044952 0.78125q-0.140625 -0.28125 -0.203125 -0.6875q-0.75 0.828125 -1.953125 0.828125q-1.140625 0 -1.890625 -0.65625q-0.75 -0.65625 -0.75 -1.65625q0 -1.234375 0.90625 -1.890625q0.921875 -0.65625 2.640625 -0.671875l0.953125 0l0 -0.4375q0 -0.53125 -0.28125 -0.859375q-0.265625 -0.328125 -0.859375 -0.328125q-0.515625 0 -0.8125 0.25q-0.296875 0.25 -0.296875 0.6875l-2.078125 0q0 -0.671875 0.40625 -1.234375q0.421875 -0.578125 1.171875 -0.90625q0.765625 -0.328125 1.71875 -0.328125q1.421875 0 2.265625 0.71875q0.84375 0.71875 0.84375 2.03125l0 3.34375q0.015625 1.109375 0.3125 1.671875l0 0.125l-2.09375 0zm-1.703125 -1.4375q0.453125 0 0.828125 -0.203125q0.390625 -0.203125 0.578125 -0.546875l0 -1.328125l-0.765625 0q-1.5625 0 -1.65625 1.0625l0 0.125q0 0.390625 0.265625 0.640625q0.265625 0.25 0.75 0.25zm7.2639465 1.4375l-2.078125 0l0 -11.0l2.078125 0l0 11.0zm7.2543945 -7.75l0.0625 0.90625q0.828125 -1.046875 2.21875 -1.046875q1.234375 0 1.828125 0.734375q0.609375 0.71875 0.625 2.15625l0 5.0l-2.0625 0l0 -4.953125q0 -0.65625 -0.296875 -0.953125q-0.28125 -0.296875 -0.953125 -0.296875q-0.875 0 -1.3125 0.75l0 5.453125l-2.0625 0l0 -7.75l1.953125 0zm5.973999 3.8125q0 -1.15625 0.4375 -2.0625q0.453125 -0.90625 1.28125 -1.390625q0.84375 -0.5 1.9375 -0.5q1.578125 0 2.5625 0.96875q0.984375 0.953125 1.109375 2.59375l0.015625 0.53125q0 1.78125 -1.0 2.859375q-1.0 1.078125 -2.671875 1.078125q-1.671875 0 -2.671875 -1.0625q-1.0 -1.078125 -1.0 -2.921875l0 -0.09375zm2.078125 0.140625q0 1.109375 0.40625 1.6875q0.421875 0.578125 1.1875 0.578125q0.75 0 1.171875 -0.5625q0.421875 -0.578125 0.421875 -1.84375q0 -1.09375 -0.421875 -1.6875q-0.421875 -0.59375 -1.1875 -0.59375q-0.75 0 -1.171875 0.59375q-0.40625 0.59375 -0.40625 1.828125zm6.208954 -0.125q0 -1.8125 0.8125 -2.890625q0.8125 -1.078125 2.21875 -1.078125q1.140625 0 1.875 0.84375l0 -3.953125l2.078125 0l0 11.0l-1.875 0l-0.09375 -0.828125q-0.78125 0.96875 -1.984375 0.96875q-1.375 0 -2.203125 -1.078125q-0.828125 -1.078125 -0.828125 -2.984375zm2.078125 0.140625q0 1.09375 0.375 1.671875q0.375 0.578125 1.09375 0.578125q0.96875 0 1.359375 -0.8125l0 -3.046875q-0.390625 -0.8125 -1.34375 -0.8125q-1.484375 0 -1.484375 2.421875zm10.070953 3.921875q-1.703125 0 -2.78125 -1.046875q-1.0625 -1.046875 -1.0625 -2.78125l0 -0.203125q0 -1.15625 0.453125 -2.078125q0.453125 -0.921875 1.265625 -1.421875q0.828125 -0.5 1.890625 -0.5q1.59375 0 2.5 1.015625q0.921875 1.0 0.921875 2.828125l0 0.84375l-4.9375 0q0.109375 0.765625 0.609375 1.21875q0.5 0.453125 1.28125 0.453125q1.1875 0 1.859375 -0.859375l1.015625 1.140625q-0.46875 0.65625 -1.265625 1.03125q-0.78125 0.359375 -1.75 0.359375zm-0.234375 -6.359375q-0.625 0 -1.015625 0.421875q-0.375 0.421875 -0.46875 1.1875l2.875 0l0 -0.15625q-0.015625 -0.6875 -0.375 -1.0625q-0.359375 -0.390625 -1.015625 -0.390625zm8.812714 1.78125l-4.15625 -1.453125l0 -2.0l6.234375 2.609375l0 1.6875l-6.234375 2.625l0 -2.0l4.15625 -1.46875z" fill-rule="nonzero"/><path fill="#38761d" d="m381.18164 161.75302l0 0c0 -5.7288055 4.644104 -10.37291 10.372894 -10.37291l118.151825 0c2.7510376 0 5.3894653 1.0928497 7.334778 3.038147c1.9452515 1.9452972 3.038147 4.5836945 3.038147 7.3347626l0 41.490387c0 5.7288055 -4.644104 10.37291 -10.372925 10.37291l-118.151825 0c-5.7287903 0 -10.372894 -4.644104 -10.372894 -10.37291z" fill-rule="evenodd"/><path stroke="#00ff00" stroke-width="4.0" stroke-linejoin="round" stroke-linecap="butt" d="m381.18164 161.75302l0 0c0 -5.7288055 4.644104 -10.37291 10.372894 -10.37291l118.151825 0c2.7510376 0 5.3894653 1.0928497 7.334778 3.038147c1.9452515 1.9452972 3.038147 4.5836945 3.038147 7.3347626l0 41.490387c0 5.7288055 -4.644104 10.37291 -10.372925 10.37291l-118.151825 0c-5.7287903 0 -10.372894 -4.644104 -10.372894 -10.37291z" fill-rule="evenodd"/><path fill="#ffffff" d="m403.81424 177.04697q0.578125 0 0.921875 -0.3125q0.359375 -0.3125 0.375 -0.828125l1.9375 0q0 0.78125 -0.421875 1.4375q-0.421875 0.65625 -1.15625 1.015625q-0.734375 0.359375 -1.625 0.359375q-1.65625 0 -2.625 -1.046875q-0.953125 -1.0625 -0.953125 -2.921875l0 -0.140625q0 -1.78125 0.953125 -2.84375q0.953125 -1.078125 2.609375 -1.078125q1.453125 0 2.328125 0.828125q0.890625 0.828125 0.890625 2.203125l-1.9375 0q-0.015625 -0.59375 -0.375 -0.96875q-0.34375 -0.390625 -0.9375 -0.390625q-0.71875 0 -1.09375 0.53125q-0.359375 0.53125 -0.359375 1.703125l0 0.21875q0 1.203125 0.359375 1.71875q0.359375 0.515625 1.109375 0.515625zm4.0961304 -2.40625q0 -1.15625 0.4375 -2.0625q0.453125 -0.90625 1.28125 -1.390625q0.84375 -0.5 1.9375 -0.5q1.578125 0 2.5625 0.96875q0.984375 0.953125 1.109375 2.59375l0.015625 0.53125q0 1.78125 -1.0 2.859375q-1.0 1.078125 -2.671875 1.078125q-1.671875 0 -2.671875 -1.0625q-1.0 -1.078125 -1.0 -2.921875l0 -0.09375zm2.078125 0.140625q0 1.109375 0.40625 1.6875q0.421875 0.578125 1.1875 0.578125q0.75 0 1.171875 -0.5625q0.421875 -0.578125 0.421875 -1.84375q0 -1.09375 -0.421875 -1.6875q-0.421875 -0.59375 -1.1875 -0.59375q-0.75 0 -1.171875 0.59375q-0.40625 0.59375 -0.40625 1.828125zm8.724579 3.796875l-2.078125 0l0 -11.0l2.078125 0l0 11.0zm1.3702698 -3.9375q0 -1.15625 0.4375 -2.0625q0.453125 -0.90625 1.28125 -1.390625q0.84375 -0.5 1.9375 -0.5q1.578125 0 2.5625 0.96875q0.984375 0.953125 1.109375 2.59375l0.015625 0.53125q0 1.78125 -1.0 2.859375q-1.0 1.078125 -2.671875 1.078125q-1.671875 0 -2.671875 -1.0625q-1.0 -1.078125 -1.0 -2.921875l0 -0.09375zm2.078125 0.140625q0 1.109375 0.40625 1.6875q0.421875 0.578125 1.1875 0.578125q0.75 0 1.171875 -0.5625q0.421875 -0.578125 0.421875 -1.84375q0 -1.09375 -0.421875 -1.6875q-0.421875 -0.59375 -1.1875 -0.59375q-0.75 0 -1.171875 0.59375q-0.40625 0.59375 -0.40625 1.828125zm10.880829 -2.0q-0.421875 -0.0625 -0.734375 -0.0625q-1.171875 0 -1.546875 0.796875l0 5.0625l-2.0625 0l0 -7.75l1.953125 0l0.0625 0.9375q0.609375 -1.078125 1.71875 -1.078125q0.34375 0 0.640625 0.09375l-0.03125 2.0zm3.828888 -3.84375l0 1.890625l1.328125 0l0 1.53125l-1.328125 0l0 3.859375q0 0.421875 0.15625 0.609375q0.171875 0.1875 0.640625 0.1875q0.34375 0 0.609375 -0.046875l0 1.5625q-0.609375 0.1875 -1.25 0.1875q-2.171875 0 -2.21875 -2.1875l0 -4.171875l-1.125 0l0 -1.53125l1.125 0l0 -1.890625l2.0625 0zm6.0459595 9.78125q-1.703125 0 -2.78125 -1.046875q-1.0625 -1.046875 -1.0625 -2.78125l0 -0.203125q0 -1.15625 0.453125 -2.078125q0.453125 -0.921875 1.265625 -1.421875q0.828125 -0.5 1.890625 -0.5q1.59375 0 2.5 1.015625q0.921875 1.0 0.921875 2.828125l0 0.84375l-4.9375 0q0.109375 0.765625 0.609375 1.21875q0.5 0.453125 1.28125 0.453125q1.1875 0 1.859375 -0.859375l1.015625 1.140625q-0.46875 0.65625 -1.265625 1.03125q-0.78125 0.359375 -1.75 0.359375zm-0.234375 -6.359375q-0.625 0 -1.015625 0.421875q-0.375 0.421875 -0.46875 1.1875l2.875 0l0 -0.15625q-0.015625 -0.6875 -0.375 -1.0625q-0.359375 -0.390625 -1.015625 -0.390625zm6.781494 6.21875l-2.078125 0l0 -11.0l2.078125 0l0 11.0zm3.8858948 0l-2.078125 0l0 -11.0l2.078125 0l0 11.0zm5.2609253 0.140625q-1.703125 0 -2.78125 -1.046875q-1.0625 -1.046875 -1.0625 -2.78125l0 -0.203125q0 -1.15625 0.453125 -2.078125q0.453125 -0.921875 1.265625 -1.421875q0.828125 -0.5 1.890625 -0.5q1.59375 0 2.5 1.015625q0.921875 1.0 0.921875 2.828125l0 0.84375l-4.9375 0q0.109375 0.765625 0.609375 1.21875q0.5 0.453125 1.28125 0.453125q1.1875 0 1.859375 -0.859375l1.015625 1.140625q-0.46875 0.65625 -1.265625 1.03125q-0.78125 0.359375 -1.75 0.359375zm-0.234375 -6.359375q-0.625 0 -1.015625 0.421875q-0.375 0.421875 -0.46875 1.1875l2.875 0l0 -0.15625q-0.015625 -0.6875 -0.375 -1.0625q-0.359375 -0.390625 -1.015625 -0.390625zm8.937714 0.421875q-0.421875 -0.0625 -0.734375 -0.0625q-1.171875 0 -1.546875 0.796875l0 5.0625l-2.0625 0l0 -7.75l1.953125 0l0.0625 0.9375q0.609375 -1.078125 1.71875 -1.078125q0.34375 0 0.640625 0.09375l-0.03125 2.0zm5.0177 2.171875l-4.03125 0l0 -1.671875l4.03125 0l0 1.671875zm8.635284 -0.171875q0 1.859375 -0.796875 2.90625q-0.78125 1.03125 -2.203125 1.03125q-1.265625 0 -2.015625 -0.96875l-0.09375 0.828125l-1.859375 0l0 -11.0l2.0625 0l0 3.953125q0.71875 -0.84375 1.890625 -0.84375q1.40625 0 2.203125 1.046875q0.8125 1.046875 0.8125 2.921875l0 0.125zm-2.0625 -0.15625q0 -1.171875 -0.375 -1.703125q-0.375 -0.546875 -1.109375 -0.546875q-0.984375 0 -1.359375 0.8125l0 3.046875q0.375 0.8125 1.375 0.8125q1.0 0 1.3125 -0.984375q0.15625 -0.46875 0.15625 -1.4375zm5.5325317 3.953125l-2.078125 0l0 -11.0l2.078125 0l0 11.0zm6.3390503 -0.78125q-0.765625 0.921875 -2.125 0.921875q-1.25 0 -1.90625 -0.703125q-0.640625 -0.71875 -0.65625 -2.109375l0 -5.078125l2.0625 0l0 5.015625q0 1.203125 1.109375 1.203125q1.046875 0 1.4375 -0.734375l0 -5.484375l2.078125 0l0 7.75l-1.953125 0l-0.046875 -0.78125zm7.1230774 0.921875q-1.703125 0 -2.78125 -1.046875q-1.0625 -1.046875 -1.0625 -2.78125l0 -0.203125q0 -1.15625 0.453125 -2.078125q0.453125 -0.921875 1.265625 -1.421875q0.828125 -0.5 1.890625 -0.5q1.59375 0 2.5 1.015625q0.921875 1.0 0.921875 2.828125l0 0.84375l-4.9375 0q0.109375 0.765625 0.609375 1.21875q0.5 0.453125 1.28125 0.453125q1.1875 0 1.859375 -0.859375l1.015625 1.140625q-0.46875 0.65625 -1.265625 1.03125q-0.78125 0.359375 -1.75 0.359375zm-0.234375 -6.359375q-0.625 0 -1.015625 0.421875q-0.375 0.421875 -0.46875 1.1875l2.875 0l0 -0.15625q-0.015625 -0.6875 -0.375 -1.0625q-0.359375 -0.390625 -1.015625 -0.390625z" fill-rule="nonzero"/><path fill="#00ff00" d="m406.4753 192.15634l4.078125 1.4375l0 2.0l-6.15625 -2.609375l0 -1.6875l6.15625 -2.609375l0 2.0l-4.078125 1.46875zm8.67569 1.890625l1.4375 -5.21875l2.171875 0l-2.609375 7.75l-1.984375 0l-2.609375 -7.75l2.15625 0l1.4375 5.21875zm6.703705 2.53125l-2.078125 0l0 -7.75l2.078125 0l0 7.75zm-2.203125 -9.75q0 -0.46875 0.3125 -0.765625q0.3125 -0.296875 0.84375 -0.296875q0.53125 0 0.84375 0.296875q0.3125 0.296875 0.3125 0.765625q0 0.46875 -0.3125 0.78125q-0.3125 0.296875 -0.84375 0.296875q-0.515625 0 -0.84375 -0.296875q-0.3125 -0.3125 -0.3125 -0.78125zm8.2453 3.953125q-0.421875 -0.0625 -0.734375 -0.0625q-1.171875 0 -1.546875 0.796875l0 5.0625l-2.0625 0l0 -7.75l1.953125 0l0.0625 0.9375q0.609375 -1.078125 1.71875 -1.078125q0.34375 0 0.640625 0.09375l-0.03125 2.0zm3.828888 -3.84375l0 1.890625l1.328125 0l0 1.53125l-1.328125 0l0 3.859375q0 0.421875 0.15625 0.609375q0.171875 0.1875 0.640625 0.1875q0.34375 0 0.609375 -0.046875l0 1.5625q-0.609375 0.1875 -1.25 0.1875q-2.171875 0 -2.21875 -2.1875l0 -4.171875l-1.125 0l0 -1.53125l1.125 0l0 -1.890625l2.0625 0zm7.1240845 8.859375q-0.765625 0.921875 -2.125 0.921875q-1.25 0 -1.90625 -0.703125q-0.640625 -0.71875 -0.65625 -2.109375l0 -5.078125l2.0625 0l0 5.015625q0 1.203125 1.109375 1.203125q1.046875 0 1.4375 -0.734375l0 -5.484375l2.078125 0l0 7.75l-1.953125 0l-0.046875 -0.78125zm8.044952 0.78125q-0.140625 -0.28125 -0.203125 -0.6875q-0.75 0.828125 -1.953125 0.828125q-1.140625 0 -1.890625 -0.65625q-0.75 -0.65625 -0.75 -1.65625q0 -1.234375 0.90625 -1.890625q0.921875 -0.65625 2.640625 -0.671875l0.953125 0l0 -0.4375q0 -0.53125 -0.28125 -0.859375q-0.265625 -0.328125 -0.859375 -0.328125q-0.515625 0 -0.8125 0.25q-0.296875 0.25 -0.296875 0.6875l-2.078125 0q0 -0.671875 0.40625 -1.234375q0.421875 -0.578125 1.171875 -0.90625q0.765625 -0.328125 1.71875 -0.328125q1.421875 0 2.265625 0.71875q0.84375 0.71875 0.84375 2.03125l0 3.34375q0.015625 1.109375 0.3125 1.671875l0 0.125l-2.09375 0zm-1.703125 -1.4375q0.453125 0 0.828125 -0.203125q0.390625 -0.203125 0.578125 -0.546875l0 -1.328125l-0.765625 0q-1.5625 0 -1.65625 1.0625l0 0.125q0 0.390625 0.265625 0.640625q0.265625 0.25 0.75 0.25zm7.2639465 1.4375l-2.078125 0l0 -11.0l2.078125 0l0 11.0zm7.2543945 -7.75l0.0625 0.90625q0.828125 -1.046875 2.21875 -1.046875q1.234375 0 1.828125 0.734375q0.609375 0.71875 0.625 2.15625l0 5.0l-2.0625 0l0 -4.953125q0 -0.65625 -0.296875 -0.953125q-0.28125 -0.296875 -0.953125 -0.296875q-0.875 0 -1.3125 0.75l0 5.453125l-2.0625 0l0 -7.75l1.953125 0zm5.973999 3.8125q0 -1.15625 0.4375 -2.0625q0.453125 -0.90625 1.28125 -1.390625q0.84375 -0.5 1.9375 -0.5q1.578125 0 2.5625 0.96875q0.984375 0.953125 1.109375 2.59375l0.015625 0.53125q0 1.78125 -1.0 2.859375q-1.0 1.078125 -2.671875 1.078125q-1.671875 0 -2.671875 -1.0625q-1.0 -1.078125 -1.0 -2.921875l0 -0.09375zm2.078125 0.140625q0 1.109375 0.40625 1.6875q0.421875 0.578125 1.1875 0.578125q0.75 0 1.171875 -0.5625q0.421875 -0.578125 0.421875 -1.84375q0 -1.09375 -0.421875 -1.6875q-0.421875 -0.59375 -1.1875 -0.59375q-0.75 0 -1.171875 0.59375q-0.40625 0.59375 -0.40625 1.828125zm6.208954 -0.125q0 -1.8125 0.8125 -2.890625q0.8125 -1.078125 2.21875 -1.078125q1.140625 0 1.875 0.84375l0 -3.953125l2.078125 0l0 11.0l-1.875 0l-0.09375 -0.828125q-0.78125 0.96875 -1.984375 0.96875q-1.375 0 -2.203125 -1.078125q-0.828125 -1.078125 -0.828125 -2.984375zm2.078125 0.140625q0 1.09375 0.375 1.671875q0.375 0.578125 1.09375 0.578125q0.96875 0 1.359375 -0.8125l0 -3.046875q-0.390625 -0.8125 -1.34375 -0.8125q-1.484375 0 -1.484375 2.421875zm10.070953 3.921875q-1.703125 0 -2.78125 -1.046875q-1.0625 -1.046875 -1.0625 -2.78125l0 -0.203125q0 -1.15625 0.453125 -2.078125q0.453125 -0.921875 1.265625 -1.421875q0.828125 -0.5 1.890625 -0.5q1.59375 0 2.5 1.015625q0.921875 1.0 0.921875 2.828125l0 0.84375l-4.9375 0q0.109375 0.765625 0.609375 1.21875q0.5 0.453125 1.28125 0.453125q1.1875 0 1.859375 -0.859375l1.015625 1.140625q-0.46875 0.65625 -1.265625 1.03125q-0.78125 0.359375 -1.75 0.359375zm-0.234375 -6.359375q-0.625 0 -1.015625 0.421875q-0.375 0.421875 -0.46875 1.1875l2.875 0l0 -0.15625q-0.015625 -0.6875 -0.375 -1.0625q-0.359375 -0.390625 -1.015625 -0.390625zm8.812714 1.78125l-4.15625 -1.453125l0 -2.0l6.234375 2.609375l0 1.6875l-6.234375 2.625l0 -2.0l4.15625 -1.46875z" fill-rule="nonzero"/><path fill="#b45f06" d="m193.58795 274.1641l80.031494 0l0 64.96036l-12.992401 12.992401l-67.03909 0z" fill-rule="evenodd"/><path fill="#8f4b04" d="m260.62704 352.11685l2.5984802 -10.393921l10.393921 -2.5984802z" fill-rule="evenodd"/><path fill="#000000" fill-opacity="0.0" d="m260.62704 352.11685l2.5984802 -10.393921l10.393921 -2.5984802l-12.992401 12.992401l-67.03909 0l0 -77.95276l80.031494 0l0 64.96036" fill-rule="evenodd"/><path stroke="#f6b26b" stroke-width="4.0" stroke-linejoin="round" stroke-linecap="butt" d="m260.62704 352.11685l2.5984802 -10.393921l10.393921 -2.5984802l-12.992401 12.992401l-67.03909 0l0 -77.95276l80.031494 0l0 64.96036" fill-rule="evenodd"/><path fill="#f6b26b" d="m211.33296 307.3024l4.078125 1.4375l0 2.0l-6.15625 -2.609375l0 -1.6875l6.15625 -2.609375l0 2.0l-4.078125 1.46875zm10.128815 -1.375q-0.421875 -0.0625 -0.734375 -0.0625q-1.171875 0 -1.546875 0.796875l0 5.0625l-2.0625 0l0 -7.75l1.953125 0l0.0625 0.9375q0.609375 -1.078125 1.71875 -1.078125q0.34375 0 0.640625 0.09375l-0.03125 2.0zm0.41612244 1.859375q0 -1.15625 0.4375 -2.0625q0.453125 -0.90625 1.28125 -1.390625q0.84375 -0.5 1.9375 -0.5q1.578125 0 2.5625 0.96875q0.984375 0.953125 1.109375 2.59375l0.015625 0.53125q0 1.78125 -1.0 2.859375q-1.0 1.078125 -2.671875 1.078125q-1.671875 0 -2.671875 -1.0625q-1.0 -1.078125 -1.0 -2.921875l0 -0.09375zm2.078125 0.140625q0 1.109375 0.40625 1.6875q0.421875 0.578125 1.1875 0.578125q0.75 0 1.171875 -0.5625q0.421875 -0.578125 0.421875 -1.84375q0 -1.09375 -0.421875 -1.6875q-0.421875 -0.59375 -1.1875 -0.59375q-0.75 0 -1.171875 0.59375q-0.40625 0.59375 -0.40625 1.828125zm11.177704 3.015625q-0.765625 0.921875 -2.125 0.921875q-1.25 0 -1.90625 -0.703125q-0.640625 -0.71875 -0.65625 -2.109375l0 -5.078125l2.0625 0l0 5.015625q0 1.203125 1.109375 1.203125q1.046875 0 1.4375 -0.734375l0 -5.484375l2.078125 0l0 7.75l-1.953125 0l-0.046875 -0.78125zm6.0293274 -8.859375l0 1.890625l1.328125 0l0 1.53125l-1.328125 0l0 3.859375q0 0.421875 0.15625 0.609375q0.171875 0.1875 0.640625 0.1875q0.34375 0 0.609375 -0.046875l0 1.5625q-0.609375 0.1875 -1.25 0.1875q-2.171875 0 -2.21875 -2.1875l0 -4.171875l-1.125 0l0 -1.53125l1.125 0l0 -1.890625l2.0625 0zm6.0459595 9.78125q-1.703125 0 -2.78125 -1.046875q-1.0625 -1.046875 -1.0625 -2.78125l0 -0.203125q0 -1.15625 0.453125 -2.078125q0.453125 -0.921875 1.265625 -1.421875q0.828125 -0.5 1.890625 -0.5q1.59375 0 2.5 1.015625q0.921875 1.0 0.921875 2.828125l0 0.84375l-4.9375 0q0.109375 0.765625 0.609375 1.21875q0.5 0.453125 1.28125 0.453125q1.1875 0 1.859375 -0.859375l1.015625 1.140625q-0.46875 0.65625 -1.265625 1.03125q-0.78125 0.359375 -1.75 0.359375zm-0.234375 -6.359375q-0.625 0 -1.015625 0.421875q-0.375 0.421875 -0.46875 1.1875l2.875 0l0 -0.15625q-0.015625 -0.6875 -0.375 -1.0625q-0.359375 -0.390625 -1.015625 -0.390625zm8.812729 1.78125l-4.15625 -1.453125l0 -2.0l6.2343597 2.609375l0 1.6875l-6.2343597 2.625l0 -2.0l4.15625 -1.46875z" fill-rule="nonzero"/><path fill="#000000" fill-opacity="0.0" d="m233.61124 252.2515l0 21.921265" fill-rule="evenodd"/><path stroke="#f6b26b" stroke-width="3.0" stroke-linejoin="round" stroke-linecap="butt" d="m233.61124 252.2515l0 21.921265" fill-rule="evenodd"/><path fill="#000000" fill-opacity="0.0" d="m304.24115 221.13339c19.238525 0 28.858948 -9.661423 38.47708 -19.322845c9.618103 -9.661407 19.233887 -19.32283 38.467804 -19.32283" fill-rule="evenodd"/><path stroke="#6fa8dc" stroke-width="3.0" stroke-linejoin="round" stroke-linecap="butt" d="m304.24115 221.13339c19.238556 0 28.858948 -9.661423 38.47708 -19.322845c4.8090515 -4.8307037 9.617523 -9.661407 15.627991 -13.284439c1.5026245 -0.9057617 3.0803223 -1.7360382 4.7519836 -2.4719696l0.40994263 -0.17631531" fill-rule="evenodd"/><path fill="#6fa8dc" stroke="#6fa8dc" stroke-width="3.0" stroke-linecap="butt" d="m364.4414 190.74435l12.437408 -7.4306335l-14.303925 -2.302414z" fill-rule="evenodd"/><path fill="#000000" fill-opacity="0.0" d="m304.24115 221.13339c19.238525 0 28.858948 11.606293 38.47708 23.212585c9.618103 11.606308 19.233887 23.212616 38.467804 23.212616" fill-rule="evenodd"/><path stroke="#6fa8dc" stroke-width="3.0" stroke-linejoin="round" stroke-linecap="butt" d="m304.24115 221.13339c19.238556 0 28.858948 11.606293 38.47708 23.212585c4.8090515 5.8031616 9.617523 11.606308 15.627991 15.958679c1.5026245 1.0880737 3.0803223 2.0855103 4.7519836 2.969574l0.5392151 0.27859497" fill-rule="evenodd"/><path fill="#6fa8dc" stroke="#6fa8dc" stroke-width="3.0" stroke-linecap="butt" d="m362.53467 268.38376l14.375641 -1.801178l-12.170166 -7.860718z" fill-rule="evenodd"/><path fill="#000000" fill-opacity="0.0" d="m236.37506 101.8826l95.93701 0l0 20.88189l-95.93701 0z" fill-rule="evenodd"/><path fill="#6fa8dc" d="m253.14069 113.60667q0 1.78125 -0.8125 2.859375q-0.8125 1.078125 -2.1875 1.078125q-1.1875 0 -1.90625 -0.8125l0 3.65625l-2.0625 0l0 -10.734375l1.921875 0l0.0625 0.765625q0.75 -0.90625 1.96875 -0.90625q1.421875 0 2.21875 1.0625q0.796875 1.0625 0.796875 2.921875l0 0.109375zm-2.0625 -0.15625q0 -1.078125 -0.390625 -1.65625q-0.375 -0.59375 -1.109375 -0.59375q-0.96875 0 -1.34375 0.75l0 3.15625q0.375 0.765625 1.359375 0.765625q1.484375 0 1.484375 -2.421875zm7.6887817 -1.84375q-0.421875 -0.0625 -0.734375 -0.0625q-1.171875 0 -1.546875 0.796875l0 5.0625l-2.0624847 0l0 -7.75l1.9531097 0l0.0625 0.9375q0.609375 -1.078125 1.71875 -1.078125q0.34375 0 0.640625 0.09375l-0.03125 2.0zm0.4161377 1.859375q0 -1.15625 0.4375 -2.0625q0.453125 -0.90625 1.28125 -1.390625q0.84375 -0.5 1.9375 -0.5q1.578125 0 2.5625 0.96875q0.984375 0.953125 1.109375 2.59375l0.015625 0.53125q0 1.78125 -1.0 2.859375q-1.0 1.078125 -2.671875 1.078125q-1.671875 0 -2.671875 -1.0625q-1.0 -1.078125 -1.0 -2.921875l0 -0.09375zm2.078125 0.140625q0 1.109375 0.40625 1.6875q0.421875 0.578125 1.1875 0.578125q0.75 0 1.171875 -0.5625q0.421875 -0.578125 0.421875 -1.84375q0 -1.09375 -0.421875 -1.6875q-0.421875 -0.59375 -1.1875 -0.59375q-0.75 0 -1.171875 0.59375q-0.40625 0.59375 -0.40625 1.828125zm9.320282 1.265625l1.4375 -5.21875l2.171875 0l-2.609375 7.75l-1.984375 0l-2.609375 -7.75l2.15625 0l1.4375 5.21875zm6.703705 2.53125l-2.078125 0l0 -7.75l2.078125 0l0 7.75zm-2.203125 -9.75q0 -0.46875 0.3125 -0.765625q0.3125 -0.296875 0.84375 -0.296875q0.53125 0 0.84375 0.296875q0.3125 0.296875 0.3125 0.765625q0 0.46875 -0.3125 0.78125q-0.3125 0.296875 -0.84375 0.296875q-0.515625 0 -0.84375 -0.296875q-0.3125 -0.3125 -0.3125 -0.78125zm3.5734253 5.828125q0 -1.8125 0.8125 -2.890625q0.8125 -1.078125 2.21875 -1.078125q1.140625 0 1.875 0.84375l0 -3.953125l2.078125 0l0 11.0l-1.875 0l-0.09375 -0.828125q-0.78125 0.96875 -1.984375 0.96875q-1.375 0 -2.203125 -1.078125q-0.828125 -1.078125 -0.828125 -2.984375zm2.078125 0.140625q0 1.09375 0.375 1.671875q0.375 0.578125 1.09375 0.578125q0.96875 0 1.359375 -0.8125l0 -3.046875q-0.390625 -0.8125 -1.34375 -0.8125q-1.484375 0 -1.484375 2.421875zm10.070953 3.921875q-1.703125 0 -2.78125 -1.046875q-1.0625 -1.046875 -1.0625 -2.78125l0 -0.203125q0 -1.15625 0.453125 -2.078125q0.453125 -0.921875 1.265625 -1.421875q0.828125 -0.5 1.890625 -0.5q1.59375 0 2.5 1.015625q0.921875 1.0 0.921875 2.828125l0 0.84375l-4.9375 0q0.109375 0.765625 0.609375 1.21875q0.5 0.453125 1.28125 0.453125q1.1875 0 1.859375 -0.859375l1.015625 1.140625q-0.46875 0.65625 -1.265625 1.03125q-0.78125 0.359375 -1.75 0.359375zm-0.234375 -6.359375q-0.625 0 -1.015625 0.421875q-0.375 0.421875 -0.46875 1.1875l2.875 0l0 -0.15625q-0.015625 -0.6875 -0.375 -1.0625q-0.359375 -0.390625 -1.015625 -0.390625zm8.937714 0.421875q-0.421875 -0.0625 -0.734375 -0.0625q-1.171875 0 -1.546875 0.796875l0 5.0625l-2.0625 0l0 -7.75l1.953125 0l0.0625 0.9375q0.609375 -1.078125 1.71875 -1.078125q0.34375 0 0.640625 0.09375l-0.03125 2.0z" fill-rule="nonzero"/></g></svg>