<svg version="1.1" viewBox="0.0 0.0 959.6902887139107 445.93438320209975" fill="none" stroke="none" stroke-linecap="square" stroke-miterlimit="10" xmlns:xlink="http://www.w3.org/1999/xlink" xmlns="http://www.w3.org/2000/svg"><clipPath id="p.0"><path d="m0 0l959.6903 0l0 445.9344l-959.6903 0l0 -445.9344z" clip-rule="nonzero"/></clipPath><g clip-path="url(#p.0)"><path fill="#ffffff" d="m0 0l959.6903 0l0 445.9344l-959.6903 0z" fill-rule="evenodd"/><path fill="#f3f3f3" d="m269.2152 72.577835l0 0c0 -11.856228 9.611389 -21.467598 21.46762 -21.467598l378.32462 0c5.6936035 0 11.153931 2.261757 15.179932 6.287712c4.02594 4.025959 6.2876587 9.486328 6.2876587 15.179886l0 237.0648c0 11.856232 -9.611328 21.46759 -21.46759 21.46759l-378.32462 0c-11.856232 0 -21.46762 -9.611359 -21.46762 -21.46759z" fill-rule="evenodd"/><path stroke="#ffffff" stroke-width="1.0" stroke-linejoin="round" stroke-linecap="butt" d="m269.2152 72.577835l0 0c0 -11.856228 9.611389 -21.467598 21.46762 -21.467598l378.32462 0c5.6936035 0 11.153931 2.261757 15.179932 6.287712c4.02594 4.025959 6.2876587 9.486328 6.2876587 15.179886l0 237.0648c0 11.856232 -9.611328 21.46759 -21.46759 21.46759l-378.32462 0c-11.856232 0 -21.46762 -9.611359 -21.46762 -21.46759z" fill-rule="evenodd"/><path fill="#666666" d="m470.81342 76.33726l-3.765625 0l-0.71875 2.140625l-2.28125 0l3.875 -10.421875l2.0 0l3.890625 10.421875l-2.28125 0l-0.71875 -2.140625zm-3.1875 -1.75l2.609375 0l-1.3125 -3.890625l-1.296875 3.890625zm15.283356 0.890625l1.40625 -7.421875l2.140625 0l-2.3125 10.421875l-2.171875 0l-1.6875 -6.96875l-1.703125 6.96875l-2.15625 0l-2.3125 -10.421875l2.140625 0l1.40625 7.40625l1.71875 -7.40625l1.8125 0l1.71875 7.421875zm10.098328 0.265625q0 -0.609375 -0.4375 -0.9375q-0.421875 -0.328125 -1.546875 -0.6875q-1.109375 -0.359375 -1.75 -0.703125q-1.78125 -0.96875 -1.78125 -2.59375q0 -0.84375 0.46875 -1.5q0.484375 -0.65625 1.375 -1.03125q0.890625 -0.375 2.0 -0.375q1.125 0 1.984375 0.40625q0.875 0.40625 1.359375 1.140625q0.484375 0.734375 0.484375 1.671875l-2.140625 0q0 -0.71875 -0.453125 -1.109375q-0.453125 -0.40625 -1.265625 -0.40625q-0.796875 0 -1.234375 0.34375q-0.421875 0.328125 -0.421875 0.875q0 0.5 0.5 0.84375q0.515625 0.34375 1.515625 0.65625q1.828125 0.546875 2.65625 1.359375q0.84375 0.8125 0.84375 2.03125q0 1.359375 -1.03125 2.125q-1.015625 0.765625 -2.75 0.765625q-1.203125 0 -2.1875 -0.4375q-0.984375 -0.4375 -1.5 -1.203125q-0.515625 -0.765625 -0.515625 -1.78125l2.140625 0q0 1.734375 2.0625 1.734375q0.765625 0 1.1875 -0.3125q0.4375 -0.3125 0.4375 -0.875z" fill-rule="nonzero"/><path fill="#000000" fill-opacity="0.0" d="m286.48032 96.5144l385.48032 0l0 217.22833l-385.48032 0z" fill-rule="evenodd"/><path stroke="#6fa8dc" stroke-width="4.0" stroke-linejoin="round" stroke-linecap="butt" stroke-dasharray="16.0,12.0" d="m286.48032 96.5144l385.48032 0l0 217.22833l-385.48032 0z" fill-rule="evenodd"/><path fill="#6fa8dc" d="m452.7773 115.45377l-3.765625 0l-0.71875 2.140625l-2.28125 0l3.875 -10.421875l2.0 0l3.890625 10.421875l-2.28125 0l-0.71875 -2.140625zm-3.1875 -1.75l2.609375 0l-1.3125 -3.890625l-1.296875 3.890625zm14.002106 0.09375q0 1.78125 -0.8125 2.859375q-0.8125 1.078125 -2.1875 1.078125q-1.1875 0 -1.90625 -0.8125l0 3.65625l-2.0625 0l0 -10.734375l1.921875 0l0.0625 0.765625q0.75 -0.90625 1.96875 -0.90625q1.421875 0 2.21875 1.0625q0.796875 1.0625 0.796875 2.921875l0 0.109375zm-2.0625 -0.15625q0 -1.078125 -0.390625 -1.65625q-0.375 -0.59375 -1.109375 -0.59375q-0.96875 0 -1.34375 0.75l0 3.15625q0.375 0.765625 1.359375 0.765625q1.484375 0 1.484375 -2.421875zm10.313782 0.15625q0 1.78125 -0.8125 2.859375q-0.8125 1.078125 -2.1875 1.078125q-1.1875 0 -1.90625 -0.8125l0 3.65625l-2.0625 0l0 -10.734375l1.921875 0l0.0625 0.765625q0.75 -0.90625 1.96875 -0.90625q1.421875 0 2.21875 1.0625q0.796875 1.0625 0.796875 2.921875l0 0.109375zm-2.0625 -0.15625q0 -1.078125 -0.390625 -1.65625q-0.375 -0.59375 -1.109375 -0.59375q-0.96875 0 -1.34375 0.75l0 3.15625q0.375 0.765625 1.359375 0.765625q1.484375 0 1.484375 -2.421875zm9.932312 -6.46875l2.671875 7.5625l2.671875 -7.5625l2.8125 0l0 10.421875l-2.15625 0l0 -2.84375l0.21875 -4.921875l-2.8125 7.765625l-1.46875 0l-2.8125 -7.75l0.21875 4.90625l0 2.84375l-2.140625 0l0 -10.421875l2.796875 0zm13.4635315 10.5625q-1.703125 0 -2.78125 -1.046875q-1.0625 -1.046875 -1.0625 -2.78125l0 -0.203125q0 -1.15625 0.453125 -2.078125q0.453125 -0.921875 1.265625 -1.421875q0.828125 -0.5 1.890625 -0.5q1.59375 0 2.5 1.015625q0.921875 1.0 0.921875 2.828125l0 0.84375l-4.9375 0q0.109375 0.765625 0.609375 1.21875q0.5 0.453125 1.28125 0.453125q1.1875 0 1.859375 -0.859375l1.015625 1.140625q-0.46875 0.65625 -1.265625 1.03125q-0.78125 0.359375 -1.75 0.359375zm-0.234375 -6.359375q-0.625 0 -1.015625 0.421875q-0.375 0.421875 -0.46875 1.1875l2.875 0l0 -0.15625q-0.015625 -0.6875 -0.375 -1.0625q-0.359375 -0.390625 -1.015625 -0.390625zm8.781464 4.078125q0 -0.375 -0.375 -0.59375q-0.375 -0.21875 -1.203125 -0.390625q-2.765625 -0.578125 -2.765625 -2.34375q0 -1.03125 0.859375 -1.71875q0.859375 -0.703125 2.234375 -0.703125q1.46875 0 2.359375 0.703125q0.890625 0.6875 0.890625 1.796875l-2.078125 0q0 -0.4375 -0.28125 -0.71875q-0.28125 -0.296875 -0.890625 -0.296875q-0.53125 0 -0.8125 0.234375q-0.28125 0.234375 -0.28125 0.59375q0 0.34375 0.3125 0.5625q0.328125 0.203125 1.09375 0.359375q0.78125 0.15625 1.3125 0.34375q1.640625 0.609375 1.640625 2.09375q0 1.046875 -0.90625 1.703125q-0.90625 0.65625 -2.34375 0.65625q-0.984375 0 -1.734375 -0.34375q-0.75 -0.34375 -1.1875 -0.953125q-0.421875 -0.609375 -0.421875 -1.3125l1.953125 0q0.03125 0.5625 0.40625 0.859375q0.390625 0.28125 1.015625 0.28125q0.59375 0 0.890625 -0.21875q0.3125 -0.234375 0.3125 -0.59375zm5.3638 -4.765625q0.828125 -0.984375 2.0625 -0.984375q2.53125 0 2.5625 2.9375l0 4.953125l-2.0625 0l0 -4.90625q0 -0.65625 -0.296875 -0.96875q-0.28125 -0.328125 -0.953125 -0.328125q-0.90625 0 -1.3125 0.703125l0 5.5l-2.0625 0l0 -11.0l2.0625 0l0 4.09375z" fill-rule="nonzero"/><path fill="#6fa8dc" d="m329.5246 191.55664l0 0c0 -5.9230347 4.8015747 -10.724625 10.724609 -10.724625l97.13342 0c2.8443604 0 5.5722046 1.1299133 7.5834656 3.1411743c2.011261 2.011261 3.1411743 4.739105 3.1411743 7.5834503l0 42.897217c0 5.92305 -4.8015747 10.724625 -10.72464 10.724625l-97.13342 0c-5.9230347 0 -10.724609 -4.8015747 -10.724609 -10.724625z" fill-rule="evenodd"/><path fill="#ffffff" d="m348.5658 207.554q0.578125 0 0.921875 -0.3125q0.359375 -0.3125 0.375 -0.828125l1.9375 0q0 0.78125 -0.421875 1.4375q-0.421875 0.65625 -1.15625 1.015625q-0.734375 0.359375 -1.625 0.359375q-1.65625 0 -2.625 -1.046875q-0.953125 -1.0625 -0.953125 -2.921875l0 -0.140625q0 -1.78125 0.953125 -2.84375q0.953125 -1.078125 2.609375 -1.078125q1.453125 0 2.328125 0.828125q0.890625 0.828125 0.890625 2.203125l-1.9375 0q-0.015625 -0.59375 -0.375 -0.96875q-0.34375 -0.390625 -0.9375 -0.390625q-0.71875 0 -1.09375 0.53125q-0.359375 0.53125 -0.359375 1.703125l0 0.21875q0 1.203125 0.359375 1.71875q0.359375 0.515625 1.109375 0.515625zm4.0961304 -2.40625q0 -1.15625 0.4375 -2.0625q0.453125 -0.90625 1.28125 -1.390625q0.84375 -0.5 1.9375 -0.5q1.578125 0 2.5625 0.96875q0.984375 0.953125 1.109375 2.59375l0.015625 0.53125q0 1.78125 -1.0 2.859375q-1.0 1.078125 -2.671875 1.078125q-1.671875 0 -2.671875 -1.0625q-1.0 -1.078125 -1.0 -2.921875l0 -0.09375zm2.078125 0.140625q0 1.109375 0.40625 1.6875q0.421875 0.578125 1.1875 0.578125q0.75 0 1.171875 -0.5625q0.421875 -0.578125 0.421875 -1.84375q0 -1.09375 -0.421875 -1.6875q-0.421875 -0.59375 -1.1875 -0.59375q-0.75 0 -1.171875 0.59375q-0.40625 0.59375 -0.40625 1.828125zm8.724579 3.796875l-2.078125 0l0 -11.0l2.078125 0l0 11.0zm1.3703003 -3.9375q0 -1.15625 0.4375 -2.0625q0.453125 -0.90625 1.28125 -1.390625q0.84375 -0.5 1.9375 -0.5q1.578125 0 2.5625 0.96875q0.984375 0.953125 1.109375 2.59375l0.015625 0.53125q0 1.78125 -1.0 2.859375q-1.0 1.078125 -2.671875 1.078125q-1.671875 0 -2.671875 -1.0625q-1.0 -1.078125 -1.0 -2.921875l0 -0.09375zm2.078125 0.140625q0 1.109375 0.40625 1.6875q0.421875 0.578125 1.1875 0.578125q0.75 0 1.171875 -0.5625q0.421875 -0.578125 0.421875 -1.84375q0 -1.09375 -0.421875 -1.6875q-0.421875 -0.59375 -1.1875 -0.59375q-0.75 0 -1.171875 0.59375q-0.40625 0.59375 -0.40625 1.828125zm10.880829 -2.0q-0.421875 -0.0625 -0.734375 -0.0625q-1.171875 0 -1.546875 0.796875l0 5.0625l-2.0625 0l0 -7.75l1.953125 0l0.0625 0.9375q0.609375 -1.078125 1.71875 -1.078125q0.34375 0 0.640625 0.09375l-0.03125 2.0zm0.7051697 1.875q0 -1.78125 0.84375 -2.875q0.84375 -1.09375 2.28125 -1.09375q1.28125 0 1.984375 0.875l0.09375 -0.734375l1.875 0l0 7.5q0 1.015625 -0.46875 1.765625q-0.46875 0.75 -1.3125 1.140625q-0.828125 0.390625 -1.953125 0.390625q-0.84375 0 -1.65625 -0.34375q-0.8125 -0.328125 -1.21875 -0.875l0.90625 -1.25q0.78125 0.859375 1.875 0.859375q0.828125 0 1.28125 -0.4375q0.46875 -0.4375 0.46875 -1.25l0 -0.421875q-0.71875 0.8125 -1.890625 0.8125q-1.390625 0 -2.25 -1.09375q-0.859375 -1.09375 -0.859375 -2.890625l0 -0.078125zm2.0625 0.140625q0 1.046875 0.421875 1.65625q0.421875 0.59375 1.15625 0.59375q0.953125 0 1.359375 -0.703125l0 -3.265625q-0.421875 -0.703125 -1.34375 -0.703125q-0.75 0 -1.171875 0.609375q-0.421875 0.609375 -0.421875 1.8125zm11.084564 3.78125q-0.140625 -0.28125 -0.203125 -0.6875q-0.75 0.828125 -1.953125 0.828125q-1.140625 0 -1.890625 -0.65625q-0.75 -0.65625 -0.75 -1.65625q0 -1.234375 0.90625 -1.890625q0.921875 -0.65625 2.640625 -0.671875l0.953125 0l0 -0.4375q0 -0.53125 -0.28125 -0.859375q-0.265625 -0.328125 -0.859375 -0.328125q-0.515625 0 -0.8125 0.25q-0.296875 0.25 -0.296875 0.6875l-2.078125 0q0 -0.671875 0.40625 -1.234375q0.421875 -0.578125 1.171875 -0.90625q0.765625 -0.328125 1.71875 -0.328125q1.421875 0 2.265625 0.71875q0.84375 0.71875 0.84375 2.03125l0 3.34375q0.015625 1.109375 0.3125 1.671875l0 0.125l-2.09375 0zm-1.703125 -1.4375q0.453125 0 0.828125 -0.203125q0.390625 -0.203125 0.578125 -0.546875l0 -1.328125l-0.765625 0q-1.5625 0 -1.65625 1.0625l0 0.125q0 0.390625 0.265625 0.640625q0.265625 0.25 0.75 0.25zm7.5451965 -8.203125l0 1.890625l1.328125 0l0 1.53125l-1.328125 0l0 3.859375q0 0.421875 0.15625 0.609375q0.171875 0.1875 0.640625 0.1875q0.34375 0 0.609375 -0.046875l0 1.5625q-0.609375 0.1875 -1.25 0.1875q-2.171875 0 -2.21875 -2.1875l0 -4.171875l-1.125 0l0 -1.53125l1.125 0l0 -1.890625l2.0625 0zm6.0459595 9.78125q-1.703125 0 -2.78125 -1.046875q-1.0625 -1.046875 -1.0625 -2.78125l0 -0.203125q0 -1.15625 0.453125 -2.078125q0.453125 -0.921875 1.265625 -1.421875q0.828125 -0.5 1.890625 -0.5q1.59375 0 2.5 1.015625q0.921875 1.0 0.921875 2.828125l0 0.84375l-4.9375 0q0.109375 0.765625 0.609375 1.21875q0.5 0.453125 1.28125 0.453125q1.1875 0 1.859375 -0.859375l1.015625 1.140625q-0.46875 0.65625 -1.265625 1.03125q-0.78125 0.359375 -1.75 0.359375zm-0.234375 -6.359375q-0.625 0 -1.015625 0.421875q-0.375 0.421875 -0.46875 1.1875l2.875 0l0 -0.15625q-0.015625 -0.6875 -0.375 -1.0625q-0.359375 -0.390625 -1.015625 -0.390625zm11.328339 3.40625l1.015625 -4.9375l2.0 0l-1.984375 7.75l-1.734375 0l-1.453125 -4.875l-1.46875 4.875l-1.734375 0l-1.96875 -7.75l2.0 0l1.0 4.9375l1.421875 -4.9375l1.5 0l1.40625 4.9375zm8.520355 2.8125q-0.140625 -0.28125 -0.203125 -0.6875q-0.75 0.828125 -1.953125 0.828125q-1.140625 0 -1.890625 -0.65625q-0.75 -0.65625 -0.75 -1.65625q0 -1.234375 0.90625 -1.890625q0.921875 -0.65625 2.640625 -0.671875l0.953125 0l0 -0.4375q0 -0.53125 -0.28125 -0.859375q-0.265625 -0.328125 -0.859375 -0.328125q-0.515625 0 -0.8125 0.25q-0.296875 0.25 -0.296875 0.6875l-2.078125 0q0 -0.671875 0.40625 -1.234375q0.421875 -0.578125 1.171875 -0.90625q0.765625 -0.328125 1.71875 -0.328125q1.421875 0 2.265625 0.71875q0.84375 0.71875 0.84375 2.03125l0 3.34375q0.015625 1.109375 0.3125 1.671875l0 0.125l-2.09375 0zm-1.703125 -1.4375q0.453125 0 0.828125 -0.203125q0.390625 -0.203125 0.578125 -0.546875l0 -1.328125l-0.765625 0q-1.5625 0 -1.65625 1.0625l0 0.125q0 0.390625 0.265625 0.640625q0.265625 0.25 0.75 0.25zm7.9670715 -1.484375l1.421875 -4.828125l2.21875 0l-3.109375 8.953125l-0.171875 0.40625q-0.6875 1.515625 -2.28125 1.515625q-0.453125 0 -0.921875 -0.140625l0 -1.5625l0.3125 0.015625q0.59375 0 0.875 -0.1875q0.296875 -0.171875 0.453125 -0.59375l0.25 -0.640625l-2.71875 -7.765625l2.234375 0l1.4375 4.828125z" fill-rule="nonzero"/><path fill="#00ffff" d="m370.80728 227.97588l-1.546875 0l3.84375 -11.3125l1.53125 0l-3.828125 11.3125zm8.03714 -2.421875q0.578125 0 0.921875 -0.3125q0.359375 -0.3125 0.375 -0.828125l1.9375 0q0 0.78125 -0.421875 1.4375q-0.421875 0.65625 -1.15625 1.015625q-0.734375 0.359375 -1.625 0.359375q-1.65625 0 -2.625 -1.046875q-0.953125 -1.0625 -0.953125 -2.921875l0 -0.140625q0 -1.78125 0.953125 -2.84375q0.953125 -1.078125 2.609375 -1.078125q1.453125 0 2.328125 0.828125q0.890625 0.828125 0.890625 2.203125l-1.9375 0q-0.015625 -0.59375 -0.375 -0.96875q-0.34375 -0.390625 -0.9375 -0.390625q-0.71875 0 -1.09375 0.53125q-0.359375 0.53125 -0.359375 1.703125l0 0.21875q0 1.203125 0.359375 1.71875q0.359375 0.515625 1.109375 0.515625zm4.0961304 -2.40625q0 -1.15625 0.4375 -2.0625q0.453125 -0.90625 1.28125 -1.390625q0.84375 -0.5 1.9375 -0.5q1.578125 0 2.5625 0.96875q0.984375 0.953125 1.109375 2.59375l0.015625 0.53125q0 1.78125 -1.0 2.859375q-1.0 1.078125 -2.671875 1.078125q-1.671875 0 -2.671875 -1.0625q-1.0 -1.078125 -1.0 -2.921875l0 -0.09375zm2.078125 0.140625q0 1.109375 0.40625 1.6875q0.421875 0.578125 1.1875 0.578125q0.75 0 1.171875 -0.5625q0.421875 -0.578125 0.421875 -1.84375q0 -1.09375 -0.421875 -1.6875q-0.421875 -0.59375 -1.1875 -0.59375q-0.75 0 -1.171875 0.59375q-0.40625 0.59375 -0.40625 1.828125zm8.724579 3.796875l-2.078125 0l0 -11.0l2.078125 0l0 11.0zm1.3702698 -3.9375q0 -1.15625 0.4375 -2.0625q0.453125 -0.90625 1.28125 -1.390625q0.84375 -0.5 1.9375 -0.5q1.578125 0 2.5625 0.96875q0.984375 0.953125 1.109375 2.59375l0.015625 0.53125q0 1.78125 -1.0 2.859375q-1.0 1.078125 -2.671875 1.078125q-1.671875 0 -2.671875 -1.0625q-1.0 -1.078125 -1.0 -2.921875l0 -0.09375zm2.078125 0.140625q0 1.109375 0.40625 1.6875q0.421875 0.578125 1.1875 0.578125q0.75 0 1.171875 -0.5625q0.421875 -0.578125 0.421875 -1.84375q0 -1.09375 -0.421875 -1.6875q-0.421875 -0.59375 -1.1875 -0.59375q-0.75 0 -1.171875 0.59375q-0.40625 0.59375 -0.40625 1.828125zm10.880829 -2.0q-0.421875 -0.0625 -0.734375 -0.0625q-1.171875 0 -1.546875 0.796875l0 5.0625l-2.0625 0l0 -7.75l1.953125 0l0.0625 0.9375q0.609375 -1.078125 1.71875 -1.078125q0.34375 0 0.640625 0.09375l-0.03125 2.0z" fill-rule="nonzero"/><path fill="#6fa8dc" d="m511.5797 191.55664l0 0c0 -5.9230347 4.8015747 -10.724625 10.724609 -10.724625l97.13342 0c2.8443604 0 5.5722046 1.1299133 7.583435 3.1411743c2.0112915 2.011261 3.1411743 4.739105 3.1411743 7.5834503l0 42.897217c0 5.92305 -4.8015747 10.724625 -10.724609 10.724625l-97.13342 0c-5.9230347 0 -10.724609 -4.8015747 -10.724609 -10.724625z" fill-rule="evenodd"/><path fill="#ffffff" d="m541.2052 207.554q0.578125 0 0.921875 -0.3125q0.359375 -0.3125 0.375 -0.828125l1.9375 0q0 0.78125 -0.421875 1.4375q-0.421875 0.65625 -1.15625 1.015625q-0.734375 0.359375 -1.625 0.359375q-1.65625 0 -2.625 -1.046875q-0.953125 -1.0625 -0.953125 -2.921875l0 -0.140625q0 -1.78125 0.953125 -2.84375q0.953125 -1.078125 2.609375 -1.078125q1.453125 0 2.328125 0.828125q0.890625 0.828125 0.890625 2.203125l-1.9375 0q-0.015625 -0.59375 -0.375 -0.96875q-0.34375 -0.390625 -0.9375 -0.390625q-0.71875 0 -1.09375 0.53125q-0.359375 0.53125 -0.359375 1.703125l0 0.21875q0 1.203125 0.359375 1.71875q0.359375 0.515625 1.109375 0.515625zm4.0961304 -2.40625q0 -1.15625 0.4375 -2.0625q0.453125 -0.90625 1.28125 -1.390625q0.84375 -0.5 1.9375 -0.5q1.578125 0 2.5625 0.96875q0.984375 0.953125 1.109375 2.59375l0.015625 0.53125q0 1.78125 -1.0 2.859375q-1.0 1.078125 -2.671875 1.078125q-1.671875 0 -2.671875 -1.0625q-1.0 -1.078125 -1.0 -2.921875l0 -0.09375zm2.078125 0.140625q0 1.109375 0.40625 1.6875q0.421875 0.578125 1.1875 0.578125q0.75 0 1.171875 -0.5625q0.421875 -0.578125 0.421875 -1.84375q0 -1.09375 -0.421875 -1.6875q-0.421875 -0.59375 -1.1875 -0.59375q-0.75 0 -1.171875 0.59375q-0.40625 0.59375 -0.40625 1.828125zm8.724548 3.796875l-2.078125 0l0 -11.0l2.078125 0l0 11.0zm1.3703003 -3.9375q0 -1.15625 0.4375 -2.0625q0.453125 -0.90625 1.28125 -1.390625q0.84375 -0.5 1.9375 -0.5q1.578125 0 2.5625 0.96875q0.984375 0.953125 1.109375 2.59375l0.015625 0.53125q0 1.78125 -1.0 2.859375q-1.0 1.078125 -2.671875 1.078125q-1.671875 0 -2.671875 -1.0625q-1.0 -1.078125 -1.0 -2.921875l0 -0.09375zm2.078125 0.140625q0 1.109375 0.40625 1.6875q0.421875 0.578125 1.1875 0.578125q0.75 0 1.171875 -0.5625q0.421875 -0.578125 0.421875 -1.84375q0 -1.09375 -0.421875 -1.6875q-0.421875 -0.59375 -1.1875 -0.59375q-0.75 0 -1.171875 0.59375q-0.40625 0.59375 -0.40625 1.828125zm10.880859 -2.0q-0.421875 -0.0625 -0.734375 -0.0625q-1.171875 0 -1.546875 0.796875l0 5.0625l-2.0625 0l0 -7.75l1.953125 0l0.0625 0.9375q0.609375 -1.078125 1.71875 -1.078125q0.34375 0 0.640625 0.09375l-0.03125 2.0zm3.4707642 -3.84375l0 1.890625l1.328125 0l0 1.53125l-1.328125 0l0 3.859375q0 0.421875 0.15625 0.609375q0.171875 0.1875 0.640625 0.1875q0.34375 0 0.609375 -0.046875l0 1.5625q-0.609375 0.1875 -1.25 0.1875q-2.171875 0 -2.21875 -2.1875l0 -4.171875l-1.125 0l0 -1.53125l1.125 0l0 -1.890625l2.0625 0zm6.0459595 9.78125q-1.703125 0 -2.78125 -1.046875q-1.0625 -1.046875 -1.0625 -2.78125l0 -0.203125q0 -1.15625 0.453125 -2.078125q0.453125 -0.921875 1.265625 -1.421875q0.828125 -0.5 1.890625 -0.5q1.59375 0 2.5 1.015625q0.921875 1.0 0.921875 2.828125l0 0.84375l-4.9375 0q0.109375 0.765625 0.609375 1.21875q0.5 0.453125 1.28125 0.453125q1.1875 0 1.859375 -0.859375l1.015625 1.140625q-0.46875 0.65625 -1.265625 1.03125q-0.78125 0.359375 -1.75 0.359375zm-0.234375 -6.359375q-0.625 0 -1.015625 0.421875q-0.375 0.421875 -0.46875 1.1875l2.875 0l0 -0.15625q-0.015625 -0.6875 -0.375 -1.0625q-0.359375 -0.390625 -1.015625 -0.390625zm6.781494 6.21875l-2.078125 0l0 -11.0l2.078125 0l0 11.0zm3.8859253 0l-2.078125 0l0 -11.0l2.078125 0l0 11.0zm5.2609253 0.140625q-1.703125 0 -2.78125 -1.046875q-1.0625 -1.046875 -1.0625 -2.78125l0 -0.203125q0 -1.15625 0.453125 -2.078125q0.453125 -0.921875 1.265625 -1.421875q0.828125 -0.5 1.890625 -0.5q1.59375 0 2.5 1.015625q0.921875 1.0 0.921875 2.828125l0 0.84375l-4.9375 0q0.109375 0.765625 0.609375 1.21875q0.5 0.453125 1.28125 0.453125q1.1875 0 1.859375 -0.859375l1.015625 1.140625q-0.46875 0.65625 -1.265625 1.03125q-0.78125 0.359375 -1.75 0.359375zm-0.234375 -6.359375q-0.625 0 -1.015625 0.421875q-0.375 0.421875 -0.46875 1.1875l2.875 0l0 -0.15625q-0.015625 -0.6875 -0.375 -1.0625q-0.359375 -0.390625 -1.015625 -0.390625zm8.937683 0.421875q-0.421875 -0.0625 -0.734375 -0.0625q-1.171875 0 -1.546875 0.796875l0 5.0625l-2.0625 0l0 -7.75l1.953125 0l0.0625 0.9375q0.609375 -1.078125 1.71875 -1.078125q0.34375 0 0.640625 0.09375l-0.03125 2.0z" fill-rule="nonzero"/><path fill="#00ffff" d="m569.58685 227.97588l-1.546875 0l3.84375 -11.3125l1.53125 0l-3.828125 11.3125z" fill-rule="nonzero"/><path fill="#000000" fill-opacity="0.0" d="m448.10727 213.00525c15.868042 0 23.803009 0.01574707 31.736084 0.03149414c7.933075 0.01574707 15.864227 0.03149414 31.728485 0.03149414" fill-rule="evenodd"/><path stroke="#6fa8dc" stroke-width="3.0" stroke-linejoin="round" stroke-linecap="butt" d="m448.10724 213.00525c15.8680725 0 23.80304 0.01574707 31.736115 0.03149414c3.9665222 0.007873535 7.932556 0.01574707 12.890045 0.021652222l0.8384094 7.171631E-4" fill-rule="evenodd"/><path fill="#6fa8dc" stroke="#6fa8dc" stroke-width="3.0" stroke-linecap="butt" d="m493.5693 218.01431l13.616791 -4.948288l-13.611786 -4.962097z" fill-rule="evenodd"/><path fill="#000000" fill-opacity="0.0" d="m7.9553804 374.34647l943.77954 0l0 35.527557l-943.77954 0z" fill-rule="evenodd"/><path stroke="#ffffff" stroke-width="1.0" stroke-linejoin="round" stroke-linecap="butt" d="m7.9553804 374.34647l943.77954 0l0 35.527557l-943.77954 0z" fill-rule="evenodd"/><path fill="#666666" d="m215.13333 399.03024l2.796875 -13.359375l9.34375 0l-0.484375 2.234375l-6.59375 0l-0.671875 3.203125l6.46875 0l-0.46875 2.234375l-6.453125 0l-1.1875 5.6875l-2.75 0zm14.192856 -13.359375l2.625 0l-0.5 2.375l-2.609375 0l0.484375 -2.375zm-0.765625 3.6875l2.625 0l-2.03125 9.671875l-2.609375 0l2.015625 -9.671875zm3.0270538 10.1875l2.765625 0.390625q0 0.421875 0.125 0.640625q0.140625 0.21875 0.4375 0.359375q0.3125 0.15625 0.84375 0.15625q0.828125 0 1.328125 -0.328125q0.375 -0.265625 0.609375 -0.828125q0.15625 -0.34375 0.375 -1.546875l0.09375 -0.453125q-1.359375 1.125 -2.8125 1.125q-1.421875 0 -2.328125 -1.0q-0.90625 -1.0 -0.90625 -2.9375q0 -1.703125 0.609375 -3.109375q0.625 -1.421875 1.75 -2.15625q1.125 -0.734375 2.28125 -0.734375q0.96875 0 1.765625 0.515625q0.8125 0.515625 1.25 1.421875l0.375 -1.703125l2.4375 0l-1.671875 8.0625q-0.40625 1.9375 -0.6875 2.765625q-0.28125 0.828125 -0.65625 1.3125q-0.359375 0.5 -0.921875 0.828125q-0.546875 0.34375 -1.3125 0.484375q-0.75 0.140625 -1.625 0.140625q-2.0625 0 -3.109375 -0.703125q-1.046875 -0.703125 -1.046875 -2.328125q0 -0.171875 0.03125 -0.375zm3.078125 -4.671875q0 1.09375 0.5 1.671875q0.5 0.578125 1.234375 0.578125q0.6875 0 1.328125 -0.515625q0.640625 -0.515625 0.984375 -1.46875q0.34375 -0.96875 0.34375 -1.859375q0 -1.03125 -0.5625 -1.65625q-0.546875 -0.625 -1.28125 -0.625q-0.703125 0 -1.296875 0.5625q-0.578125 0.546875 -0.953125 1.703125q-0.296875 0.890625 -0.296875 1.609375zm10.458481 -5.515625l2.609375 0l-1.1875 5.734375q-0.21875 1.015625 -0.21875 1.28125q0 0.421875 0.3125 0.71875q0.3125 0.296875 0.796875 0.296875q0.34375 0 0.671875 -0.125q0.34375 -0.140625 0.6875 -0.40625q0.359375 -0.265625 0.640625 -0.609375q0.28125 -0.359375 0.53125 -0.921875q0.171875 -0.421875 0.375 -1.359375l0.96875 -4.609375l2.609375 0l-2.015625 9.671875l-2.4375 0l0.265625 -1.3125q-1.609375 1.546875 -3.484375 1.546875q-1.203125 0 -1.890625 -0.6875q-0.671875 -0.6875 -0.671875 -1.828125q0 -0.5 0.3125 -2.0l1.125 -5.390625zm11.270981 0l2.4375 0l-0.390625 1.875q1.375 -2.109375 2.96875 -2.109375q0.5625 0 1.203125 0.28125l-1.0 2.140625q-0.359375 -0.125 -0.75 -0.125q-0.6875 0 -1.390625 0.515625q-0.6875 0.5 -1.078125 1.359375q-0.390625 0.859375 -0.765625 2.703125l-0.640625 3.03125l-2.625 0l2.03125 -9.671875zm14.807129 5.640625l-6.5625 0q-0.015625 0.15625 -0.015625 0.234375q0 0.96875 0.546875 1.5625q0.5625 0.59375 1.359375 0.59375q1.296875 0 2.03125 -1.34375l2.328125 0.390625q-0.671875 1.40625 -1.828125 2.125q-1.140625 0.703125 -2.5625 0.703125q-1.9375 0 -3.171875 -1.234375q-1.21875 -1.234375 -1.21875 -3.265625q0 -2.0 1.109375 -3.546875q1.5 -2.09375 4.296875 -2.09375q1.765625 0 2.8125 1.109375q1.046875 1.09375 1.046875 3.0625q0 0.953125 -0.171875 1.703125zm-2.203125 -1.59375q0 -0.171875 0 -0.265625q0 -1.0625 -0.484375 -1.59375q-0.484375 -0.546875 -1.296875 -0.546875q-0.796875 0 -1.453125 0.609375q-0.640625 0.609375 -0.859375 1.796875l4.09375 0zm9.809021 -2.046875l0.484375 -2.328125q3.375 -1.484375 5.234375 -3.4375l1.59375 0l-2.8125 13.4375l-2.640625 0l1.9375 -9.25q-0.8125 0.515625 -1.890625 0.953125q-1.0625 0.4375 -1.90625 0.625zm9.500732 5.15625l2.59375 0l-0.53125 2.515625l-2.59375 0l0.53125 -2.515625z" fill-rule="nonzero"/><path fill="#666666" d="m302.17557 399.03024l0 -11.78125l-4.40625 0l0 -1.578125l10.578125 0l0 1.578125l-4.40625 0l0 11.78125l-1.765625 0zm7.7865906 0l0 -13.359375l1.640625 0l0 4.796875q1.140625 -1.328125 2.890625 -1.328125q1.078125 0 1.859375 0.421875q0.796875 0.421875 1.140625 1.171875q0.34375 0.75 0.34375 2.171875l0 6.125l-1.640625 0l0 -6.125q0 -1.234375 -0.53125 -1.796875q-0.53125 -0.5625 -1.515625 -0.5625q-0.71875 0 -1.359375 0.390625q-0.640625 0.375 -0.921875 1.015625q-0.265625 0.640625 -0.265625 1.78125l0 5.296875l-1.640625 0zm17.000732 -3.109375l1.6875 0.203125q-0.40625 1.484375 -1.484375 2.3125q-1.078125 0.8125 -2.765625 0.8125q-2.125 0 -3.375 -1.296875q-1.234375 -1.3125 -1.234375 -3.671875q0 -2.453125 1.25 -3.796875q1.265625 -1.34375 3.265625 -1.34375q1.9375 0 3.15625 1.328125q1.234375 1.3125 1.234375 3.703125q0 0.15625 0 0.4375l-7.21875 0q0.09375 1.59375 0.90625 2.453125q0.8125 0.84375 2.015625 0.84375q0.90625 0 1.546875 -0.46875q0.640625 -0.484375 1.015625 -1.515625zm-5.390625 -2.65625l5.40625 0q-0.109375 -1.21875 -0.625 -1.828125q-0.78125 -0.953125 -2.03125 -0.953125q-1.125 0 -1.90625 0.765625q-0.765625 0.75 -0.84375 2.015625zm24.059021 1.078125l1.765625 0.453125q-0.5625 2.171875 -2.0 3.328125q-1.4375 1.140625 -3.53125 1.140625q-2.15625 0 -3.515625 -0.875q-1.34375 -0.890625 -2.0625 -2.546875q-0.703125 -1.671875 -0.703125 -3.59375q0 -2.078125 0.796875 -3.625q0.796875 -1.5625 2.265625 -2.359375q1.484375 -0.8125 3.25 -0.8125q2.0 0 3.359375 1.015625q1.375 1.015625 1.90625 2.875l-1.734375 0.40625q-0.46875 -1.453125 -1.359375 -2.109375q-0.875 -0.671875 -2.203125 -0.671875q-1.546875 0 -2.578125 0.734375q-1.03125 0.734375 -1.453125 1.984375q-0.421875 1.234375 -0.421875 2.5625q0 1.703125 0.5 2.96875q0.5 1.265625 1.546875 1.90625q1.046875 0.625 2.265625 0.625q1.484375 0 2.515625 -0.859375q1.03125 -0.859375 1.390625 -2.546875zm3.1292114 -0.15625q0 -2.6875 1.484375 -3.96875q1.25 -1.078125 3.046875 -1.078125q2.0 0 3.265625 1.3125q1.265625 1.296875 1.265625 3.609375q0 1.859375 -0.5625 2.9375q-0.5625 1.0625 -1.640625 1.65625q-1.0625 0.59375 -2.328125 0.59375q-2.03125 0 -3.28125 -1.296875q-1.25 -1.3125 -1.25 -3.765625zm1.6875 0q0 1.859375 0.796875 2.796875q0.8125 0.921875 2.046875 0.921875q1.21875 0 2.03125 -0.921875q0.8125 -0.9375 0.8125 -2.84375q0 -1.796875 -0.8125 -2.71875q-0.8125 -0.921875 -2.03125 -0.921875q-1.234375 0 -2.046875 0.921875q-0.796875 0.90625 -0.796875 2.765625zm9.250702 4.84375l0 -13.359375l1.640625 0l0 13.359375l-1.640625 0zm3.582306 -4.84375q0 -2.6875 1.484375 -3.96875q1.25 -1.078125 3.046875 -1.078125q2.0 0 3.265625 1.3125q1.265625 1.296875 1.265625 3.609375q0 1.859375 -0.5625 2.9375q-0.5625 1.0625 -1.640625 1.65625q-1.0625 0.59375 -2.328125 0.59375q-2.03125 0 -3.28125 -1.296875q-1.25 -1.3125 -1.25 -3.765625zm1.6875 0q0 1.859375 0.796875 2.796875q0.8125 0.921875 2.046875 0.921875q1.21875 0 2.03125 -0.921875q0.8125 -0.9375 0.8125 -2.84375q0 -1.796875 -0.8125 -2.71875q-0.8125 -0.921875 -2.03125 -0.921875q-1.234375 0 -2.046875 0.921875q-0.796875 0.90625 -0.796875 2.765625zm9.281982 4.84375l0 -9.671875l1.46875 0l0 1.46875q0.5625 -1.03125 1.03125 -1.359375q0.484375 -0.328125 1.0625 -0.328125q0.828125 0 1.6875 0.53125l-0.5625 1.515625q-0.609375 -0.359375 -1.203125 -0.359375q-0.546875 0 -0.96875 0.328125q-0.421875 0.328125 -0.609375 0.890625q-0.28125 0.875 -0.28125 1.921875l0 5.0625l-1.625 0zm10.145996 0l5.125 -13.359375l1.90625 0l5.46875 13.359375l-2.015625 0l-1.546875 -4.046875l-5.59375 0l-1.46875 4.046875l-1.875 0zm3.859375 -5.484375l4.53125 0l-1.40625 -3.703125q-0.625 -1.6875 -0.9375 -2.765625q-0.265625 1.28125 -0.71875 2.546875l-1.46875 3.921875zm9.8497925 9.1875l0 -13.375l1.484375 0l0 1.25q0.53125 -0.734375 1.1875 -1.09375q0.671875 -0.375 1.625 -0.375q1.234375 0 2.171875 0.640625q0.953125 0.625 1.4375 1.796875q0.484375 1.15625 0.484375 2.546875q0 1.484375 -0.53125 2.671875q-0.53125 1.1875 -1.546875 1.828125q-1.015625 0.625 -2.140625 0.625q-0.8125 0 -1.46875 -0.34375q-0.65625 -0.34375 -1.0625 -0.875l0 4.703125l-1.640625 0zm1.484375 -8.484375q0 1.859375 0.75 2.765625q0.765625 0.890625 1.828125 0.890625q1.09375 0 1.875 -0.921875q0.78125 -0.9375 0.78125 -2.875q0 -1.84375 -0.765625 -2.765625q-0.75 -0.921875 -1.8125 -0.921875q-1.046875 0 -1.859375 0.984375q-0.796875 0.96875 -0.796875 2.84375zm8.891357 8.484375l0 -13.375l1.484375 0l0 1.25q0.53125 -0.734375 1.1875 -1.09375q0.671875 -0.375 1.625 -0.375q1.234375 0 2.171875 0.640625q0.953125 0.625 1.4375 1.796875q0.484375 1.15625 0.484375 2.546875q0 1.484375 -0.53125 2.671875q-0.53125 1.1875 -1.546875 1.828125q-1.015625 0.625 -2.140625 0.625q-0.8125 0 -1.46875 -0.34375q-0.65625 -0.34375 -1.0625 -0.875l0 4.703125l-1.640625 0zm1.484375 -8.484375q0 1.859375 0.75 2.765625q0.765625 0.890625 1.828125 0.890625q1.09375 0 1.875 -0.921875q0.78125 -0.9375 0.78125 -2.875q0 -1.84375 -0.765625 -2.765625q-0.75 -0.921875 -1.8125 -0.921875q-1.046875 0 -1.859375 0.984375q-0.796875 0.96875 -0.796875 2.84375zm20.340271 4.78125l0 -1.21875q-0.90625 1.4375 -2.703125 1.4375q-1.15625 0 -2.125 -0.640625q-0.96875 -0.640625 -1.5 -1.78125q-0.53125 -1.140625 -0.53125 -2.625q0 -1.453125 0.484375 -2.625q0.484375 -1.1875 1.4375 -1.8125q0.96875 -0.625 2.171875 -0.625q0.875 0 1.546875 0.375q0.6875 0.359375 1.109375 0.953125l0 -4.796875l1.640625 0l0 13.359375l-1.53125 0zm-5.171875 -4.828125q0 1.859375 0.78125 2.78125q0.78125 0.921875 1.84375 0.921875q1.078125 0 1.828125 -0.875q0.75 -0.890625 0.75 -2.6875q0 -1.984375 -0.765625 -2.90625q-0.765625 -0.9375 -1.890625 -0.9375q-1.078125 0 -1.8125 0.890625q-0.734375 0.890625 -0.734375 2.8125zm15.906982 1.71875l1.6875 0.203125q-0.40625 1.484375 -1.484375 2.3125q-1.078125 0.8125 -2.765625 0.8125q-2.125 0 -3.375 -1.296875q-1.234375 -1.3125 -1.234375 -3.671875q0 -2.453125 1.25 -3.796875q1.265625 -1.34375 3.265625 -1.34375q1.9375 0 3.15625 1.328125q1.234375 1.3125 1.234375 3.703125q0 0.15625 0 0.4375l-7.21875 0q0.09375 1.59375 0.90625 2.453125q0.8125 0.84375 2.015625 0.84375q0.90625 0 1.546875 -0.46875q0.640625 -0.484375 1.015625 -1.515625zm-5.390625 -2.65625l5.40625 0q-0.109375 -1.21875 -0.625 -1.828125q-0.78125 -0.953125 -2.03125 -0.953125q-1.125 0 -1.90625 0.765625q-0.765625 0.75 -0.84375 2.015625zm9.141327 5.765625l0 -9.671875l1.46875 0l0 1.359375q0.453125 -0.71875 1.203125 -1.140625q0.765625 -0.4375 1.71875 -0.4375q1.078125 0 1.765625 0.453125q0.6875 0.4375 0.96875 1.234375q1.15625 -1.6875 2.984375 -1.6875q1.453125 0 2.21875 0.796875q0.78125 0.796875 0.78125 2.453125l0 6.640625l-1.640625 0l0 -6.09375q0 -0.984375 -0.15625 -1.40625q-0.15625 -0.4375 -0.578125 -0.703125q-0.421875 -0.265625 -0.984375 -0.265625q-1.015625 0 -1.6875 0.6875q-0.671875 0.671875 -0.671875 2.15625l0 5.625l-1.640625 0l0 -6.28125q0 -1.09375 -0.40625 -1.640625q-0.40625 -0.546875 -1.3125 -0.546875q-0.6875 0 -1.28125 0.359375q-0.59375 0.359375 -0.859375 1.0625q-0.25 0.703125 -0.25 2.03125l0 5.015625l-1.640625 0zm14.931427 -4.84375q0 -2.6875 1.484375 -3.96875q1.25 -1.078125 3.046875 -1.078125q2.0 0 3.265625 1.3125q1.265625 1.296875 1.265625 3.609375q0 1.859375 -0.5625 2.9375q-0.5625 1.0625 -1.640625 1.65625q-1.0625 0.59375 -2.328125 0.59375q-2.03125 0 -3.28125 -1.296875q-1.25 -1.3125 -1.25 -3.765625zm1.6875 0q0 1.859375 0.796875 2.796875q0.8125 0.921875 2.046875 0.921875q1.21875 0 2.03125 -0.921875q0.8125 -0.9375 0.8125 -2.84375q0 -1.796875 -0.8125 -2.71875q-0.8125 -0.921875 -2.03125 -0.921875q-1.234375 0 -2.046875 0.921875q-0.796875 0.90625 -0.796875 2.765625zm14.871521 4.84375l0 -8.40625l-1.453125 0l0 -1.265625l1.453125 0l0 -1.03125q0 -0.96875 0.171875 -1.453125q0.234375 -0.640625 0.828125 -1.03125q0.59375 -0.390625 1.671875 -0.390625q0.6875 0 1.53125 0.15625l-0.25 1.4375q-0.5 -0.09375 -0.953125 -0.09375q-0.75 0 -1.0625 0.328125q-0.3125 0.3125 -0.3125 1.1875l0 0.890625l1.890625 0l0 1.265625l-1.890625 0l0 8.40625l-1.625 0zm4.7770386 0l0 -9.671875l1.46875 0l0 1.46875q0.5625 -1.03125 1.03125 -1.359375q0.484375 -0.328125 1.0625 -0.328125q0.828125 0 1.6875 0.53125l-0.5625 1.515625q-0.609375 -0.359375 -1.203125 -0.359375q-0.546875 0 -0.96875 0.328125q-0.421875 0.328125 -0.609375 0.890625q-0.28125 0.875 -0.28125 1.921875l0 5.0625l-1.625 0zm5.6189575 -4.84375q0 -2.6875 1.484375 -3.96875q1.25 -1.078125 3.046875 -1.078125q2.0 0 3.265625 1.3125q1.265625 1.296875 1.265625 3.609375q0 1.859375 -0.5625 2.9375q-0.5625 1.0625 -1.640625 1.65625q-1.0625 0.59375 -2.328125 0.59375q-2.03125 0 -3.28125 -1.296875q-1.25 -1.3125 -1.25 -3.765625zm1.6875 0q0 1.859375 0.796875 2.796875q0.8125 0.921875 2.046875 0.921875q1.21875 0 2.03125 -0.921875q0.8125 -0.9375 0.8125 -2.84375q0 -1.796875 -0.8125 -2.71875q-0.8125 -0.921875 -2.03125 -0.921875q-1.234375 0 -2.046875 0.921875q-0.796875 0.90625 -0.796875 2.765625zm9.297577 4.84375l0 -9.671875l1.46875 0l0 1.359375q0.453125 -0.71875 1.203125 -1.140625q0.765625 -0.4375 1.71875 -0.4375q1.078125 0 1.765625 0.453125q0.6875 0.4375 0.96875 1.234375q1.15625 -1.6875 2.984375 -1.6875q1.453125 0 2.21875 0.796875q0.78125 0.796875 0.78125 2.453125l0 6.640625l-1.640625 0l0 -6.09375q0 -0.984375 -0.15625 -1.40625q-0.15625 -0.4375 -0.578125 -0.703125q-0.421875 -0.265625 -0.984375 -0.265625q-1.015625 0 -1.6875 0.6875q-0.671875 0.671875 -0.671875 2.15625l0 5.625l-1.640625 0l0 -6.28125q0 -1.09375 -0.40625 -1.640625q-0.40625 -0.546875 -1.3125 -0.546875q-0.6875 0 -1.28125 0.359375q-0.59375 0.359375 -0.859375 1.0625q-0.25 0.703125 -0.25 2.03125l0 5.015625l-1.640625 0zm24.302216 -1.46875l0.234375 1.453125q-0.6875 0.140625 -1.234375 0.140625q-0.890625 0 -1.390625 -0.28125q-0.484375 -0.28125 -0.6875 -0.734375q-0.203125 -0.46875 -0.203125 -1.9375l0 -5.578125l-1.203125 0l0 -1.265625l1.203125 0l0 -2.390625l1.625 -0.984375l0 3.375l1.65625 0l0 1.265625l-1.65625 0l0 5.671875q0 0.6875 0.078125 0.890625q0.09375 0.203125 0.28125 0.328125q0.203125 0.109375 0.578125 0.109375q0.265625 0 0.71875 -0.0625zm1.6051636 1.46875l0 -13.359375l1.640625 0l0 4.796875q1.140625 -1.328125 2.890625 -1.328125q1.078125 0 1.859375 0.421875q0.796875 0.421875 1.140625 1.171875q0.34375 0.75 0.34375 2.171875l0 6.125l-1.640625 0l0 -6.125q0 -1.234375 -0.53125 -1.796875q-0.53125 -0.5625 -1.515625 -0.5625q-0.71875 0 -1.359375 0.390625q-0.640625 0.375 -0.921875 1.015625q-0.265625 0.640625 -0.265625 1.78125l0 5.296875l-1.640625 0zm17.000732 -3.109375l1.6875 0.203125q-0.40625 1.484375 -1.484375 2.3125q-1.078125 0.8125 -2.765625 0.8125q-2.125 0 -3.375 -1.296875q-1.234375 -1.3125 -1.234375 -3.671875q0 -2.453125 1.25 -3.796875q1.265625 -1.34375 3.265625 -1.34375q1.9375 0 3.15625 1.328125q1.234375 1.3125 1.234375 3.703125q0 0.15625 0 0.4375l-7.21875 0q0.09375 1.59375 0.90625 2.453125q0.8125 0.84375 2.015625 0.84375q0.90625 0 1.546875 -0.46875q0.640625 -0.484375 1.015625 -1.515625zm-5.390625 -2.65625l5.40625 0q-0.109375 -1.21875 -0.625 -1.828125q-0.78125 -0.953125 -2.03125 -0.953125q-1.125 0 -1.90625 0.765625q-0.765625 0.75 -0.84375 2.015625zm13.059021 5.765625l5.125 -13.359375l1.90625 0l5.46875 13.359375l-2.015625 0l-1.546875 -4.046875l-5.59375 0l-1.46875 4.046875l-1.875 0zm3.859375 -5.484375l4.53125 0l-1.40625 -3.703125q-0.625 -1.6875 -0.9375 -2.765625q-0.265625 1.28125 -0.71875 2.546875l-1.46875 3.921875zm12.3810425 5.484375l-3.53125 -13.359375l1.8125 0l2.03125 8.765625q0.328125 1.375 0.5625 2.71875q0.5 -2.140625 0.59375 -2.46875l2.546875 -9.015625l2.125 0l1.921875 6.765625q0.71875 2.515625 1.03125 4.71875q0.265625 -1.265625 0.671875 -2.890625l2.09375 -8.59375l1.78125 0l-3.671875 13.359375l-1.703125 0l-2.8125 -10.171875q-0.359375 -1.28125 -0.421875 -1.5625q-0.203125 0.90625 -0.390625 1.5625l-2.828125 10.171875l-1.8125 0zm14.686768 -4.296875l1.65625 -0.140625q0.125 1.0 0.546875 1.640625q0.4375 0.640625 1.34375 1.046875q0.921875 0.390625 2.0625 0.390625q1.0 0 1.78125 -0.296875q0.78125 -0.296875 1.15625 -0.8125q0.375 -0.53125 0.375 -1.15625q0 -0.625 -0.375 -1.09375q-0.359375 -0.46875 -1.1875 -0.796875q-0.546875 -0.203125 -2.390625 -0.640625q-1.828125 -0.453125 -2.5625 -0.84375q-0.96875 -0.5 -1.4375 -1.234375q-0.46875 -0.75 -0.46875 -1.671875q0 -1.0 0.578125 -1.875q0.578125 -0.890625 1.671875 -1.34375q1.109375 -0.453125 2.453125 -0.453125q1.484375 0 2.609375 0.484375q1.140625 0.46875 1.75 1.40625q0.609375 0.921875 0.65625 2.09375l-1.6875 0.125q-0.140625 -1.265625 -0.9375 -1.90625q-0.78125 -0.65625 -2.3125 -0.65625q-1.609375 0 -2.34375 0.59375q-0.734375 0.59375 -0.734375 1.421875q0 0.71875 0.53125 1.171875q0.5 0.46875 2.65625 0.96875q2.15625 0.484375 2.953125 0.84375q1.171875 0.53125 1.71875 1.359375q0.5625 0.828125 0.5625 1.90625q0 1.0625 -0.609375 2.015625q-0.609375 0.9375 -1.75 1.46875q-1.140625 0.515625 -2.578125 0.515625q-1.8125 0 -3.046875 -0.53125q-1.21875 -0.53125 -1.921875 -1.59375q-0.6875 -1.0625 -0.71875 -2.40625zm16.751953 4.296875l5.125 -13.359375l1.90625 0l5.46875 13.359375l-2.015625 0l-1.546875 -4.046875l-5.59375 0l-1.46875 4.046875l-1.875 0zm3.859375 -5.484375l4.53125 0l-1.40625 -3.703125q-0.625 -1.6875 -0.9375 -2.765625q-0.265625 1.28125 -0.71875 2.546875l-1.46875 3.921875zm9.8497925 9.1875l0 -13.375l1.484375 0l0 1.25q0.53125 -0.734375 1.1875 -1.09375q0.671875 -0.375 1.625 -0.375q1.234375 0 2.171875 0.640625q0.953125 0.625 1.4375 1.796875q0.484375 1.15625 0.484375 2.546875q0 1.484375 -0.53125 2.671875q-0.53125 1.1875 -1.546875 1.828125q-1.015625 0.625 -2.140625 0.625q-0.8125 0 -1.46875 -0.34375q-0.65625 -0.34375 -1.0625 -0.875l0 4.703125l-1.640625 0zm1.484375 -8.484375q0 1.859375 0.75 2.765625q0.765625 0.890625 1.828125 0.890625q1.09375 0 1.875 -0.921875q0.78125 -0.9375 0.78125 -2.875q0 -1.84375 -0.765625 -2.765625q-0.75 -0.921875 -1.8125 -0.921875q-1.046875 0 -1.859375 0.984375q-0.796875 0.96875 -0.796875 2.84375zm8.891296 8.484375l0 -13.375l1.484375 0l0 1.25q0.53125 -0.734375 1.1875 -1.09375q0.671875 -0.375 1.625 -0.375q1.234375 0 2.171875 0.640625q0.953125 0.625 1.4375 1.796875q0.484375 1.15625 0.484375 2.546875q0 1.484375 -0.53125 2.671875q-0.53125 1.1875 -1.546875 1.828125q-1.015625 0.625 -2.140625 0.625q-0.8125 0 -1.46875 -0.34375q-0.65625 -0.34375 -1.0625 -0.875l0 4.703125l-1.640625 0zm1.484375 -8.484375q0 1.859375 0.75 2.765625q0.765625 0.890625 1.828125 0.890625q1.09375 0 1.875 -0.921875q0.78125 -0.9375 0.78125 -2.875q0 -1.84375 -0.765625 -2.765625q-0.75 -0.921875 -1.8125 -0.921875q-1.046875 0 -1.859375 0.984375q-0.796875 0.96875 -0.796875 2.84375zm14.230957 4.78125l0 -13.359375l2.65625 0l3.15625 9.453125q0.4375 1.328125 0.640625 1.984375q0.234375 -0.734375 0.703125 -2.140625l3.203125 -9.296875l2.375 0l0 13.359375l-1.703125 0l0 -11.171875l-3.875 11.171875l-1.59375 0l-3.859375 -11.375l0 11.375l-1.703125 0zm22.009521 -3.109375l1.6875 0.203125q-0.40625 1.484375 -1.484375 2.3125q-1.078125 0.8125 -2.765625 0.8125q-2.125 0 -3.375 -1.296875q-1.234375 -1.3125 -1.234375 -3.671875q0 -2.453125 1.25 -3.796875q1.265625 -1.34375 3.265625 -1.34375q1.9375 0 3.15625 1.328125q1.234375 1.3125 1.234375 3.703125q0 0.15625 0 0.4375l-7.21875 0q0.09375 1.59375 0.90625 2.453125q0.8125 0.84375 2.015625 0.84375q0.90625 0 1.546875 -0.46875q0.640625 -0.484375 1.015625 -1.515625zm-5.390625 -2.65625l5.40625 0q-0.109375 -1.21875 -0.625 -1.828125q-0.78125 -0.953125 -2.03125 -0.953125q-1.125 0 -1.90625 0.765625q-0.765625 0.75 -0.84375 2.015625zm8.485107 2.875l1.625 -0.25q0.125 0.96875 0.75 1.5q0.625 0.515625 1.75 0.515625q1.125 0 1.671875 -0.453125q0.546875 -0.46875 0.546875 -1.09375q0 -0.546875 -0.484375 -0.875q-0.328125 -0.21875 -1.671875 -0.546875q-1.8125 -0.46875 -2.515625 -0.796875q-0.6875 -0.328125 -1.046875 -0.90625q-0.359375 -0.59375 -0.359375 -1.3125q0 -0.640625 0.296875 -1.1875q0.296875 -0.5625 0.8125 -0.921875q0.375 -0.28125 1.03125 -0.46875q0.671875 -0.203125 1.421875 -0.203125q1.140625 0 2.0 0.328125q0.859375 0.328125 1.265625 0.890625q0.421875 0.5625 0.578125 1.5l-1.609375 0.21875q-0.109375 -0.75 -0.640625 -1.171875q-0.515625 -0.421875 -1.46875 -0.421875q-1.140625 0 -1.625 0.375q-0.46875 0.375 -0.46875 0.875q0 0.3125 0.1875 0.578125q0.203125 0.265625 0.640625 0.4375q0.234375 0.09375 1.4375 0.421875q1.75 0.453125 2.4375 0.75q0.6875 0.296875 1.078125 0.859375q0.390625 0.5625 0.390625 1.40625q0 0.828125 -0.484375 1.546875q-0.46875 0.71875 -1.375 1.125q-0.90625 0.390625 -2.046875 0.390625q-1.875 0 -2.875 -0.78125q-0.984375 -0.78125 -1.25 -2.328125zm9.984375 2.890625l0 -13.359375l1.640625 0l0 4.796875q1.140625 -1.328125 2.890625 -1.328125q1.078125 0 1.859375 0.421875q0.796875 0.421875 1.140625 1.171875q0.34375 0.75 0.34375 2.171875l0 6.125l-1.640625 0l0 -6.125q0 -1.234375 -0.53125 -1.796875q-0.53125 -0.5625 -1.515625 -0.5625q-0.71875 0 -1.359375 0.390625q-0.640625 0.375 -0.921875 1.015625q-0.265625 0.640625 -0.265625 1.78125l0 5.296875l-1.640625 0zm15.512085 0l0 -13.359375l1.640625 0l0 13.359375l-1.640625 0zm10.504272 -1.1875q-0.921875 0.765625 -1.765625 1.09375q-0.828125 0.3125 -1.796875 0.3125q-1.59375 0 -2.453125 -0.78125q-0.859375 -0.78125 -0.859375 -1.984375q0 -0.71875 0.328125 -1.296875q0.328125 -0.59375 0.84375 -0.9375q0.53125 -0.359375 1.1875 -0.546875q0.46875 -0.125 1.453125 -0.25q1.984375 -0.234375 2.921875 -0.5625q0.015625 -0.34375 0.015625 -0.421875q0 -1.0 -0.46875 -1.421875q-0.625 -0.546875 -1.875 -0.546875q-1.15625 0 -1.703125 0.40625q-0.546875 0.40625 -0.8125 1.421875l-1.609375 -0.21875q0.21875 -1.015625 0.71875 -1.640625q0.5 -0.640625 1.453125 -0.984375q0.953125 -0.34375 2.1875 -0.34375q1.25 0 2.015625 0.296875q0.78125 0.28125 1.140625 0.734375q0.375 0.4375 0.515625 1.109375q0.078125 0.421875 0.078125 1.515625l0 2.1875q0 2.28125 0.109375 2.890625q0.109375 0.59375 0.40625 1.15625l-1.703125 0q-0.265625 -0.515625 -0.328125 -1.1875zm-0.140625 -3.671875q-0.890625 0.375 -2.671875 0.625q-1.015625 0.140625 -1.4375 0.328125q-0.421875 0.1875 -0.65625 0.53125q-0.21875 0.34375 -0.21875 0.78125q0 0.65625 0.5 1.09375q0.5 0.4375 1.453125 0.4375q0.9375 0 1.671875 -0.40625q0.75 -0.421875 1.09375 -1.140625q0.265625 -0.5625 0.265625 -1.640625l0 -0.609375zm10.531982 4.859375l0 -1.421875q-1.125 1.640625 -3.0625 1.640625q-0.859375 0 -1.609375 -0.328125q-0.734375 -0.328125 -1.09375 -0.828125q-0.359375 -0.5 -0.5 -1.21875q-0.109375 -0.46875 -0.109375 -1.53125l0 -5.984375l1.640625 0l0 5.359375q0 1.28125 0.109375 1.734375q0.15625 0.640625 0.65625 1.015625q0.5 0.375 1.234375 0.375q0.734375 0 1.375 -0.375q0.65625 -0.390625 0.921875 -1.03125q0.265625 -0.65625 0.265625 -1.890625l0 -5.1875l1.640625 0l0 9.671875l-1.46875 0zm4.0476074 0l0 -9.671875l1.46875 0l0 1.375q1.0625 -1.59375 3.078125 -1.59375q0.875 0 1.609375 0.3125q0.734375 0.3125 1.09375 0.828125q0.375 0.5 0.515625 1.203125q0.09375 0.453125 0.09375 1.59375l0 5.953125l-1.640625 0l0 -5.890625q0 -1.0 -0.203125 -1.484375q-0.1875 -0.5 -0.671875 -0.796875q-0.484375 -0.296875 -1.140625 -0.296875q-1.046875 0 -1.8125 0.671875q-0.75 0.65625 -0.75 2.515625l0 5.28125l-1.640625 0zm16.688232 -3.546875l1.609375 0.21875q-0.265625 1.65625 -1.359375 2.609375q-1.078125 0.9375 -2.671875 0.9375q-1.984375 0 -3.1875 -1.296875q-1.203125 -1.296875 -1.203125 -3.71875q0 -1.578125 0.515625 -2.75q0.515625 -1.171875 1.578125 -1.75q1.0625 -0.59375 2.3125 -0.59375q1.578125 0 2.578125 0.796875q1.0 0.796875 1.28125 2.265625l-1.59375 0.234375q-0.234375 -0.96875 -0.8125 -1.453125q-0.578125 -0.5 -1.390625 -0.5q-1.234375 0 -2.015625 0.890625q-0.78125 0.890625 -0.78125 2.8125q0 1.953125 0.75 2.84375q0.75 0.875 1.953125 0.875q0.96875 0 1.609375 -0.59375q0.65625 -0.59375 0.828125 -1.828125zm3.015625 3.546875l0 -13.359375l1.640625 0l0 4.796875q1.140625 -1.328125 2.890625 -1.328125q1.078125 0 1.859375 0.421875q0.796875 0.421875 1.140625 1.171875q0.34375 0.75 0.34375 2.171875l0 6.125l-1.640625 0l0 -6.125q0 -1.234375 -0.53125 -1.796875q-0.53125 -0.5625 -1.515625 -0.5625q-0.71875 0 -1.359375 0.390625q-0.640625 0.375 -0.921875 1.015625q-0.265625 0.640625 -0.265625 1.78125l0 5.296875l-1.640625 0zm10.828857 0l0 -1.875l1.875 0l0 1.875l-1.875 0z" fill-rule="nonzero"/></g></svg>