<svg version="1.1" viewBox="0.0 0.0 951.3674540682415 232.7742782152231" fill="none" stroke="none" stroke-linecap="square" stroke-miterlimit="10" xmlns:xlink="http://www.w3.org/1999/xlink" xmlns="http://www.w3.org/2000/svg"><clipPath id="p.0"><path d="m0 0l951.36743 0l0 232.77428l-951.36743 0l0 -232.77428z" clip-rule="nonzero"/></clipPath><g clip-path="url(#p.0)"><path fill="#ffffff" d="m0 0l951.36743 0l0 232.77428l-951.36743 0z" fill-rule="evenodd"/><path fill="#f3f3f3" d="m134.9357 55.970676l0 0c0 -7.6085243 6.167923 -13.776451 13.7764435 -13.776451l658.2424 0c3.6537476 0 7.157837 1.4514427 9.741394 4.0350304c2.5836182 2.5835838 4.035034 6.087681 4.035034 9.741421l0 152.13214c0 7.6085205 -6.1679077 13.776459 -13.776428 13.776459l-658.2424 0c-7.6085205 0 -13.7764435 -6.167938 -13.7764435 -13.776459z" fill-rule="evenodd"/><path stroke="#ffffff" stroke-width="1.0" stroke-linejoin="round" stroke-linecap="butt" d="m134.9357 55.970676l0 0c0 -7.6085243 6.167923 -13.776451 13.7764435 -13.776451l658.2424 0c3.6537476 0 7.157837 1.4514427 9.741394 4.0350304c2.5836182 2.5835838 4.035034 6.087681 4.035034 9.741421l0 152.13214c0 7.6085205 -6.1679077 13.776459 -13.776428 13.776459l-658.2424 0c-7.6085205 0 -13.7764435 -6.167938 -13.7764435 -13.776459z" fill-rule="evenodd"/><path fill="#6fa8dc" d="m468.94125 65.16859l-3.765625 0l-0.71875 2.140625l-2.28125 0l3.875 -10.421875l2.0 0l3.890625 10.421875l-2.28125 0l-0.71875 -2.140625zm-3.1875 -1.75l2.609375 0l-1.3125 -3.890625l-1.296875 3.890625zm15.004059 0.890625l1.40625 -7.421875l2.140625 0l-2.3125 10.421875l-2.171875 0l-1.6875 -6.96875l-1.703125 6.96875l-2.15625 0l-2.3125 -10.421875l2.140625 0l1.40625 7.40625l1.71875 -7.40625l1.8125 0l1.71875 7.421875zm10.098297 0.265625q0 -0.609375 -0.4375 -0.9375q-0.421875 -0.328125 -1.546875 -0.6875q-1.109375 -0.359375 -1.75 -0.703125q-1.78125 -0.96875 -1.78125 -2.59375q0 -0.84375 0.46875 -1.5q0.484375 -0.65625 1.375 -1.03125q0.890625 -0.375 2.0 -0.375q1.125 0 1.984375 0.40625q0.875 0.40625 1.359375 1.140625q0.484375 0.734375 0.484375 1.671875l-2.140625 0q0 -0.71875 -0.453125 -1.109375q-0.453125 -0.40625 -1.265625 -0.40625q-0.796875 0 -1.234375 0.34375q-0.421875 0.328125 -0.421875 0.875q0 0.5 0.5 0.84375q0.515625 0.34375 1.515625 0.65625q1.828125 0.546875 2.65625 1.359375q0.84375 0.8125 0.84375 2.03125q0 1.359375 -1.03125 2.125q-1.015625 0.765625 -2.75 0.765625q-1.203125 0 -2.1875 -0.4375q-0.984375 -0.4375 -1.5 -1.203125q-0.515625 -0.765625 -0.515625 -1.78125l2.140625 0q0 1.734375 2.0625 1.734375q0.765625 0 1.1875 -0.3125q0.4375 -0.3125 0.4375 -0.875z" fill-rule="nonzero"/><path fill="#6fa8dc" d="m320.17584 112.26797l0 0c0 -6.850792 5.5536804 -12.404449 12.404449 -12.404449l118.78168 0c3.289856 0 6.444977 1.3068924 8.771271 3.6331787c2.3262634 2.3262863 3.6331787 5.481407 3.6331787 8.771271l0 49.616295c0 6.8507843 -5.5536804 12.404449 -12.404449 12.404449l-118.78168 0c-6.850769 0 -12.404449 -5.553665 -12.404449 -12.404449z" fill-rule="evenodd"/><path fill="#ffffff" d="m364.98355 138.23424q0 -1.78125 0.84375 -2.875q0.84375 -1.09375 2.28125 -1.09375q1.28125 0 1.984375 0.875l0.09375 -0.734375l1.875 0l0 7.5q0 1.015625 -0.46875 1.765625q-0.46875 0.75 -1.3125 1.140625q-0.828125 0.390625 -1.953125 0.390625q-0.84375 0 -1.65625 -0.34375q-0.8125 -0.328125 -1.21875 -0.875l0.90625 -1.25q0.78125 0.859375 1.875 0.859375q0.828125 0 1.28125 -0.4375q0.46875 -0.4375 0.46875 -1.25l0 -0.421875q-0.71875 0.8125 -1.890625 0.8125q-1.390625 0 -2.25 -1.09375q-0.859375 -1.09375 -0.859375 -2.890625l0 -0.078125zm2.0625 0.140625q0 1.046875 0.421875 1.65625q0.421875 0.59375 1.15625 0.59375q0.953125 0 1.359375 -0.703125l0 -3.265625q-0.421875 -0.703125 -1.34375 -0.703125q-0.75 0 -1.171875 0.609375q-0.421875 0.609375 -0.421875 1.8125zm11.084534 3.78125q-0.140625 -0.28125 -0.203125 -0.6875q-0.75 0.828125 -1.953125 0.828125q-1.140625 0 -1.890625 -0.65625q-0.75 -0.65625 -0.75 -1.65625q0 -1.234375 0.90625 -1.890625q0.921875 -0.65625 2.640625 -0.671875l0.953125 0l0 -0.4375q0 -0.53125 -0.28125 -0.859375q-0.265625 -0.328125 -0.859375 -0.328125q-0.515625 0 -0.8125 0.25q-0.296875 0.25 -0.296875 0.6875l-2.078125 0q0 -0.671875 0.40625 -1.234375q0.421875 -0.578125 1.171875 -0.90625q0.765625 -0.328125 1.71875 -0.328125q1.421875 0 2.265625 0.71875q0.84375 0.71875 0.84375 2.03125l0 3.34375q0.015625 1.109375 0.3125 1.671875l0 0.125l-2.09375 0zm-1.703125 -1.4375q0.453125 0 0.828125 -0.203125q0.390625 -0.203125 0.578125 -0.546875l0 -1.328125l-0.765625 0q-1.5625 0 -1.65625 1.0625l0 0.125q0 0.390625 0.265625 0.640625q0.265625 0.25 0.75 0.25zm7.5451965 -8.203125l0 1.890625l1.328125 0l0 1.53125l-1.328125 0l0 3.859375q0 0.421875 0.15625 0.609375q0.171875 0.1875 0.640625 0.1875q0.34375 0 0.609375 -0.046875l0 1.5625q-0.609375 0.1875 -1.25 0.1875q-2.171875 0 -2.21875 -2.1875l0 -4.171875l-1.125 0l0 -1.53125l1.125 0l0 -1.890625l2.0625 0zm6.0459595 9.78125q-1.703125 0 -2.78125 -1.046875q-1.0625 -1.046875 -1.0625 -2.78125l0 -0.203125q0 -1.15625 0.453125 -2.078125q0.453125 -0.921875 1.265625 -1.421875q0.828125 -0.5 1.890625 -0.5q1.59375 0 2.5 1.015625q0.921875 1.0 0.921875 2.828125l0 0.84375l-4.9375 0q0.109375 0.765625 0.609375 1.21875q0.5 0.453125 1.28125 0.453125q1.1875 0 1.859375 -0.859375l1.015625 1.140625q-0.46875 0.65625 -1.265625 1.03125q-0.78125 0.359375 -1.75 0.359375zm-0.234375 -6.359375q-0.625 0 -1.015625 0.421875q-0.375 0.421875 -0.46875 1.1875l2.875 0l0 -0.15625q-0.015625 -0.6875 -0.375 -1.0625q-0.359375 -0.390625 -1.015625 -0.390625zm11.328369 3.40625l1.015625 -4.9375l2.0 0l-1.984375 7.75l-1.734375 0l-1.453125 -4.875l-1.46875 4.875l-1.734375 0l-1.96875 -7.75l2.0 0l1.0 4.9375l1.421875 -4.9375l1.5 0l1.40625 4.9375zm8.520325 2.8125q-0.140625 -0.28125 -0.203125 -0.6875q-0.75 0.828125 -1.953125 0.828125q-1.140625 0 -1.890625 -0.65625q-0.75 -0.65625 -0.75 -1.65625q0 -1.234375 0.90625 -1.890625q0.921875 -0.65625 2.640625 -0.671875l0.953125 0l0 -0.4375q0 -0.53125 -0.28125 -0.859375q-0.265625 -0.328125 -0.859375 -0.328125q-0.515625 0 -0.8125 0.25q-0.296875 0.25 -0.296875 0.6875l-2.078125 0q0 -0.671875 0.40625 -1.234375q0.421875 -0.578125 1.171875 -0.90625q0.765625 -0.328125 1.71875 -0.328125q1.421875 0 2.265625 0.71875q0.84375 0.71875 0.84375 2.03125l0 3.34375q0.015625 1.109375 0.3125 1.671875l0 0.125l-2.09375 0zm-1.703125 -1.4375q0.453125 0 0.828125 -0.203125q0.390625 -0.203125 0.578125 -0.546875l0 -1.328125l-0.765625 0q-1.5625 0 -1.65625 1.0625l0 0.125q0 0.390625 0.265625 0.640625q0.265625 0.25 0.75 0.25zm7.8596497 -1.484375l1.421875 -4.828125l2.21875 0l-3.109375 8.953125l-0.171875 0.40625q-0.6875 1.515625 -2.28125 1.515625q-0.453125 0 -0.921875 -0.140625l0 -1.5625l0.3125 0.015625q0.59375 0 0.875 -0.1875q0.296875 -0.171875 0.453125 -0.59375l0.25 -0.640625l-2.71875 -7.765625l2.234375 0l1.4375 4.828125z" fill-rule="nonzero"/><path fill="#6fa8dc" d="m629.8084 112.26797l0 0c0 -6.850792 5.55365 -12.404449 12.404419 -12.404449l121.20685 0c3.289856 0 6.4450073 1.3068924 8.771301 3.6331787c2.326294 2.3262863 3.6331787 5.481407 3.6331787 8.771271l0 49.616295c0 6.8507843 -5.55365 12.404449 -12.40448 12.404449l-121.20685 0c-6.850769 0 -12.404419 -5.553665 -12.404419 -12.404449z" fill-rule="evenodd"/><path fill="#ffffff" d="m672.9714 140.62486q0.578125 0 0.921875 -0.3125q0.359375 -0.3125 0.375 -0.828125l1.9375 0q0 0.78125 -0.421875 1.4375q-0.421875 0.65625 -1.15625 1.015625q-0.734375 0.359375 -1.625 0.359375q-1.65625 0 -2.625 -1.046875q-0.953125 -1.0625 -0.953125 -2.921875l0 -0.140625q0 -1.78125 0.953125 -2.84375q0.953125 -1.078125 2.609375 -1.078125q1.453125 0 2.328125 0.828125q0.890625 0.828125 0.890625 2.203125l-1.9375 0q-0.015625 -0.59375 -0.375 -0.96875q-0.34375 -0.390625 -0.9375 -0.390625q-0.71875 0 -1.09375 0.53125q-0.359375 0.53125 -0.359375 1.703125l0 0.21875q0 1.203125 0.359375 1.71875q0.359375 0.515625 1.109375 0.515625zm4.0961304 -2.40625q0 -1.15625 0.4375 -2.0625q0.453125 -0.90625 1.28125 -1.390625q0.84375 -0.5 1.9375 -0.5q1.578125 0 2.5625 0.96875q0.984375 0.953125 1.109375 2.59375l0.015625 0.53125q0 1.78125 -1.0 2.859375q-1.0 1.078125 -2.671875 1.078125q-1.671875 0 -2.671875 -1.0625q-1.0 -1.078125 -1.0 -2.921875l0 -0.09375zm2.078125 0.140625q0 1.109375 0.40625 1.6875q0.421875 0.578125 1.1875 0.578125q0.75 0 1.171875 -0.5625q0.421875 -0.578125 0.421875 -1.84375q0 -1.09375 -0.421875 -1.6875q-0.421875 -0.59375 -1.1875 -0.59375q-0.75 0 -1.171875 0.59375q-0.40625 0.59375 -0.40625 1.828125zm8.724609 3.796875l-2.078125 0l0 -11.0l2.078125 0l0 11.0zm1.3703003 -3.9375q0 -1.15625 0.4375 -2.0625q0.453125 -0.90625 1.28125 -1.390625q0.84375 -0.5 1.9375 -0.5q1.578125 0 2.5625 0.96875q0.984375 0.953125 1.109375 2.59375l0.015625 0.53125q0 1.78125 -1.0 2.859375q-1.0 1.078125 -2.671875 1.078125q-1.671875 0 -2.671875 -1.0625q-1.0 -1.078125 -1.0 -2.921875l0 -0.09375zm2.078125 0.140625q0 1.109375 0.40625 1.6875q0.421875 0.578125 1.1875 0.578125q0.75 0 1.171875 -0.5625q0.421875 -0.578125 0.421875 -1.84375q0 -1.09375 -0.421875 -1.6875q-0.421875 -0.59375 -1.1875 -0.59375q-0.75 0 -1.171875 0.59375q-0.40625 0.59375 -0.40625 1.828125zm10.880798 -2.0q-0.421875 -0.0625 -0.734375 -0.0625q-1.171875 0 -1.546875 0.796875l0 5.0625l-2.0625 0l0 -7.75l1.953125 0l0.0625 0.9375q0.609375 -1.078125 1.71875 -1.078125q0.34375 0 0.640625 0.09375l-0.03125 2.0zm3.8289185 -3.84375l0 1.890625l1.328125 0l0 1.53125l-1.328125 0l0 3.859375q0 0.421875 0.15625 0.609375q0.171875 0.1875 0.640625 0.1875q0.34375 0 0.609375 -0.046875l0 1.5625q-0.609375 0.1875 -1.25 0.1875q-2.171875 0 -2.21875 -2.1875l0 -4.171875l-1.125 0l0 -1.53125l1.125 0l0 -1.890625l2.0625 0zm6.0459595 9.78125q-1.703125 0 -2.78125 -1.046875q-1.0625 -1.046875 -1.0625 -2.78125l0 -0.203125q0 -1.15625 0.453125 -2.078125q0.453125 -0.921875 1.265625 -1.421875q0.828125 -0.5 1.890625 -0.5q1.59375 0 2.5 1.015625q0.921875 1.0 0.921875 2.828125l0 0.84375l-4.9375 0q0.109375 0.765625 0.609375 1.21875q0.5 0.453125 1.28125 0.453125q1.1875 0 1.859375 -0.859375l1.015625 1.140625q-0.46875 0.65625 -1.265625 1.03125q-0.78125 0.359375 -1.75 0.359375zm-0.234375 -6.359375q-0.625 0 -1.015625 0.421875q-0.375 0.421875 -0.46875 1.1875l2.875 0l0 -0.15625q-0.015625 -0.6875 -0.375 -1.0625q-0.359375 -0.390625 -1.015625 -0.390625zm6.781433 6.21875l-2.078125 0l0 -11.0l2.078125 0l0 11.0zm3.8859253 0l-2.078125 0l0 -11.0l2.078125 0l0 11.0zm5.2609253 0.140625q-1.703125 0 -2.78125 -1.046875q-1.0625 -1.046875 -1.0625 -2.78125l0 -0.203125q0 -1.15625 0.453125 -2.078125q0.453125 -0.921875 1.265625 -1.421875q0.828125 -0.5 1.890625 -0.5q1.59375 0 2.5 1.015625q0.921875 1.0 0.921875 2.828125l0 0.84375l-4.9375 0q0.109375 0.765625 0.609375 1.21875q0.5 0.453125 1.28125 0.453125q1.1875 0 1.859375 -0.859375l1.015625 1.140625q-0.46875 0.65625 -1.265625 1.03125q-0.78125 0.359375 -1.75 0.359375zm-0.234375 -6.359375q-0.625 0 -1.015625 0.421875q-0.375 0.421875 -0.46875 1.1875l2.875 0l0 -0.15625q-0.015625 -0.6875 -0.375 -1.0625q-0.359375 -0.390625 -1.015625 -0.390625zm8.937744 0.421875q-0.421875 -0.0625 -0.734375 -0.0625q-1.171875 0 -1.546875 0.796875l0 5.0625l-2.0625 0l0 -7.75l1.953125 0l0.0625 0.9375q0.609375 -1.078125 1.71875 -1.078125q0.34375 0 0.640625 0.09375l-0.03125 2.0z" fill-rule="nonzero"/><path fill="#000000" fill-opacity="0.0" d="m463.76642 137.07611c41.51013 0 62.264404 0.01574707 83.02026 0.03149414c20.75592 0.01574707 41.51349 0.0315094 83.02698 0.0315094" fill-rule="evenodd"/><path stroke="#6fa8dc" stroke-width="3.0" stroke-linejoin="round" stroke-linecap="butt" d="m463.76642 137.07611c41.510162 0 62.264404 0.01574707 83.02026 0.03149414c10.377991 0.007873535 20.756348 0.01574707 33.72937 0.02166748c6.4865723 0.0029449463 13.621765 0.0054016113 21.72992 0.0071258545l9.567688 9.460449E-4" fill-rule="evenodd"/><path fill="#6fa8dc" stroke="#6fa8dc" stroke-width="3.0" stroke-linecap="butt" d="m611.8132 142.09254l13.614746 -4.9538727l-13.61377 -4.9565277z" fill-rule="evenodd"/><path fill="#000000" fill-opacity="0.0" d="m94.50656 137.01312c56.417328 0 84.62599 0.01574707 112.83464 0.03149414c28.208664 0.01574707 56.417343 0.03149414 112.83464 0.03149414" fill-rule="evenodd"/><path stroke="#6fa8dc" stroke-width="3.0" stroke-linejoin="round" stroke-linecap="butt" d="m94.50656 137.01312c56.417328 0 84.62599 0.01574707 112.83464 0.03149414c14.10434 0.007873535 28.208664 0.01574707 45.83908 0.021652222c8.815201 0.002960205 18.511948 0.00541687 29.53093 0.0071411133l19.46463 0.0014038086" fill-rule="evenodd"/><path fill="#6fa8dc" stroke="#6fa8dc" stroke-width="3.0" stroke-linecap="butt" d="m302.1755 142.03001l13.614655 -4.9542084l-13.613953 -4.956192z" fill-rule="evenodd"/><path fill="#000000" fill-opacity="0.0" d="m197.35432 112.43307l99.18111 0l0 21.574806l-99.18111 0z" fill-rule="evenodd"/><path fill="#6fa8dc" d="m227.1261 126.98797q-0.578125 0.6875 -1.640625 1.0781326q-1.0625 0.375 -2.34375 0.375q-1.359375 0 -2.375 -0.5781326q-1.015625 -0.59375 -1.578125 -1.71875q-0.546875 -1.125 -0.5625 -2.640625l0 -0.71875q0 -1.5625 0.515625 -2.703125q0.53125 -1.140625 1.515625 -1.734375q1.0 -0.609375 2.328125 -0.609375q1.859375 0 2.90625 0.890625q1.046875 0.875 1.234375 2.5625l-2.09375 0q-0.140625 -0.890625 -0.625 -1.296875q-0.484375 -0.421875 -1.34375 -0.421875q-1.109375 0 -1.6875 0.828125q-0.5625 0.8125 -0.5625 2.4375l0 0.671875q0 1.640625 0.609375 2.484375q0.625 0.828125 1.828125 0.828125q1.21875 0 1.734375 -0.515625l0 -1.796875l-1.953125 0l0 -1.578125l4.09375 0l0 4.15625zm8.014389 -3.203125l-4.125 0l0 2.796875l4.84375 0l0 1.7187576l-6.984375 0l0 -10.421883l6.96875 0l0 1.734375l-4.828125 0l0 2.484375l4.125 0l0 1.6875zm9.9655 -4.171875l-3.203125 0l0 8.687508l-2.140625 0l0 -8.687508l-3.15625 0l0 -1.734375l8.5 0l0 1.734375zm4.9590607 9.578133l-1.546875 0l3.84375 -11.312508l1.53125 0l-3.828125 11.312508zm8.037125 -2.4218826q0.578125 0 0.921875 -0.3125q0.359375 -0.3125 0.375 -0.828125l1.9375 0q0 0.78125 -0.421875 1.4375q-0.421875 0.65625 -1.15625 1.0156326q-0.734375 0.359375 -1.625 0.359375q-1.65625 0 -2.625 -1.0468826q-0.953125 -1.0625 -0.953125 -2.921875l0 -0.140625q0 -1.78125 0.953125 -2.84375q0.953125 -1.078125 2.609375 -1.078125q1.453125 0 2.328125 0.828125q0.890625 0.828125 0.890625 2.203125l-1.9375 0q-0.015625 -0.59375 -0.375 -0.96875q-0.34375 -0.390625 -0.9375 -0.390625q-0.71875 0 -1.09375 0.53125q-0.359375 0.53125 -0.359375 1.703125l0 0.21875q0 1.203125 0.359375 1.71875q0.359375 0.515625 1.109375 0.515625zm4.0961304 -2.40625q0 -1.15625 0.4375 -2.0625q0.453125 -0.90625 1.28125 -1.390625q0.84375 -0.5 1.9375 -0.5q1.578125 0 2.5625 0.96875q0.984375 0.953125 1.109375 2.59375l0.015625 0.53125q0 1.78125 -1.0 2.859375q-1.0 1.0781326 -2.671875 1.0781326q-1.671875 0 -2.671875 -1.0625076q-1.0 -1.078125 -1.0 -2.921875l0 -0.09375zm2.078125 0.140625q0 1.109375 0.40625 1.6875q0.421875 0.578125 1.1875 0.578125q0.75 0 1.171875 -0.5625q0.421875 -0.578125 0.421875 -1.84375q0 -1.09375 -0.421875 -1.6875q-0.421875 -0.59375 -1.1875 -0.59375q-0.75 0 -1.171875 0.59375q-0.40625 0.59375 -0.40625 1.828125zm8.724579 3.7968826l-2.078125 0l0 -11.000008l2.078125 0l0 11.000008zm1.3702698 -3.9375076q0 -1.15625 0.4375 -2.0625q0.453125 -0.90625 1.28125 -1.390625q0.84375 -0.5 1.9375 -0.5q1.578125 0 2.5625 0.96875q0.984375 0.953125 1.109375 2.59375l0.015625 0.53125q0 1.78125 -1.0 2.859375q-1.0 1.0781326 -2.671875 1.0781326q-1.671875 0 -2.671875 -1.0625076q-1.0 -1.078125 -1.0 -2.921875l0 -0.09375zm2.078125 0.140625q0 1.109375 0.40625 1.6875q0.421875 0.578125 1.1875 0.578125q0.75 0 1.171875 -0.5625q0.421875 -0.578125 0.421875 -1.84375q0 -1.09375 -0.421875 -1.6875q-0.421875 -0.59375 -1.1875 -0.59375q-0.75 0 -1.171875 0.59375q-0.40625 0.59375 -0.40625 1.828125zm10.880829 -2.0q-0.421875 -0.0625 -0.734375 -0.0625q-1.171875 0 -1.546875 0.796875l0 5.0625076l-2.0625 0l0 -7.7500076l1.953125 0l0.0625 0.9375q0.609375 -1.078125 1.71875 -1.078125q0.34375 0 0.640625 0.09375l-0.03125 2.0z" fill-rule="nonzero"/><path fill="#000000" fill-opacity="0.0" d="m508.06824 112.43307l99.18109 0l0 21.574806l-99.18109 0z" fill-rule="evenodd"/><path fill="#6fa8dc" d="m571.2889 126.98797q-0.578125 0.6875 -1.640625 1.0781326q-1.0625 0.375 -2.34375 0.375q-1.359375 0 -2.375 -0.5781326q-1.015625 -0.59375 -1.578125 -1.71875q-0.546875 -1.125 -0.5625 -2.640625l0 -0.71875q0 -1.5625 0.515625 -2.703125q0.53125 -1.140625 1.515625 -1.734375q1.0 -0.609375 2.328125 -0.609375q1.859375 0 2.90625 0.890625q1.046875 0.875 1.234375 2.5625l-2.09375 0q-0.140625 -0.890625 -0.625 -1.296875q-0.484375 -0.421875 -1.34375 -0.421875q-1.109375 0 -1.6875 0.828125q-0.5625 0.8125 -0.5625 2.4375l0 0.671875q0 1.640625 0.609375 2.484375q0.625 0.828125 1.828125 0.828125q1.21875 0 1.734375 -0.515625l0 -1.796875l-1.953125 0l0 -1.578125l4.09375 0l0 4.15625zm8.014404 -3.203125l-4.125 0l0 2.796875l4.84375 0l0 1.7187576l-6.984375 0l0 -10.421883l6.96875 0l0 1.734375l-4.828125 0l0 2.484375l4.125 0l0 1.6875zm9.965515 -4.171875l-3.203125 0l0 8.687508l-2.140625 0l0 -8.687508l-3.15625 0l0 -1.734375l8.5 0l0 1.734375zm4.9590454 9.578133l-1.546875 0l3.84375 -11.312508l1.53125 0l-3.828125 11.312508z" fill-rule="nonzero"/><path fill="#000000" fill-opacity="0.0" d="m469.71915 140.20735l137.5433 0l0 21.574799l-137.5433 0z" fill-rule="evenodd"/><path fill="#000000" fill-opacity="0.0" d="m494.95316 142.47765l4.630188 0l0 17.175293l-4.630188 0l0 -17.175293z" fill-rule="nonzero"/><path fill="#999999" d="m497.68753 146.18413l-0.71875 2.828125l-1.15625 0l0.625 -3.9375l1.421875 0l-0.171875 1.109375zm2.25 0l-0.703125 2.828125l-1.140625 0l0.609375 -3.9375l1.40625 0l-0.171875 1.109375z" fill-rule="nonzero"/><path fill="#010000" fill-opacity="0.0" d="m499.58334 142.47765l27.702301 0l0 17.175293l-27.702301 0l0 -17.175293z" fill-rule="nonzero"/><path fill="#6d9eeb" d="m507.0521 152.231q-0.21875 1.828125 -1.125 2.9375q-0.890625 1.09375 -2.328125 1.0625q-1.21875 -0.03125 -1.859375 -1.0l-0.296875 0.84375l-1.84375 0l1.90625 -11.0l2.03125 0l-0.78125 3.96875q0.8125 -0.890625 1.890625 -0.859375q1.125 0.015625 1.765625 0.8125q0.640625 0.78125 0.671875 2.1875q0.015625 0.4375 -0.03125 1.046875zm-2.015625 -0.15625q0.078125 -0.609375 0.046875 -0.9375q-0.078125 -1.25 -1.03125 -1.28125q-0.890625 -0.015625 -1.484375 0.8125l-0.546875 3.078125q0.265625 0.78125 1.15625 0.796875q1.484375 0.046875 1.828125 -2.15625l0.03125 -0.3125zm4.7755127 4.0l-2.03125 0l1.90625 -11.0l2.03125 0l-1.90625 11.0zm6.499237 -0.796875q-0.859375 0.96875 -2.125 0.9375q-1.125 -0.015625 -1.703125 -0.796875q-0.5625305 -0.796875 -0.4375 -2.078125l0.84375 -5.015625l2.015625 0l-0.84375 5.03125q-0.03125 0.25 -0.015625 0.453125q0.078125 0.71875 0.796875 0.734375q0.9375 0.03125 1.546875 -0.71875l0.96875 -5.5l2.03125 0l-1.34375 7.75l-1.875 0l0.140625 -0.796875zm6.920044 0.9375q-1.015625 0 -1.8125 -0.484375q-0.78125 -0.5 -1.171875 -1.359375q-0.375 -0.859375 -0.296875 -1.875l0.03125 -0.296875q0.109375 -1.125 0.65625 -2.0625q0.546875 -0.953125 1.40625 -1.46875q0.875 -0.515625 1.921875 -0.484375q1.5 0.03125 2.265625 1.109375q0.78125 1.0625 0.59375 2.703125l-0.125 0.875l-4.734375 0q-0.03125 0.75 0.359375 1.203125q0.390625 0.453125 1.078125 0.46875q1.09375 0.03125 1.921875 -0.859375l0.9375 1.15625q-0.4375 0.65625 -1.265625 1.03125q-0.828125 0.359375 -1.765625 0.34375zm0.640625 -6.359375q-0.5625 -0.015625 -1.0 0.359375q-0.421875 0.359375 -0.765625 1.265625l2.78125 0l0.03125 -0.1875q0.046875 -0.296875 0.015625 -0.546875q-0.078125 -0.421875 -0.359375 -0.65625q-0.28125 -0.234375 -0.703125 -0.234375z" fill-rule="nonzero"/><path fill="#000000" fill-opacity="0.0" d="m527.28564 142.47765l4.630188 0l0 17.175293l-4.630188 0l0 -17.175293z" fill-rule="nonzero"/><path fill="#999999" d="m530.02 146.18413l-0.71875 2.828125l-1.15625 0l0.625 -3.9375l1.421875 0l-0.171875 1.109375zm2.25 0l-0.703125 2.828125l-1.140625 0l0.609375 -3.9375l1.40625 0l-0.171875 1.109375z" fill-rule="nonzero"/><path fill="#999999" d="m540.0923 152.44975l-3.921875 0l0.296875 -1.671875l3.921875 0l-0.296875 1.671875zm5.92572 -0.859375l-3.796875 -1.453125l0.34375 -1.90625l5.59375 2.625l-0.296875 1.671875l-6.515625 2.625l0.375 -2.09375l4.296875 -1.46875zm8.856079 -5.40625l-0.71875 2.828125l-1.15625 0l0.625 -3.9375l1.421875 0l-0.171875 1.109375zm2.25 0l-0.703125 2.828125l-1.140625 0l0.609375 -3.9375l1.40625 0l-0.171875 1.109375z" fill-rule="nonzero"/><path fill="#6aa84f" d="m557.17615 152.19975q0.21875 -1.796875 1.171875 -2.921875q0.953125 -1.125 2.40625 -1.09375q1.234375 0.03125 1.84375 0.890625l0.265625 -0.75l1.859375 0l-1.265625 7.484375q-0.21875 1.546875 -1.328125 2.4375q-1.09375 0.90625 -2.734375 0.890625q-0.8125 -0.015625 -1.546875 -0.359375q-0.71875 -0.328125 -1.1875 -0.90625l1.0 -1.234375q0.671875 0.859375 1.6875 0.890625q0.78125 0.015625 1.34375 -0.421875q0.5625 -0.4375 0.765625 -1.234375l0.109375 -0.46875q-0.84375 0.84375 -1.90625 0.8125q-1.125 -0.015625 -1.796875 -0.84375q-0.65625 -0.828125 -0.71875 -2.140625q-0.03125 -0.4375 0.03125 -1.03125zm1.984375 0.84375q0 0.671875 0.28125 1.078125q0.28125 0.40625 0.828125 0.421875q0.8125 0.03125 1.453125 -0.703125l0.59375 -3.28125q-0.296875 -0.671875 -1.125 -0.703125q-0.78125 -0.015625 -1.328125 0.640625q-0.53125 0.640625 -0.65625 1.703125q-0.046875 0.515625 -0.046875 0.84375zm11.12439 -2.765625q-0.421875 -0.078125 -0.6875 -0.078125q-1.078125 -0.03125 -1.703125 0.8125l-0.890625 5.0625l-2.03125 0l1.34375 -7.75l1.90625 0l-0.1875 0.9375q0.734375 -1.09375 1.796875 -1.09375q0.3125 0 0.703125 0.109375l-0.25 2.0zm3.4989014 5.9375q-1.015625 0 -1.8125 -0.484375q-0.78125 -0.5 -1.171875 -1.359375q-0.375 -0.859375 -0.296875 -1.875l0.03125 -0.296875q0.109375 -1.125 0.65625 -2.0625q0.546875 -0.953125 1.40625 -1.46875q0.875 -0.515625 1.921875 -0.484375q1.5 0.03125 2.265625 1.109375q0.78125 1.0625 0.59375 2.703125l-0.125 0.875l-4.734375 0q-0.03125 0.75 0.359375 1.203125q0.390625 0.453125 1.078125 0.46875q1.09375 0.03125 1.921875 -0.859375l0.9375 1.15625q-0.4375 0.65625 -1.265625 1.03125q-0.828125 0.359375 -1.765625 0.34375zm0.640625 -6.359375q-0.5625 -0.015625 -1.0 0.359375q-0.421875 0.359375 -0.765625 1.265625l2.78125 0l0.03125 -0.1875q0.046875 -0.296875 0.015625 -0.546875q-0.078125 -0.421875 -0.359375 -0.65625q-0.28125 -0.234375 -0.703125 -0.234375zm7.1168823 6.359375q-1.015625 0 -1.8125 -0.484375q-0.78125 -0.5 -1.171875 -1.359375q-0.375 -0.859375 -0.296875 -1.875l0.03125 -0.296875q0.109375 -1.125 0.65625 -2.0625q0.546875 -0.953125 1.40625 -1.46875q0.875 -0.515625 1.921875 -0.484375q1.5 0.03125 2.265625 1.109375q0.78125 1.0625 0.59375 2.703125l-0.125 0.875l-4.734375 0q-0.03125 0.75 0.359375 1.203125q0.390625 0.453125 1.078125 0.46875q1.09375 0.03125 1.921875 -0.859375l0.9375 1.15625q-0.4375 0.65625 -1.265625 1.03125q-0.828125 0.359375 -1.765625 0.34375zm0.640625 -6.359375q-0.5625 -0.015625 -1.0 0.359375q-0.421875 0.359375 -0.765625 1.265625l2.78125 0l0.03125 -0.1875q0.046875 -0.296875 0.015625 -0.546875q-0.078125 -0.421875 -0.359375 -0.65625q-0.28125 -0.234375 -0.703125 -0.234375zm6.6325073 -1.53125l-0.171875 0.921875q0.921875 -1.09375 2.25 -1.0625q1.09375 0.03125 1.609375 0.8125q0.53125 0.765625 0.390625 2.15625l-0.828125 4.921875l-2.015625 0l0.828125 -4.9375q0.046875 -0.28125 0.015625 -0.515625q-0.09375 -0.734375 -0.90625 -0.75q-0.796875 -0.03125 -1.421875 0.734375l-0.96875 5.46875l-2.015625 0l1.34375 -7.75l1.890625 0z" fill-rule="nonzero"/><path fill="#999999" d="m596.36664 146.18413l-0.71875 2.828125l-1.15625 0l0.625 -3.9375l1.421875 0l-0.171875 1.109375zm2.25 0l-0.703125 2.828125l-1.140625 0l0.609375 -3.9375l1.40625 0l-0.171875 1.109375z" fill-rule="nonzero"/><path fill="#999999" d="m494.95316 151.01476l4.630188 0l0 1.3199921l-4.630188 0l0 -1.3199921z" fill-rule="nonzero"/><path fill="#6d9eeb" d="m499.58334 151.01476l27.702301 0l0 1.3199921l-27.702301 0l0 -1.3199921z" fill-rule="nonzero"/><path fill="#999999" d="m527.28564 151.01476l4.630188 0l0 1.3199921l-4.630188 0l0 -1.3199921z" fill-rule="nonzero"/><path fill="#000000" fill-opacity="0.0" d="m144.69292 140.08136l151.84251 0l0 21.574814l-151.84251 0z" fill-rule="evenodd"/><path fill="#999999" d="m178.33565 158.52689q-1.140625 -0.375 -1.6875 -1.234375q-0.546875 -0.875 -0.421875 -2.109375l0.203125 -1.453125q0.03125 -0.3125 0.015625 -0.5625q-0.078125 -0.8125 -0.96875 -0.890625l0.140625 -1.484375q1.3125 -0.046875 1.53125 -1.578125l0.234375 -1.65625q0.421875 -2.328125 2.890625 -3.0625l0.328125 1.1875q-1.203125 0.46875 -1.4375 2.171875l-0.21875 1.640625q-0.25 1.375 -1.609375 2.0625q0.5 0.375 0.71875 0.9375q0.234375 0.546875 0.171875 1.234375l-0.21875 1.703125l-0.03125 0.40625q-0.046875 1.15625 0.796875 1.53125l-0.4375 1.15625zm7.9738617 -12.46875l-0.71875 2.828125l-1.15625 0l0.625 -3.9375l1.421875 0l-0.171875 1.109375zm2.25 0l-0.703125 2.828125l-1.140625 0l0.609375 -3.9375l1.40625 0l-0.171875 1.109375zm2.6295166 8.375q0.5625 0.015625 0.9375 -0.296875q0.375 -0.328125 0.484375 -0.859375l1.90625 0q-0.0625 0.8125 -0.53125 1.46875q-0.453125 0.640625 -1.21875 1.015625q-0.765625 0.359375 -1.625 0.34375q-1.40625 -0.03125 -2.234375 -0.984375q-0.8125 -0.953125 -0.78125 -2.53125l0.015625 -0.390625l0 -0.078125q0.203125 -1.890625 1.28125 -2.984375q1.078125 -1.109375 2.671875 -1.078125q1.3125 0.03125 2.078125 0.859375q0.765625 0.828125 0.75 2.171875l-1.875 0q0 -0.609375 -0.28125 -0.96875q-0.265625 -0.359375 -0.8125 -0.390625q-1.4375 -0.046875 -1.75 2.109375q-0.109375 0.78125 -0.078125 1.3125q0.0625 1.265625 1.0625 1.28125zm8.53244 -6.375q1.015625 0.015625 1.75 0.53125q0.75 0.515625 1.09375 1.421875q0.359375 0.890625 0.25 1.984375q-0.15625 1.84375 -1.28125 2.984375q-1.125 1.140625 -2.765625 1.109375q-1.015625 -0.015625 -1.75 -0.515625q-0.734375 -0.5 -1.09375 -1.390625q-0.34375 -0.90625 -0.234375 -1.984375q0.171875 -1.921875 1.28125 -3.046875q1.125 -1.125 2.75 -1.09375zm-2.046875 4.875q0.015625 0.6875 0.328125 1.09375q0.3125 0.390625 0.859375 0.40625q0.9375 0.03125 1.46875 -0.84375q0.53125 -0.890625 0.484375 -2.328125q-0.015625 -0.6875 -0.328125 -1.09375q-0.296875 -0.421875 -0.875 -0.4375q-0.890625 -0.03125 -1.4375 0.84375q-0.53125 0.875 -0.5 2.359375zm7.8581696 3.015625l-2.03125 0l1.90625 -11.0l2.03125 0l-1.90625 11.0zm6.139847 -7.890625q1.015625 0.015625 1.75 0.53125q0.75 0.515625 1.09375 1.421875q0.359375 0.890625 0.25 1.984375q-0.15625 1.84375 -1.28125 2.984375q-1.125 1.140625 -2.765625 1.109375q-1.015625 -0.015625 -1.75 -0.515625q-0.734375 -0.5 -1.09375 -1.390625q-0.34375 -0.90625 -0.234375 -1.984375q0.171875 -1.921875 1.28125 -3.046875q1.125 -1.125 2.75 -1.09375zm-2.046875 4.875q0.015625 0.6875 0.328125 1.09375q0.3125 0.390625 0.859375 0.40625q0.9375 0.03125 1.46875 -0.84375q0.53125 -0.890625 0.484375 -2.328125q-0.015625 -0.6875 -0.328125 -1.09375q-0.296875 -0.421875 -0.875 -0.4375q-0.890625 -0.03125 -1.4375 0.84375q-0.53125 0.875 -0.5 2.359375zm11.030045 -2.78125q-0.421875 -0.078125 -0.6875 -0.078125q-1.078125 -0.03125 -1.703125 0.8125l-0.890625 5.0625l-2.03125 0l1.34375 -7.75l1.90625 0l-0.1875 0.9375q0.734375 -1.09375 1.796875 -1.09375q0.3125 0 0.703125 0.109375l-0.25 2.0zm2.7807617 -4.09375l-0.71875 2.828125l-1.15625 0l0.625 -3.9375l1.421875 0l-0.171875 1.109375zm2.25 0l-0.703125 2.828125l-1.140625 0l0.609375 -3.9375l1.40625 0l-0.171875 1.109375zm1.0832977 7.765625q0.46875 -0.015625 0.8125 0.296875q0.34375 0.296875 0.34375 0.78125q0.015625 0.46875 -0.3125 0.796875q-0.328125 0.328125 -0.8125 0.328125q-0.484375 0.015625 -0.8125 -0.28125q-0.328125 -0.296875 -0.34375 -0.765625q-0.015625 -0.484375 0.296875 -0.8125q0.328125 -0.34375 0.828125 -0.34375zm1.0 -6.0q0.46875 -0.015625 0.8125 0.296875q0.34375 0.296875 0.34375 0.78125q0.015625 0.46875 -0.3125 0.796875q-0.328125 0.328125 -0.8125 0.328125q-0.484375 0.015625 -0.8125 -0.28125q-0.328125 -0.296875 -0.34375 -0.765625q-0.015625 -0.484375 0.296875 -0.8125q0.328125 -0.34375 0.828125 -0.34375zm7.9971313 -1.765625l-0.71875 2.828125l-1.15625 0l0.625 -3.9375l1.421875 0l-0.171875 1.109375zm2.25 0l-0.703125 2.828125l-1.140625 0l0.609375 -3.9375l1.40625 0l-0.171875 1.109375z" fill-rule="nonzero"/><path fill="#6aa84f" d="m238.06902 152.07376q0.21875 -1.796875 1.171875 -2.921875q0.953125 -1.125 2.40625 -1.09375q1.234375 0.03125 1.84375 0.890625l0.265625 -0.75l1.859375 0l-1.265625 7.484375q-0.21875 1.546875 -1.328125 2.4375q-1.09375 0.90625 -2.734375 0.890625q-0.8125 -0.015625 -1.546875 -0.359375q-0.71875 -0.328125 -1.1875 -0.90625l1.0 -1.234375q0.671875 0.859375 1.6875 0.890625q0.78125 0.015625 1.34375 -0.421875q0.5625 -0.4375 0.765625 -1.234375l0.109375 -0.46875q-0.84375 0.84375 -1.90625 0.8125q-1.125 -0.015625 -1.796875 -0.84375q-0.65625 -0.828125 -0.71875 -2.140625q-0.03125 -0.4375 0.03125 -1.03125zm1.984375 0.84375q0 0.671875 0.28125 1.078125q0.28125 0.40625 0.828125 0.421875q0.8125 0.03125 1.453125 -0.703125l0.59375 -3.28125q-0.296875 -0.671875 -1.125 -0.703125q-0.78125 -0.015625 -1.328125 0.640625q-0.53125 0.640625 -0.65625 1.703125q-0.046875 0.515625 -0.046875 0.84375zm11.12439 -2.765625q-0.421875 -0.078125 -0.6875 -0.078125q-1.078125 -0.03125 -1.703125 0.8125l-0.890625 5.0625l-2.03125 0l1.34375 -7.75l1.90625 0l-0.1875 0.9375q0.734375 -1.09375 1.796875 -1.09375q0.3125 0 0.703125 0.109375l-0.25 2.0zm3.4988708 5.9375q-1.015625 0 -1.8125 -0.484375q-0.78125 -0.5 -1.171875 -1.359375q-0.375 -0.859375 -0.296875 -1.875l0.03125 -0.296875q0.109375 -1.125 0.65625 -2.0625q0.546875 -0.953125 1.40625 -1.46875q0.875 -0.515625 1.921875 -0.484375q1.4999847 0.03125 2.2656097 1.109375q0.78125 1.0625 0.59375 2.703125l-0.125 0.875l-4.7343597 0q-0.03125 0.75 0.359375 1.203125q0.390625 0.453125 1.078125 0.46875q1.09375 0.03125 1.9218597 -0.859375l0.9375 1.15625q-0.4375 0.65625 -1.265625 1.03125q-0.82810974 0.359375 -1.7656097 0.34375zm0.640625 -6.359375q-0.5625 -0.015625 -1.0 0.359375q-0.421875 0.359375 -0.765625 1.265625l2.7812347 0l0.03125 -0.1875q0.046875 -0.296875 0.015625 -0.546875q-0.078125 -0.421875 -0.359375 -0.65625q-0.28123474 -0.234375 -0.70310974 -0.234375zm7.116867 6.359375q-1.015625 0 -1.8125 -0.484375q-0.78125 -0.5 -1.171875 -1.359375q-0.375 -0.859375 -0.296875 -1.875l0.03125 -0.296875q0.109375 -1.125 0.65625 -2.0625q0.546875 -0.953125 1.40625 -1.46875q0.875 -0.515625 1.921875 -0.484375q1.5 0.03125 2.265625 1.109375q0.78125 1.0625 0.59375 2.703125l-0.125 0.875l-4.734375 0q-0.03125 0.75 0.359375 1.203125q0.390625 0.453125 1.078125 0.46875q1.09375 0.03125 1.921875 -0.859375l0.9375 1.15625q-0.4375 0.65625 -1.265625 1.03125q-0.828125 0.359375 -1.765625 0.34375zm0.640625 -6.359375q-0.5625 -0.015625 -1.0 0.359375q-0.421875 0.359375 -0.765625 1.265625l2.78125 0l0.03125 -0.1875q0.046875 -0.296875 0.015625 -0.546875q-0.078125 -0.421875 -0.359375 -0.65625q-0.28125 -0.234375 -0.703125 -0.234375zm6.6325073 -1.53125l-0.171875 0.921875q0.921875 -1.09375 2.25 -1.0625q1.09375 0.03125 1.609375 0.8125q0.53125 0.765625 0.390625 2.15625l-0.828125 4.921875l-2.015625 0l0.828125 -4.9375q0.046875 -0.28125 0.015625 -0.515625q-0.09375 -0.734375 -0.90625 -0.75q-0.796875 -0.03125 -1.421875 0.734375l-0.96875 5.46875l-2.015625 0l1.34375 -7.75l1.890625 0z" fill-rule="nonzero"/><path fill="#999999" d="m277.25952 146.05814l-0.71875 2.828125l-1.15625 0l0.625 -3.9375l1.421875 0l-0.171875 1.109375zm2.25 0l-0.703125 2.828125l-1.140625 0l0.609375 -3.9375l1.40625 0l-0.171875 1.109375zm2.5878906 11.296875q1.203125 -0.46875 1.4375 -2.171875l0.234375 -1.640625q0.234375 -1.390625 1.609375 -2.0625q-0.515625 -0.34375 -0.75 -0.90625q-0.21875 -0.578125 -0.15625 -1.265625l0.21875 -1.703125l0.03125 -0.40625q0.046875 -1.140625 -0.78125 -1.53125l0.453125 -1.140625q1.15625 0.390625 1.671875 1.265625q0.53125 0.859375 0.40625 2.0625l-0.203125 1.453125q-0.03125 0.3125 0 0.5625q0.0625 0.8125 0.953125 0.890625l-0.125 1.484375q-1.34375 0.078125 -1.546875 1.578125l-0.1875 1.4375q-0.375 2.515625 -2.9375 3.296875l-0.328125 -1.203125z" fill-rule="nonzero"/></g></svg>